<svg width="32" height="32" viewBox="0 0 32 32" fill="none" xmlns="http://www.w3.org/2000/svg">
<path d="M31.9299 24.7942C31.8394 24.5214 31.2636 24.1197 30.2028 23.5899C29.9154 23.4228 29.5059 23.1959 28.9761 22.908C28.4458 22.6201 27.9644 22.3547 27.5329 22.1123C27.1005 21.8699 26.6954 21.6351 26.3169 21.4081C26.2564 21.3627 26.067 21.2303 25.7489 21.0101C25.4304 20.7906 25.1618 20.6276 24.9417 20.5213C24.7221 20.4157 24.506 20.3625 24.2939 20.3625C23.9909 20.3625 23.6125 20.5786 23.1581 21.0101C22.7038 21.4422 22.287 21.9115 21.9084 22.4195C21.5297 22.9273 21.1281 23.3967 20.7043 23.8285C20.2799 24.2605 19.9311 24.4763 19.6587 24.4763C19.522 24.4763 19.3515 24.4382 19.1471 24.3629C18.9429 24.2872 18.7875 24.2224 18.6808 24.1701C18.5751 24.1167 18.3937 24.0109 18.1359 23.8513C17.8777 23.6922 17.7341 23.6051 17.7038 23.5899C15.6282 22.4381 13.8481 21.1199 12.3631 19.6355C10.8786 18.1503 9.5602 16.3703 8.40876 14.2944C8.39363 14.2641 8.30631 14.1201 8.14734 13.8627C7.98814 13.605 7.88203 13.4234 7.82901 13.3171C7.776 13.2111 7.7116 13.0557 7.63598 12.8512C7.56035 12.6467 7.52238 12.4764 7.52238 12.3399C7.52238 12.0673 7.73834 11.7187 8.17019 11.2944C8.60195 10.8703 9.07176 10.4687 9.57915 10.0902C10.0869 9.71165 10.5563 9.29485 10.9882 8.84048C11.42 8.38587 11.6358 8.00728 11.6358 7.70432C11.6358 7.49234 11.5828 7.27622 11.4769 7.05659C11.3708 6.83649 11.208 6.56791 10.9882 6.24958C10.7683 5.93141 10.6358 5.7422 10.5903 5.6813C10.3632 5.30279 10.1286 4.89754 9.88594 4.46569C9.64323 4.03393 9.37831 3.55265 9.09031 3.02242C8.80255 2.49243 8.57544 2.08319 8.4086 1.79535C7.8786 0.734969 7.47717 0.158966 7.20437 0.0683785C7.09826 0.0229255 6.93906 0 6.72716 0C6.31784 0 5.78387 0.0756223 5.12484 0.227344C4.46557 0.378828 3.9468 0.537714 3.56798 0.70464C2.8104 1.02265 2.00745 1.94684 1.15889 3.47687C0.386188 4.9008 -0.00012207 6.31016 -0.00012207 7.70392C-0.00012207 8.11268 0.0263855 8.51037 0.0794007 8.89708C0.132416 9.28339 0.227143 9.71905 0.363661 10.204C0.49994 10.6888 0.609871 11.0489 0.692976 11.2834C0.77616 11.5181 0.931465 11.9384 1.15881 12.5447C1.38584 13.1508 1.52235 13.5218 1.56781 13.6582C2.09804 15.1431 2.72682 16.4687 3.45398 17.6354C4.65041 19.5747 6.28313 21.5789 8.3512 23.6471C10.4194 25.7152 12.4231 27.3478 14.3625 28.5447C15.5291 29.2718 16.8552 29.9005 18.3399 30.4311C18.4763 30.4763 18.8473 30.6125 19.4532 30.8404C20.0593 31.0675 20.4798 31.2228 20.7145 31.3062C20.9492 31.3896 21.3094 31.4996 21.7938 31.6361C22.2792 31.7727 22.7145 31.8674 23.1008 31.9208C23.4874 31.9731 23.8851 32.0001 24.294 32.0001C25.6876 32.0001 27.0971 31.6135 28.5213 30.8409C30.0511 29.9927 30.9751 29.1896 31.2932 28.4314C31.4606 28.053 31.6191 27.5341 31.7705 26.8748C31.9225 26.2159 31.998 25.682 31.998 25.2727C31.9984 25.0599 31.9756 24.9011 31.9299 24.7942Z" fill="#78C081"/>
</svg>
