<svg width="24" height="31" viewBox="0 0 24 31" fill="none" xmlns="http://www.w3.org/2000/svg">
<path d="M12 0C8.8187 0.0040882 5.7689 1.23017 3.51938 3.4094C1.26986 5.58862 0.00422007 8.54311 0 11.625C0 19.9708 11.18 30.4236 11.655 30.8644C11.7474 30.9514 11.8712 31 12 31C12.1288 31 12.2526 30.9514 12.345 30.8644C12.82 30.4236 24 19.9708 24 11.625C23.9958 8.54311 22.7301 5.58862 20.4806 3.4094C18.2311 1.23017 15.1813 0.0040882 12 0ZM12 16.9531C10.9122 16.9531 9.84883 16.6406 8.94436 16.0552C8.03989 15.4697 7.33494 14.6376 6.91866 13.664C6.50238 12.6904 6.39346 11.6191 6.60568 10.5855C6.8179 9.55198 7.34172 8.6026 8.11091 7.85745C8.8801 7.1123 9.86011 6.60484 10.927 6.39925C11.9939 6.19367 13.0998 6.29918 14.1048 6.70246C15.1098 7.10573 15.9687 7.78865 16.5731 8.66485C17.1774 9.54106 17.5 10.5712 17.5 11.625C17.4991 13.0378 16.9194 14.3926 15.8881 15.3916C14.8569 16.3907 13.4584 16.9523 12 16.9531Z" fill="#78C081"/>
</svg>
