<svg width="529" height="301" viewBox="0 0 529 301" fill="none" xmlns="http://www.w3.org/2000/svg">
<g opacity="0.5" clip-path="url(#clip0_1538_38)">
<path d="M181.84 43.2482L72.8327 98.1325L274.841 140.056L196.231 46.1859C194.517 44.1421 192.161 42.7391 189.548 42.2057C186.935 41.6722 184.218 42.0397 181.84 43.2482Z" fill="#EBEBEB"/>
<path d="M71.5832 98.2954L181.656 42.8736C184.117 41.613 186.933 41.2284 189.642 41.7832C192.35 42.3381 194.789 43.7992 196.556 45.9258L275.939 140.715L71.5832 98.2954ZM192.124 43.4473C190.548 42.6904 188.817 42.3087 187.069 42.3319C185.32 42.3551 183.6 42.7827 182.045 43.5812L74.0724 97.9738L273.761 139.415L195.934 46.4426C194.884 45.1939 193.58 44.1846 192.107 43.4826L192.124 43.4473Z" fill="#E0E0E0"/>
<path d="M72.8193 98.1562L275.538 140.229L252.741 250.073C252.289 252.248 250.992 254.155 249.135 255.374C247.278 256.593 245.012 257.024 242.837 256.572L56.5292 217.906C54.354 217.454 52.4472 216.157 51.2284 214.3C50.0095 212.443 49.5783 210.177 50.0298 208.002L72.827 98.1578L72.8193 98.1562Z" fill="#F0F0F0"/>
<path d="M261.813 140.221L168.26 174.142L83.6832 107.187L97.0221 51.6805C97.6662 48.7937 99.4201 46.2762 101.905 44.6717C104.39 43.0673 107.406 42.5047 110.302 43.1056L263.851 74.9926C265.299 75.2919 266.674 75.8739 267.897 76.7053C269.12 77.5367 270.167 78.6011 270.978 79.8376C271.789 81.0741 272.349 82.4585 272.624 83.9114C272.9 85.3644 272.886 86.8574 272.584 88.3051L261.813 140.221Z" fill="white"/>
<path d="M162.071 164.96L50.1479 206.978C49.9012 208.162 49.8903 209.384 50.116 210.572C50.3417 211.761 50.7994 212.893 51.4631 213.905C52.1268 214.917 52.9834 215.787 53.9839 216.468C54.9844 217.148 56.1092 217.624 57.2939 217.87L242.187 256.222C244.579 256.718 247.07 256.244 249.112 254.904C251.155 253.564 252.581 251.468 253.079 249.076L253.222 248.381L172.333 167.188C171.019 165.867 169.352 164.954 167.531 164.559C165.71 164.164 163.814 164.303 162.071 164.96Z" fill="#E0E0E0"/>
<path d="M172.562 82.217L112.484 69.7593L111.212 75.8934L171.29 88.3512L172.562 82.217Z" fill="#E0E0E0"/>
<path d="M242.555 112.951L109.258 85.311L107.821 92.2416L241.118 119.882L242.555 112.951Z" fill="#E0E0E0"/>
<path d="M239.048 129.885L105.75 102.245L104.313 109.175L237.611 136.816L239.048 129.885Z" fill="#E0E0E0"/>
<path d="M231.922 151.126L226.4 153.061L113.883 131.119L102.29 121.785L102.478 120.131L235.346 147.687L234.874 149.986L231.922 151.126Z" fill="#E0E0E0"/>
<path d="M193.825 164.871L143.418 154.41L131.165 144.646L206.505 160.269L193.825 164.871Z" fill="#E0E0E0"/>
<path d="M157.987 166.485C157.987 166.485 157.901 166.539 157.717 166.615L156.9 166.942L153.766 168.152L142.182 172.587C132.392 176.306 118.836 181.432 103.876 187.004C88.9163 192.575 75.2722 197.486 65.3908 200.944C60.4466 202.671 56.431 204.055 53.6574 204.986L50.4625 206.053L49.6235 206.318C49.5309 206.356 49.4337 206.382 49.3344 206.395C49.4219 206.347 49.5138 206.307 49.6089 206.276L50.4332 205.969L53.5884 204.822L65.2709 200.652C75.1272 197.156 88.7389 192.186 103.726 186.611C118.714 181.035 132.248 176.028 142.066 172.306L153.687 167.992L156.845 166.838L157.677 166.553L157.987 166.485Z" fill="#FAFAFA"/>
<path d="M253.222 248.381C253.139 248.463 235.836 231.263 214.576 209.964C193.316 188.666 176.147 171.331 176.23 171.249C176.312 171.167 193.619 188.36 214.865 209.687C236.112 231.014 253.308 248.292 253.222 248.381Z" fill="#FAFAFA"/>
<path d="M266.279 138.568C266.21 138.612 266.137 138.65 266.06 138.68L265.397 138.96L262.835 140.01L253.367 143.779C245.353 146.928 234.259 151.192 221.935 155.74C209.612 160.288 198.398 164.241 190.262 167.046L180.609 170.318L177.974 171.177L177.288 171.394C177.128 171.438 177.048 171.461 177.044 171.45C177.118 171.411 177.195 171.379 177.274 171.352L177.945 171.093L180.554 170.161L190.157 166.761C198.274 163.886 209.469 159.88 221.782 155.336C234.096 150.792 245.214 146.567 253.251 143.498L262.805 139.874L265.343 138.873L266.025 138.628C266.107 138.598 266.192 138.578 266.279 138.568Z" fill="#FAFAFA"/>
<path d="M157.987 166.485C157.906 166.44 157.83 166.386 157.761 166.324L157.138 165.816L154.657 163.755C152.538 161.99 149.445 159.452 145.599 156.352C137.923 150.135 127.177 141.713 115.281 132.451C103.385 123.189 92.6665 114.727 85.0386 108.446C81.2194 105.308 78.1506 102.738 76.059 100.934L73.6805 98.896L73.074 98.3527C72.9992 98.295 72.9323 98.2279 72.875 98.1528L73.098 98.3208L73.7248 98.8219L76.1699 100.866C78.2959 102.635 81.3921 105.165 85.2353 108.272C92.9112 114.489 103.65 122.908 115.553 132.174C127.456 141.439 138.168 149.897 145.796 156.178C149.615 159.317 152.687 161.879 154.775 163.69L157.175 165.773L157.782 166.317L157.987 166.485Z" fill="#FAFAFA"/>
<path d="M261.813 140.221C261.813 140.221 261.854 139.955 261.962 139.425L262.406 137.183C262.806 135.197 263.395 132.295 264.152 128.554L270.655 96.8632C271.002 95.1905 271.355 93.4768 271.712 91.7223C271.895 90.8554 272.081 89.9641 272.259 89.0693C272.354 88.6201 272.455 88.1743 272.515 87.7256C272.589 87.2749 272.631 86.8195 272.641 86.3629C272.703 84.4457 272.264 82.5455 271.367 80.8496C270.471 79.1538 269.148 77.7209 267.529 76.6923C266.69 76.1515 265.781 75.7288 264.826 75.436C263.864 75.164 262.843 74.9768 261.829 74.758L255.618 73.5067L242.703 70.8017L185.137 58.8762L127.543 46.9021L114.629 44.2146L111.505 43.5805C110.503 43.324 109.48 43.1571 108.447 43.0818C107.435 43.032 106.421 43.1289 105.437 43.3694C104.464 43.5967 103.528 43.9584 102.655 44.4441C101.796 44.9191 101.002 45.5027 100.292 46.1805C99.6075 46.8571 99.0094 47.6159 98.5113 48.4396C97.4693 50.0647 97.1486 51.9586 96.6971 53.7636C95.82 57.3917 94.9791 60.8666 94.1743 64.1882C90.9258 77.4748 88.3556 88.2325 86.5212 95.6556C85.6057 99.3636 84.9013 102.236 84.4276 104.195C84.1872 105.164 83.9957 105.905 83.8706 106.418C83.7456 106.931 83.6585 107.184 83.6585 107.184C83.6585 107.184 83.7069 106.921 83.8283 106.398C83.9497 105.875 84.1203 105.141 84.3433 104.172C84.8062 102.199 85.4895 99.3165 86.3664 95.5985C88.134 88.1519 90.6971 77.3909 93.8582 64.1056C94.6583 60.7817 95.4899 57.3024 96.3528 53.6674C96.7942 51.8836 97.1279 49.9266 98.197 48.245C98.7028 47.4127 99.3103 46.6467 100.005 45.9645C100.738 45.2653 101.556 44.6615 102.44 44.1675C103.34 43.6645 104.306 43.2905 105.309 43.0565C106.325 42.8008 107.372 42.6964 108.418 42.7464C109.473 42.8106 110.52 42.9714 111.546 43.2266L114.704 43.8777L127.632 46.5545L185.24 58.5003L242.835 70.4743L255.71 73.117L261.9 74.4106C262.918 74.6223 263.921 74.8098 264.93 75.0951C266.386 75.5456 267.738 76.282 268.906 77.2611C270.074 78.2402 271.035 79.4424 271.733 80.7974C272.621 82.5241 273.051 84.4491 272.984 86.3891C272.976 86.8591 272.93 87.3277 272.848 87.7905C272.782 88.2532 272.687 88.7024 272.593 89.1516C272.407 90.043 272.222 90.9344 272.036 91.8083C271.671 93.5594 271.309 95.2685 270.964 96.9424L264.318 128.625C263.529 132.359 262.873 135.238 262.495 137.234C262.275 138.213 262.115 138.961 262.001 139.47C261.886 139.979 261.813 140.221 261.813 140.221Z" fill="#E0E0E0"/>
<path d="M200.897 65.1196L191.374 67.0744L186.838 77.3725L182.897 69.2371L177.922 70.5588L172.482 47.583L200.897 65.1196Z" fill="#5CCD6A"/>
<g opacity="0.3">
<path d="M187.722 67.9731C187.573 68.2832 186.838 77.3721 186.838 77.3721L182.897 69.2366L187.722 67.9731Z" fill="black"/>
</g>
<path d="M172.482 47.583L187.715 67.9702L186.838 77.3725L191.374 67.0744L172.482 47.583Z" fill="#54BE61"/>
<path d="M163.1 211.452C161.867 210.807 160.78 209.915 159.908 208.832C161.141 209.476 162.228 210.368 163.1 211.452Z" fill="#495D4C"/>
<path d="M168.187 215.634C168.136 215.74 167.625 215.45 167.101 215.025C166.576 214.599 166.213 214.164 166.285 214.068C166.357 213.973 166.847 214.252 167.375 214.688C167.903 215.124 168.266 215.542 168.187 215.634Z" fill="#495D4C"/>
<path d="M202.538 83.2912C201.908 82.9997 201.333 82.6027 200.837 82.1175C200.252 81.7451 199.74 81.2693 199.325 80.7135C199.993 80.9332 200.602 81.3032 201.105 81.7951C201.696 82.1713 202.187 82.6846 202.538 83.2912Z" fill="#495D4C"/>
<path d="M207.954 89.4973C207.408 89.0708 206.941 88.5524 206.573 87.9654C206.095 87.4649 205.707 86.8849 205.427 86.2515C206.028 86.6139 206.534 87.1131 206.905 87.7085C207.611 88.6036 208.054 89.4328 207.954 89.4973Z" fill="#495D4C"/>
<path d="M211.711 96.8241C211.597 96.8644 211.223 96.0341 210.753 94.9919C210.282 93.9497 209.933 93.0875 210.069 93.04C210.562 93.5409 210.931 94.1496 211.149 94.8179C211.606 95.8708 211.816 96.7876 211.711 96.8241Z" fill="#495D4C"/>
<path d="M213.392 104.879C213.269 104.881 213.133 103.973 212.976 102.856C212.818 102.181 212.772 101.485 212.839 100.795C212.947 100.768 213.248 101.659 213.402 102.801C213.563 103.485 213.559 104.197 213.392 104.879Z" fill="#495D4C"/>
<path d="M212.604 113.066C212.565 112.374 212.64 111.68 212.828 111.013C212.872 110.319 213.038 109.638 213.318 109.001C213.463 109.691 213.438 110.405 213.245 111.083C213.199 111.787 212.978 112.468 212.604 113.066Z" fill="#495D4C"/>
<path d="M209.426 120.65C209.594 119.977 209.87 119.337 210.243 118.752C210.49 118.103 210.849 117.503 211.304 116.98C211.237 117.679 211.005 118.353 210.627 118.945C210.367 119.601 209.955 120.185 209.426 120.65Z" fill="#495D4C"/>
<path d="M204.064 126.871C204.438 126.289 204.904 125.772 205.443 125.339C205.878 124.804 206.394 124.34 206.972 123.965C206.701 124.617 206.268 125.188 205.714 125.625C205.275 126.17 204.708 126.598 204.064 126.871Z" fill="#495D4C"/>
<path d="M196.863 130.82C196.833 130.701 197.681 130.345 198.717 129.906C199.753 129.467 200.6 129.076 200.654 129.198C200.164 129.705 199.556 130.083 198.884 130.299C197.824 130.752 196.896 130.931 196.863 130.82Z" fill="#495D4C"/>
<path d="M188.721 131.833C189.391 131.659 190.084 131.594 190.775 131.641C191.461 131.546 192.159 131.565 192.839 131.696C192.195 131.987 191.49 132.116 190.785 132.071C190.088 132.163 189.379 132.081 188.721 131.833Z" fill="#495D4C"/>
<path d="M180.737 129.92C181.424 129.994 182.093 130.181 182.719 130.474C183.396 130.627 184.043 130.889 184.637 131.249C183.933 131.298 183.227 131.171 182.585 130.878C181.898 130.719 181.263 130.39 180.737 129.92Z" fill="#495D4C"/>
<path d="M174.155 125.019C174.746 125.38 175.279 125.827 175.739 126.344C176.291 126.758 176.78 127.25 177.189 127.805C176.519 127.58 175.92 127.184 175.45 126.657C174.881 126.236 174.433 125.67 174.155 125.019Z" fill="#495D4C"/>
<path d="M171.486 117.486C171.592 117.537 171.577 118.398 171.755 119.508C171.933 120.617 172.212 121.463 172.083 121.531C171.955 121.6 171.518 120.739 171.329 119.581C171.144 118.885 171.199 118.147 171.486 117.486Z" fill="#495D4C"/>
<path d="M177.356 113.202C177.302 113.315 176.415 113.192 175.337 113.377C174.259 113.561 173.487 114.066 173.415 113.962C173.344 113.858 174.06 113.162 175.261 112.958C175.965 112.77 176.714 112.857 177.356 113.202Z" fill="#495D4C"/>
<path d="M182.457 118.909C182.331 118.918 182.212 118.011 181.805 116.982C181.397 115.952 180.812 115.255 180.934 115.183C181.554 115.551 182.011 116.14 182.215 116.832C182.539 117.474 182.625 118.21 182.457 118.909Z" fill="#495D4C"/>
<path d="M179.236 126.221C179.583 125.632 179.991 125.081 180.452 124.576C180.801 123.985 181.21 123.431 181.672 122.923C181.514 123.612 181.214 124.26 180.792 124.826C180.371 125.393 179.836 125.865 179.222 126.214L179.236 126.221Z" fill="#495D4C"/>
<path d="M171.747 129.432C171.727 129.31 172.623 129.089 173.706 128.803C174.79 128.517 175.702 128.262 175.718 128.356C175.733 128.45 174.943 128.921 173.835 129.186C172.726 129.452 171.759 129.55 171.747 129.432Z" fill="#495D4C"/>
<path d="M163.509 129.688C164.178 129.49 164.88 129.429 165.573 129.509C166.272 129.45 166.975 129.537 167.638 129.764C166.965 129.958 166.261 130.018 165.566 129.94C164.87 129.997 164.17 129.912 163.509 129.688Z" fill="#495D4C"/>
<path d="M155.263 129.87C155.251 129.752 156.161 129.573 157.307 129.465C157.999 129.352 158.707 129.396 159.38 129.594C159.385 129.726 158.459 129.811 157.334 129.894C156.65 130.031 155.944 130.023 155.263 129.87Z" fill="#495D4C"/>
<path d="M147.313 132.018C147.27 131.91 148.088 131.453 149.177 131.083C150.267 130.713 151.163 130.563 151.225 130.688C151.286 130.813 150.378 131.149 149.313 131.505C148.248 131.86 147.378 132.101 147.313 132.018Z" fill="#495D4C"/>
<path d="M140.134 136.046C140.551 135.481 141.094 135.02 141.719 134.699C142.685 134.079 143.547 133.713 143.608 133.82C143.131 134.325 142.571 134.746 141.952 135.063C141.035 135.689 140.209 136.143 140.134 136.046Z" fill="#495D4C"/>
<path d="M134.106 141.652C134.374 141.003 134.793 140.428 135.329 139.975C135.76 139.419 136.316 138.973 136.953 138.673C136.611 139.279 136.166 139.819 135.638 140.271C135.212 140.817 134.693 141.284 134.106 141.652Z" fill="#495D4C"/>
<path d="M129.594 148.542C129.933 147.184 130.637 145.944 131.631 144.957C131.447 145.626 131.143 146.256 130.736 146.818C130.459 147.455 130.073 148.039 129.594 148.542Z" fill="#495D4C"/>
<path d="M127.031 156.362C126.977 155.664 127.069 154.964 127.3 154.304C127.377 153.603 127.636 152.935 128.051 152.365C128.043 153.059 127.931 153.749 127.718 154.41C127.626 155.101 127.392 155.765 127.031 156.362Z" fill="#495D4C"/>
<path d="M126.612 164.578C126.351 163.926 126.247 163.222 126.307 162.522C126.225 161.824 126.312 161.115 126.562 160.458C126.739 161.13 126.797 161.827 126.734 162.519C126.819 163.207 126.778 163.905 126.612 164.578Z" fill="#495D4C"/>
<path d="M128.209 172.662C128.104 172.699 127.728 171.858 127.402 170.73C127.161 170.069 127.074 169.362 127.147 168.663C127.272 168.636 127.531 169.524 127.82 170.618C128.11 171.712 128.324 172.622 128.209 172.662Z" fill="#495D4C"/>
<path d="M131.661 180.137C131.127 179.678 130.71 179.099 130.442 178.449C129.902 177.442 129.615 176.558 129.712 176.501C130.182 177.015 130.558 177.607 130.824 178.25C131.367 179.249 131.761 180.072 131.661 180.137Z" fill="#495D4C"/>
<path d="M136.818 186.557C136.186 186.248 135.637 185.791 135.22 185.224C134.691 184.759 134.285 184.171 134.039 183.511C134.612 183.899 135.118 184.379 135.534 184.932C136.045 185.402 136.479 185.951 136.818 186.557Z" fill="#495D4C"/>
<path d="M140.072 189.337C140.024 189.436 139.92 189.49 139.888 189.466C139.856 189.442 139.886 189.343 139.987 189.261C140.087 189.179 140.138 189.109 140.17 189.133C140.202 189.157 140.161 189.206 140.072 189.337Z" fill="#495D4C"/>
<path d="M143.573 168.254L137.083 162.016L133.202 166.053L139.692 172.291L143.573 168.254Z" fill="#43AF55"/>
<path d="M143.589 168.274C141.8 168.303 140.012 168.197 138.239 167.957L138.081 167.942L138.051 167.789L137.998 167.555C137.558 165.74 137.26 163.893 137.105 162.031C137.681 163.809 138.121 165.627 138.42 167.472L138.466 167.702L138.278 167.533C140.065 167.637 141.841 167.884 143.589 168.274Z" fill="#2A9348"/>
<path d="M137.877 166.021C137.117 166.243 136.322 166.323 135.533 166.256C134.744 166.325 133.949 166.257 133.183 166.055C133.946 165.838 134.742 165.759 135.533 165.823C136.32 165.755 137.113 165.822 137.877 166.021Z" fill="#2A9348"/>
<path d="M139.79 172.4C139.614 171.661 139.571 170.897 139.661 170.142C139.701 168.868 139.825 167.817 139.959 167.899C140.136 168.639 140.182 169.404 140.095 170.16C140.134 170.919 140.031 171.679 139.79 172.4Z" fill="#2A9348"/>
<path d="M165.959 202.155L149.268 186.113L139.285 196.499L155.976 212.542L165.959 202.155Z" fill="#5CCD6A"/>
<path d="M165.948 202.155C165.588 202.181 165.225 202.173 164.867 202.13L161.935 201.909C159.438 201.688 156.033 201.387 152.211 201.016L152.053 201.001L152.023 200.847L151.902 200.251C151.118 196.359 150.42 192.83 149.943 190.266L149.397 187.235C149.315 186.864 149.267 186.486 149.253 186.107C149.403 186.463 149.516 186.835 149.589 187.214L150.268 190.223C150.825 192.764 151.561 196.286 152.352 200.181L152.477 200.77L152.289 200.602C156.1 200.977 159.527 201.341 161.994 201.625L164.913 201.979C165.263 202.007 165.609 202.066 165.948 202.155Z" fill="#43AF55"/>
<path d="M151.346 196.426C149.342 196.648 147.325 196.73 145.309 196.672C143.296 196.752 141.28 196.693 139.275 196.496C141.278 196.263 143.294 196.177 145.309 196.239C147.323 196.153 149.341 196.216 151.346 196.426Z" fill="#43AF55"/>
<path d="M156.179 212.348C156.068 210.5 156.088 208.643 156.238 206.793C156.261 204.937 156.419 203.082 156.709 201.244C156.826 203.094 156.805 204.953 156.647 206.806C156.626 208.659 156.469 210.512 156.179 212.348Z" fill="#43AF55"/>
<path d="M148.916 189.677C148.249 189.802 147.56 189.726 146.935 189.459C146.311 189.192 145.78 188.746 145.409 188.177C145.039 187.608 144.845 186.942 144.853 186.263C144.86 185.584 145.069 184.923 145.452 184.363C145.836 183.803 146.377 183.369 147.007 183.116C147.637 182.863 148.328 182.802 148.992 182.942C149.657 183.082 150.265 183.415 150.74 183.901C151.214 184.386 151.535 185.001 151.66 185.668C151.743 186.112 151.739 186.567 151.646 187.009C151.553 187.45 151.374 187.869 151.119 188.241C150.864 188.614 150.539 188.932 150.161 189.178C149.783 189.425 149.36 189.594 148.916 189.677Z" fill="#495D4C"/>
<path d="M150.479 186.662C149.591 186.834 148.688 186.929 147.783 186.945L147.158 186.982L147.042 186.988L147.034 186.879C146.955 186.19 146.94 185.494 146.991 184.802C147.149 185.479 147.238 186.171 147.257 186.866L147.144 186.759L147.773 186.714C148.672 186.618 149.577 186.601 150.479 186.662Z" fill="white"/>
<path d="M161.23 179.408L152.484 171.002L147.254 176.444L156 184.85L161.23 179.408Z" fill="#43AF55"/>
<path d="M161.215 179.406C161.026 179.418 160.837 179.414 160.649 179.394L159.108 179.278C157.815 179.168 156.018 179.007 154.021 178.81L153.951 178.776L153.932 178.689L153.871 178.382C153.455 176.342 153.13 174.511 152.839 173.148L152.552 171.56C152.512 171.366 152.487 171.169 152.48 170.97C152.556 171.154 152.609 171.345 152.64 171.541L153 173.121C153.29 174.449 153.678 176.293 154.094 178.333L154.152 178.647L154.039 178.593C156.036 178.79 157.83 178.976 159.126 179.131L160.651 179.317C160.842 179.324 161.032 179.354 161.215 179.406Z" fill="#2A9348"/>
<path d="M153.565 176.404C152.515 176.518 151.459 176.561 150.404 176.533C149.348 176.576 148.289 176.546 147.237 176.442C148.287 176.321 149.344 176.276 150.401 176.306C151.456 176.262 152.514 176.295 153.565 176.404Z" fill="#2A9348"/>
<path d="M156.142 184.994C156.068 183.983 156.069 182.968 156.144 181.958C156.15 180.943 156.225 179.929 156.37 178.925C156.449 180.951 156.372 182.98 156.142 184.994Z" fill="#2A9348"/>
<path d="M116.704 58.3953C114.632 60.8717 111.872 62.6782 108.773 63.5866C105.675 64.4949 102.377 64.4643 99.2954 63.4986C96.2142 62.5329 93.4885 60.6755 91.4627 58.161C89.437 55.6466 88.2021 52.5881 87.9141 49.372C87.6262 46.1559 88.2981 42.9266 89.845 40.0923C91.3919 37.258 93.7444 34.946 96.605 33.4483C99.4656 31.9506 102.706 31.3346 105.917 31.6781C109.127 32.0216 112.164 33.3091 114.643 35.3781C116.29 36.7539 117.65 38.4407 118.645 40.3421C119.64 42.2436 120.25 44.3224 120.441 46.4598C120.633 48.5973 120.401 50.7515 119.76 52.7994C119.119 54.8473 118.08 56.7488 116.704 58.3953Z" fill="#5CCD6A"/>
<path d="M113.473 42.5569C113.683 42.7881 109.643 46.9114 104.443 51.7697C103.68 52.4706 102.956 53.1463 102.239 53.808L101.849 54.1673L101.458 53.771C97.5711 49.6365 94.811 46.4432 95.0007 46.2654C95.1903 46.0876 98.264 48.9717 102.234 53.0245L101.478 53.0081C102.181 52.3397 102.909 51.6569 103.657 50.9492C108.879 46.1011 113.267 42.3362 113.473 42.5569Z" fill="white"/>
</g>
<path d="M0.999986 210.315C13.0398 221.653 80.7098 241.285 88.7429 248.484C101.13 259.585 114.137 267.579 131.118 272.968C161.531 282.62 200.883 267.44 219.436 252.533C232.089 241.1 234.963 230.839 234.963 220.577C234.963 207.236 219.436 198 207.863 198C196.29 198 185.57 198 175.425 210.315C158.672 230.652 178.659 256.466 202.957 261.011C234.562 266.921 253.785 273.938 283.414 264.02C310.065 255.098 328.901 247.459 353.494 240.115C371.124 234.851 397.036 241.448 409.393 244.974C451.963 257.123 483.281 241.559 528 273.562" stroke="#5CCD6A" stroke-linecap="round" stroke-dasharray="8 8"/>
<defs>
<clipPath id="clip0_1538_38">
<rect width="238.088" height="219.404" fill="white" transform="translate(109.094) rotate(25.6848)"/>
</clipPath>
</defs>
</svg>
