<svg width="638" height="335" viewBox="0 0 638 335" fill="none" xmlns="http://www.w3.org/2000/svg">
<g opacity="0.5" clip-path="url(#clip0_1538_39)">
<path d="M352.133 68.2202C353.014 67.5294 353.984 66.9611 355.018 66.5309L355.28 63.4563L360.363 62.7555L361.457 65.6525C362.567 65.7906 363.655 66.0739 364.691 66.4953L367.063 64.5034L371.15 67.5965L369.873 70.4124C370.559 71.2943 371.126 72.263 371.558 73.2933L374.637 73.5601L375.337 78.6364L372.436 79.7238C372.301 80.8355 372.017 81.924 371.592 82.96L373.585 85.3225L370.507 89.4272L367.66 88.1191C366.78 88.8099 365.809 89.3782 364.776 89.8084L364.508 92.8836L359.431 93.5839L358.337 90.6868C357.226 90.5508 356.138 90.2674 355.103 89.844L352.768 91.8445L348.681 88.7513L349.958 85.9354C349.27 85.0539 348.701 84.0854 348.267 83.0551L345.153 82.804L344.464 77.7144L347.365 76.627C347.5 75.5153 347.784 74.4268 348.209 73.3908L346.21 71.0289L349.308 66.9405L352.133 68.2202ZM355.662 74.6674C355.006 75.5334 354.622 76.5743 354.558 77.6584C354.493 78.7425 354.753 79.8211 355.302 80.7579C355.852 81.6947 356.668 82.4476 357.646 82.9214C358.624 83.3952 359.721 83.5685 360.799 83.4196C361.876 83.2707 362.884 82.8061 363.697 82.0846C364.51 81.3632 365.091 80.4172 365.365 79.3664C365.64 78.3156 365.597 77.2071 365.241 76.1811C364.885 75.1552 364.232 74.2577 363.365 73.6024C362.202 72.725 360.738 72.3444 359.294 72.5441C357.85 72.7438 356.544 73.5074 355.662 74.6674Z" fill="#B4FFCD"/>
<path d="M596.72 152.751C597.602 152.065 598.573 151.499 599.605 151.068L599.867 147.993L604.95 147.292L606.044 150.189C607.155 150.325 608.242 150.608 609.278 151.032L611.649 149.034L615.736 152.127L614.454 154.95C615.145 155.829 615.714 156.798 616.145 157.83L619.224 158.097L619.924 163.167L617.023 164.261C616.885 165.37 616.601 166.456 616.178 167.491L618.172 169.859L615.074 173.942L612.274 172.684C611.391 173.371 610.422 173.939 609.39 174.373L609.122 177.448L604.039 178.149L602.951 175.251C601.84 175.118 600.752 174.835 599.717 174.409L597.345 176.407L593.252 173.314L594.535 170.492C593.843 169.612 593.274 168.643 592.844 167.611L589.765 167.344L589.059 162.275L591.96 161.181C592.097 160.072 592.381 158.986 592.805 157.951L590.811 155.583L593.909 151.5L596.728 152.775L596.72 152.751ZM600.249 159.198C599.591 160.065 599.204 161.106 599.139 162.192C599.074 163.277 599.332 164.357 599.882 165.296C600.431 166.234 601.247 166.989 602.226 167.464C603.205 167.94 604.304 168.114 605.382 167.966C606.461 167.818 607.471 167.353 608.286 166.631C609.1 165.91 609.682 164.963 609.958 163.911C610.233 162.859 610.191 161.749 609.835 160.722C609.479 159.694 608.826 158.795 607.958 158.139C606.795 157.259 605.33 156.876 603.884 157.075C602.438 157.273 601.131 158.037 600.249 159.198Z" fill="#B4FFCD"/>
<path d="M356.187 40.3006C356.6 39.9729 357.056 39.7039 357.542 39.5012L357.662 38.0626L360.023 37.7423L360.536 39.0876C361.05 39.1494 361.554 39.2798 362.033 39.4751L363.162 38.5458L365.063 39.9846L364.445 41.3143C364.766 41.7246 365.03 42.1761 365.231 42.6567L366.666 42.7761L366.992 45.1338L365.645 45.6458C365.58 46.1617 365.447 46.6668 365.251 47.1483L366.181 48.2752L364.737 50.1444L363.456 49.5462C363.034 49.8734 362.567 50.1394 362.07 50.3365L361.944 51.7697L359.602 52.1003L359.095 50.7544C358.579 50.6906 358.073 50.5585 357.591 50.3614L356.463 51.2907L354.568 49.8574L355.175 48.5349C354.855 48.1258 354.591 47.6765 354.389 47.1986L352.954 47.0731L352.628 44.7154L353.981 44.2088C354.043 43.6932 354.174 43.1881 354.369 42.7069L353.448 41.6096L354.907 39.7085L356.187 40.3006ZM357.829 43.3017C357.528 43.7056 357.354 44.1893 357.327 44.6919C357.301 45.1946 357.423 45.6938 357.68 46.1269C357.937 46.5601 358.316 46.9078 358.77 47.1264C359.224 47.345 359.732 47.4248 360.231 47.3558C360.731 47.2867 361.198 47.0719 361.576 46.7383C361.953 46.4047 362.224 45.9672 362.353 45.4807C362.482 44.9942 362.465 44.4804 362.303 44.0038C362.141 43.5272 361.842 43.1091 361.442 42.8019C361.174 42.5968 360.867 42.447 360.54 42.361C360.213 42.275 359.873 42.2546 359.538 42.3009C359.203 42.3473 358.88 42.4595 358.589 42.6311C358.298 42.8026 358.044 43.0301 357.841 43.3005L357.829 43.3017Z" fill="#B4FFCD"/>
<path d="M392.863 251.417L386.814 254.617C386.814 254.617 389.504 259.69 384.272 262.576C383.278 263.154 382.129 263.408 380.984 263.303C379.839 263.199 378.755 262.74 377.883 261.992C377.142 261.371 376.56 260.583 376.183 259.693C375.805 258.803 375.645 257.837 375.713 256.873C375.845 254.641 377.277 251.913 381.737 250.47L374.519 236.829L368.539 239.997L372.758 247.973C372.758 247.973 365.516 254.583 370.421 263.814C375.109 272.646 384.126 270.493 387.525 268.697C390.119 267.342 398.63 262.007 392.863 251.417Z" fill="#EBEBEB"/>
<path d="M366.976 237.219L373.047 234.004L370.042 228.344L363.972 231.559L366.976 237.219Z" fill="#EBEBEB"/>
<path d="M597.468 71.231L603.542 73.0656C603.542 73.0656 605.111 67.9708 610.44 69.5015C611.473 69.7793 612.393 70.3712 613.073 71.195C613.754 72.0188 614.16 73.0337 614.237 74.099C614.311 74.9951 614.172 75.8961 613.83 76.7282C613.488 77.5602 612.954 78.2996 612.271 78.8857C610.717 80.2598 607.984 81.1414 604.11 79.1428L599.897 92.8293L605.911 94.6698L608.373 86.651C608.373 86.651 617.474 87.0626 620.312 77.7809C623.043 68.9061 615.708 64.4045 612.293 63.3358C609.727 62.579 600.642 60.4831 597.468 71.231Z" fill="#EBEBEB"/>
<path d="M605.131 97.5504L599.033 95.6813L597.283 101.371L603.381 103.24L605.131 97.5504Z" fill="#EBEBEB"/>
<path d="M578.958 11.5952L573.842 32.3406C573.64 33.1601 573.745 34.0253 574.137 34.7727C574.53 35.52 575.183 36.0977 575.974 36.3965C576.803 36.7135 577.724 36.6992 578.543 36.3565C579.363 36.0138 580.019 35.3692 580.376 34.5563L589.072 14.8265C589.227 14.4745 589.305 14.0935 589.301 13.7091C589.298 13.3246 589.212 12.9453 589.05 12.5964C588.889 12.2476 588.654 11.937 588.363 11.6854C588.072 11.4338 587.731 11.247 587.362 11.1372L582.372 9.64593C582.02 9.54084 581.65 9.50831 581.285 9.55029C580.919 9.59227 580.566 9.70791 580.247 9.89018C579.928 10.0724 579.649 10.3176 579.428 10.6107C579.206 10.9037 579.046 11.2387 578.958 11.5952Z" fill="#E0E0E0"/>
<path d="M577.769 49.534C577.166 50.369 576.328 51.0066 575.362 51.3662C574.396 51.7258 573.345 51.7912 572.341 51.5541C571.338 51.3171 570.428 50.7882 569.726 50.0344C569.024 49.2806 568.561 48.3357 568.397 47.3193C568.233 46.3028 568.374 45.2605 568.803 44.324C569.232 43.3876 569.929 42.5991 570.806 42.0584C571.684 41.5176 572.702 41.2488 573.732 41.2859C574.763 41.3231 575.759 41.6646 576.594 42.2672C577.15 42.6667 577.621 43.1717 577.981 43.7534C578.341 44.335 578.582 44.9819 578.691 45.6568C578.8 46.3318 578.775 47.0217 578.617 47.687C578.459 48.3523 578.171 48.9799 577.769 49.534Z" fill="#E0E0E0"/>
<path d="M589.641 107.678C593.337 99.6927 594.066 90.6542 591.695 82.1827C591.607 81.844 591.5 81.5131 591.382 81.1835C590.483 78.2793 589.741 75.9203 588.053 73.5519C587.876 73.2463 587.702 72.977 587.512 72.6545C587.321 72.3321 587.137 72.0821 586.942 71.7783C583.357 66.598 578.51 62.4153 572.857 59.6249C567.205 56.8344 560.933 55.5282 554.634 55.8293C550.504 35.9184 534.594 18.9172 515.007 13.4335C495.419 7.94987 472.969 14.3172 459.123 29.2244C441.863 18.8509 419.37 17.7231 401.198 26.3476C383.026 34.9721 369.671 53.0984 366.829 73.0139C365.964 79.1057 365.986 85.4628 363.48 91.0776C361.582 95.321 358.382 98.8159 355.734 102.628C351.483 108.735 348.621 115.696 347.348 123.023C346.075 130.35 346.421 137.866 348.363 145.045C350.304 152.223 353.794 158.891 358.587 164.58C363.381 170.269 369.362 174.842 376.112 177.979C367.347 192.911 373.089 214.479 388.121 223.086C396.751 228.026 407.718 229.16 414.632 236.301C417.572 239.344 419.483 243.214 422.103 246.533C431.012 257.841 448.626 261.045 460.967 253.641L528.015 229.356C551.589 228.787 574.026 219.113 590.612 202.368C596.658 196.187 601.921 188.957 603.965 180.54C606.01 172.124 604.371 162.526 598.23 156.46C609.882 141.826 605.557 117.441 589.641 107.678Z" fill="#E9E9E9"/>
<path d="M394.924 202.372C394.699 201.229 394.628 200.06 394.713 198.897L391.973 197.186L393.706 192.131L396.915 192.48C397.567 191.509 398.345 190.629 399.228 189.863L398.49 186.725L403.301 184.377L405.321 186.891C406.466 186.667 407.635 186.596 408.799 186.679L410.511 183.935L415.559 185.666L415.175 188.878C416.143 189.529 417.02 190.306 417.782 191.189L420.923 190.45L423.264 195.263L420.745 197.285C420.98 198.418 421.066 199.577 421 200.732L423.74 202.443L422.001 207.496L418.792 207.147C418.144 208.118 417.366 208.997 416.481 209.758L417.217 212.902L412.406 215.249L410.383 212.727C409.239 212.955 408.071 213.029 406.908 212.947L405.197 215.692L400.15 213.955L400.496 210.741C399.527 210.091 398.651 209.314 397.889 208.43L394.753 209.172L392.413 204.358L394.928 202.328L394.924 202.372ZM402.585 202.124C403.082 203.142 403.87 203.991 404.849 204.561C405.828 205.131 406.954 205.397 408.085 205.327C409.216 205.256 410.301 204.851 411.202 204.164C412.104 203.476 412.782 202.537 413.15 201.464C413.519 200.391 413.561 199.233 413.272 198.137C412.983 197.041 412.376 196.055 411.527 195.305C410.678 194.554 409.626 194.073 408.503 193.921C407.381 193.77 406.238 193.955 405.22 194.453C404.543 194.784 403.938 195.244 403.44 195.809C402.941 196.373 402.558 197.031 402.314 197.743C402.069 198.456 401.967 199.209 402.014 199.961C402.06 200.713 402.255 201.448 402.585 202.124Z" fill="white"/>
<path d="M517.019 61.3946C517.517 61.0081 518.064 60.6892 518.646 60.4462L518.791 58.7063L521.657 58.3113L522.272 59.9452C522.896 60.0192 523.508 60.1779 524.089 60.4168L525.424 59.2962L527.728 61.0364L527.007 62.6203C527.395 63.1173 527.717 63.6635 527.962 64.2446L529.699 64.395L530.093 67.2519L528.463 67.8653C528.383 68.4907 528.222 69.1031 527.985 69.6871L529.106 71.0206L527.363 73.3219L525.778 72.6016C525.279 72.9881 524.732 73.307 524.15 73.5501L524 75.2905L521.139 75.6849L520.525 74.051C519.899 73.9762 519.285 73.8178 518.701 73.58L517.366 74.7006L515.062 72.9604L515.783 71.3705C515.384 70.8784 515.053 70.3352 514.798 69.7552L513.056 69.6054L512.667 66.7479L514.303 66.1279C514.378 65.5034 514.539 64.8923 514.782 64.3121L513.667 62.9902L515.41 60.6888L517.019 61.3946ZM519.004 65.0261C518.635 65.5143 518.419 66.101 518.383 66.7118C518.347 67.3227 518.494 67.9304 518.804 68.458C519.114 68.9856 519.574 69.4095 520.125 69.6761C520.677 69.9428 521.295 70.0401 521.902 69.9559C522.509 69.8716 523.077 69.6096 523.535 69.2029C523.993 68.7962 524.32 68.2631 524.474 67.6709C524.629 67.0788 524.604 66.4542 524.403 65.8762C524.202 65.2982 523.835 64.7926 523.346 64.4234C523.021 64.1754 522.65 63.9942 522.254 63.8903C521.858 63.7864 521.445 63.7618 521.04 63.818C520.635 63.8742 520.244 64.0101 519.892 64.2177C519.539 64.4254 519.231 64.7007 518.986 65.0279L519.004 65.0261Z" fill="#78C081"/>
<path d="M434.722 230.173C434.555 229.37 434.496 228.548 434.549 227.729L432.632 226.545L433.844 223.007L436.095 223.226C436.551 222.55 437.094 221.936 437.711 221.402L437.195 219.203L440.549 217.563L441.958 219.319C442.758 219.161 443.576 219.111 444.389 219.171L445.576 217.246L449.106 218.462L448.885 220.715C449.562 221.168 450.176 221.709 450.709 222.325L452.9 221.805L454.542 225.163L452.784 226.58C452.934 227.388 452.976 228.213 452.909 229.032L454.823 230.222L453.614 233.753L451.363 233.534C450.909 234.211 450.368 234.825 449.753 235.361L450.272 237.535L446.912 239.173L445.503 237.417C444.715 237.57 443.91 237.616 443.109 237.553L441.922 239.478L438.392 238.262L438.613 236.009C437.935 235.557 437.322 235.015 436.789 234.399L434.611 234.918L432.969 231.56L434.733 230.145L434.722 230.173ZM440.071 230.001C440.419 230.713 440.97 231.305 441.654 231.703C442.339 232.102 443.126 232.287 443.917 232.238C444.707 232.188 445.465 231.905 446.095 231.424C446.725 230.943 447.199 230.286 447.456 229.536C447.714 228.786 447.743 227.976 447.541 227.21C447.339 226.444 446.914 225.755 446.321 225.23C445.727 224.706 444.992 224.369 444.207 224.264C443.422 224.158 442.623 224.287 441.911 224.636C440.958 225.104 440.228 225.933 439.883 226.938C439.538 227.944 439.606 229.046 440.071 230.001Z" fill="#78C081"/>
<path d="M535.72 194.039C536.364 193.538 537.072 193.125 537.826 192.812L538.017 190.561L541.721 190.052L542.542 192.159C543.351 192.258 544.144 192.464 544.898 192.773L546.628 191.32L549.605 193.572L548.674 195.628C549.159 196.274 549.558 196.981 549.86 197.73L552.108 197.927L552.622 201.619L550.512 202.439C550.412 203.247 550.205 204.039 549.897 204.793L551.351 206.52L549.095 209.494L547.037 208.565C546.396 209.047 545.695 209.443 544.95 209.742L544.759 211.992L541.055 212.501L540.235 210.394C539.425 210.296 538.633 210.09 537.878 209.781L536.155 211.233L533.171 208.981L534.108 206.924C533.605 206.284 533.189 205.579 532.874 204.828L530.626 204.637L530.112 200.938L532.228 200.118C532.325 199.309 532.532 198.518 532.843 197.764L531.389 196.037L533.645 193.063L535.697 193.993L535.72 194.039ZM538.293 198.734C537.814 199.365 537.534 200.124 537.486 200.915C537.439 201.705 537.628 202.492 538.028 203.175C538.428 203.859 539.023 204.408 539.736 204.754C540.449 205.1 541.249 205.227 542.034 205.119C542.82 205.011 543.556 204.673 544.149 204.147C544.742 203.622 545.166 202.932 545.367 202.166C545.568 201.4 545.537 200.592 545.278 199.844C545.019 199.095 544.544 198.44 543.913 197.962C543.493 197.644 543.015 197.412 542.505 197.278C541.996 197.145 541.465 197.113 540.943 197.185C540.421 197.257 539.919 197.431 539.464 197.696C539.009 197.962 538.611 198.315 538.293 198.734Z" fill="white"/>
<path d="M400.1 130.681C399.562 129.639 398.796 128.73 397.859 128.022C396.922 127.315 395.839 126.826 394.687 126.592C392.71 126.234 390.465 126.677 388.834 125.504C388.061 124.971 387.546 124.095 386.847 123.446C385.519 122.345 383.84 121.755 382.115 121.782C376.393 121.583 371.596 125.957 369.99 130.677C367.832 132.434 365.636 134.226 364.108 136.548C362.581 138.871 361.791 141.846 362.699 144.469C363.373 146.395 364.876 147.947 365.562 149.866C366.183 151.634 366.074 153.547 366.403 155.38C366.732 157.213 367.72 159.163 369.516 159.667C371.726 160.283 374.212 158.456 376.299 159.425C377.714 160.083 378.315 161.773 379.519 162.763C381.602 164.489 384.745 163.682 387.208 162.547C390.057 161.237 392.748 159.609 395.23 157.694C396.898 156.495 398.333 155.001 399.462 153.286C400.019 152.426 400.4 151.464 400.58 150.455C400.761 149.447 400.738 148.413 400.514 147.413C400.188 146.226 399.479 145.114 399.283 143.878C398.926 141.706 400.179 139.636 400.75 137.513C401.392 135.234 401.161 132.798 400.1 130.681Z" fill="white"/>
<path d="M398.239 154.804L393.097 159.15L393.092 159.157L398.937 160.594L398.239 154.804Z" fill="#F5F5F5"/>
<path d="M378.887 142.913C378.932 143.362 378.842 143.814 378.63 144.212C378.417 144.61 378.091 144.937 377.693 145.15C377.294 145.363 376.842 145.453 376.392 145.41C375.943 145.366 375.516 145.19 375.167 144.904C374.817 144.618 374.56 144.235 374.429 143.804C374.297 143.372 374.297 142.911 374.428 142.479C374.558 142.047 374.815 141.664 375.163 141.377C375.512 141.091 375.939 140.914 376.388 140.869C376.991 140.809 377.593 140.991 378.062 141.374C378.53 141.757 378.827 142.311 378.887 142.913Z" fill="#495E4C"/>
<path d="M385.954 142.21C386 142.66 385.911 143.114 385.699 143.514C385.487 143.914 385.16 144.242 384.761 144.457C384.362 144.671 383.908 144.763 383.457 144.72C383.006 144.677 382.578 144.501 382.227 144.214C381.876 143.928 381.618 143.544 381.485 143.111C381.353 142.678 381.352 142.216 381.483 141.783C381.614 141.349 381.871 140.964 382.221 140.677C382.571 140.389 382.998 140.211 383.449 140.167C384.053 140.107 384.655 140.288 385.125 140.671C385.594 141.054 385.893 141.607 385.954 142.21Z" fill="#495E4C"/>
<path d="M393.015 141.507C393.06 141.956 392.97 142.408 392.757 142.807C392.545 143.205 392.219 143.531 391.82 143.744C391.422 143.957 390.97 144.048 390.52 144.004C390.07 143.96 389.644 143.784 389.294 143.499C388.945 143.213 388.688 142.83 388.557 142.398C388.425 141.967 388.425 141.506 388.555 141.074C388.686 140.642 388.942 140.258 389.291 139.972C389.64 139.685 390.067 139.508 390.516 139.463C391.119 139.403 391.721 139.585 392.189 139.968C392.658 140.352 392.955 140.905 393.015 141.507Z" fill="#495E4C"/>
<path d="M569.333 75.1338C568.737 74.3578 567.623 74.2675 566.641 74.2798C563.092 74.3113 559.56 74.7876 556.129 75.6975C554.939 76.011 553.151 76.0792 552.906 74.8475C552.887 74.4782 552.985 74.1123 553.187 73.802C553.388 73.4918 553.683 73.2531 554.029 73.1201C555.192 72.541 556.526 72.6278 557.798 72.4707C559.071 72.3136 560.473 71.7473 560.871 70.5309C561.475 68.6844 559.266 67.0324 557.323 66.9634C555.381 66.8945 553.419 67.6019 551.518 67.2118L547.494 67.6975C544.518 68.0442 541.599 68.769 538.807 69.8543C538.025 70.1577 537.119 70.6808 537.141 71.5139C537.163 72.347 538.057 72.8068 538.515 73.4867C539.439 74.8581 538.351 76.8017 536.866 77.5226C535.381 78.2434 533.647 78.1903 532.021 78.474C530.395 78.7577 528.638 79.6337 528.249 81.2394C527.94 82.4896 528.593 83.8452 528.342 85.1201C528.021 86.7434 526.363 87.7558 524.771 88.1947C523.178 88.6336 521.458 88.7682 520.027 89.6056C518.98 90.2149 518.171 91.1605 517.731 92.2881C517.292 93.4157 517.247 94.6588 517.606 95.8144C517.965 96.9701 518.705 97.9701 519.706 98.6514C520.707 99.3327 521.91 99.655 523.118 99.5657C524.279 99.4502 525.39 99.0165 526.538 98.8413C527.382 98.6927 528.251 98.8201 529.016 99.2044C529.203 100.434 529.76 101.577 530.614 102.482C531.467 103.387 532.577 104.012 533.794 104.271C535.439 104.541 537.129 104.098 538.783 104.281C540.437 104.464 542.249 105.674 542.102 107.329C541.994 108.516 540.924 109.482 540.951 110.669C540.98 112.123 542.65 113.018 544.108 113.007C545.566 112.996 546.96 112.406 548.413 112.347C549.867 112.288 551.572 113.045 551.752 114.484C551.948 116.092 550.163 117.416 550.293 119.025C550.396 120.375 551.783 121.243 553.089 121.6C554.394 121.958 555.834 122.071 556.916 122.884C557.998 123.697 558.355 125.631 557.176 126.297C559.165 126.032 560.044 123.024 558.553 121.728C557.606 120.925 556.144 120.827 555.381 119.848C554.528 118.762 555.009 117.093 555.988 116.13C556.966 115.166 558.281 114.639 559.495 113.951C560.709 113.264 561.859 112.247 562.053 110.88C562.338 108.834 560.233 107.129 558.175 106.882C556.118 106.636 554.082 107.35 552.039 107.675C549.996 108.001 547.615 107.817 546.285 106.23L552.689 102.367C553.002 102.231 553.284 102.033 553.518 101.785C553.752 101.538 553.935 101.246 554.054 100.927C554.314 99.7362 552.902 98.9255 551.746 98.5344L547.172 96.9836C547.129 96.7179 547.043 96.4609 546.919 96.2222C549.471 94.8708 552.517 94.9885 555.403 95.0916C558.288 95.1947 561.359 95.1941 563.806 93.6459C566.253 92.0977 567.562 88.4433 565.666 86.2601C564.652 85.0867 562.842 84.3888 562.646 82.8414C562.518 81.5614 563.631 80.4752 564.799 79.9443C565.968 79.4135 567.301 79.1955 568.364 78.4678C569.428 77.7401 570.116 76.129 569.333 75.1338Z" fill="white"/>
<path d="M538.353 87.8068C539.555 87.6872 540.432 86.6172 540.313 85.4168C540.193 84.2165 539.122 83.3403 537.92 83.4599C536.718 83.5795 535.841 84.6495 535.96 85.8499C536.08 87.0502 537.151 87.9264 538.353 87.8068Z" fill="#495E4C"/>
<path d="M547.065 84.7449C547.108 85.1748 547.022 85.6077 546.819 85.9889C546.615 86.3701 546.303 86.6825 545.922 86.8866C545.54 87.0907 545.107 87.1773 544.676 87.1354C544.246 87.0935 543.838 86.9251 543.503 86.6514C543.168 86.3777 542.923 86.0111 542.797 85.5978C542.671 85.1846 542.67 84.7433 542.796 84.3297C542.921 83.9162 543.166 83.549 543.5 83.2746C543.834 83.0002 544.242 82.8308 544.673 82.788C545.25 82.7306 545.826 82.9045 546.275 83.2715C546.724 83.6385 547.008 84.1685 547.065 84.7449Z" fill="#495E4C"/>
<path d="M551.864 86.4625C553.066 86.343 553.943 85.2729 553.824 84.0726C553.705 82.8722 552.633 81.9961 551.431 82.1156C550.229 82.2352 549.352 83.3052 549.471 84.5056C549.591 85.706 550.662 86.5821 551.864 86.4625Z" fill="#495E4C"/>
<path d="M394.331 49.3768C391.896 49.6082 389.582 50.5505 387.679 52.0862C385.776 53.6219 384.367 55.683 383.629 58.0126C382.891 60.3422 382.856 62.8371 383.528 65.1862C384.2 67.5354 385.549 69.6348 387.408 71.2226C381.586 73.0823 378.494 80.4199 380.642 86.1204C382.791 91.8209 389.482 95.1975 395.486 94.1795C401.49 93.1615 406.491 88.2069 408.158 82.3159C409.219 84.5893 410.945 86.4885 413.108 87.7636C415.271 89.0388 417.769 89.6302 420.275 89.46C422.782 89.2899 425.178 88.3661 427.148 86.8103C429.119 85.2545 430.573 83.1395 431.317 80.7435C434.491 85.4579 442.202 85.526 446.216 81.5049C450.23 77.4839 450.563 70.7073 447.951 65.681C445.338 60.6547 440.289 57.2183 434.932 55.3489C437.91 52.0773 437.784 46.639 435.079 43.1401C432.375 39.6411 427.587 38.0932 423.191 38.7623C418.794 39.4313 414.893 42.0693 412.095 45.4877C411.211 43.6639 409.742 42.1872 407.922 41.2918C406.101 40.3964 404.034 40.1335 402.047 40.5447C400.06 40.9559 398.267 42.0178 396.952 43.562C395.637 45.1061 394.876 47.0442 394.789 49.0691" fill="white"/>
<path d="M402.121 59.4913L408.797 68.9178C409.06 69.2907 409.451 69.5542 409.896 69.6583C410.341 69.7624 410.808 69.6999 411.21 69.4826C411.633 69.2559 411.952 68.8756 412.102 68.4204C412.253 67.9652 412.222 67.4698 412.017 67.0366L407.027 56.5277C406.938 56.3399 406.809 56.1733 406.65 56.0387C406.491 55.9041 406.306 55.8047 406.106 55.7468C405.906 55.689 405.696 55.6741 405.489 55.7031C405.283 55.7322 405.085 55.8045 404.909 55.9153L402.538 57.4255C402.372 57.5312 402.228 57.6694 402.117 57.8316C402.006 57.9939 401.928 58.177 401.889 58.3698C401.85 58.5627 401.851 58.7615 401.89 58.9542C401.93 59.1468 402.008 59.3295 402.121 59.4913Z" fill="#495E4C"/>
<path d="M417.217 73.4029C417.343 73.945 417.306 74.5123 417.109 75.0332C416.913 75.5541 416.566 76.0052 416.113 76.3296C415.66 76.6539 415.121 76.8369 414.564 76.8555C414.008 76.874 413.458 76.7273 412.984 76.4338C412.511 76.1403 412.135 75.7132 411.905 75.2065C411.674 74.6998 411.599 74.1362 411.69 73.5869C411.78 73.0377 412.031 72.5274 412.411 72.1206C412.792 71.7138 413.284 71.4287 413.827 71.3013C414.188 71.2166 414.562 71.2038 414.927 71.2636C415.293 71.3234 415.644 71.4547 415.958 71.6499C416.273 71.8451 416.546 72.1004 416.762 72.4012C416.978 72.702 417.133 73.0424 417.217 73.4029Z" fill="#495E4C"/>
<path d="M419.9 51.7167L421.075 61.6175C421.121 62.0081 421.308 62.3683 421.602 62.6301C421.896 62.8919 422.275 63.037 422.669 63.038C423.083 63.0409 423.482 62.8845 423.783 62.6014C424.085 62.3182 424.266 61.93 424.288 61.5173L424.852 51.4741C424.862 51.2947 424.834 51.1153 424.769 50.9477C424.704 50.7801 424.604 50.6281 424.476 50.5019C424.348 50.3757 424.195 50.2782 424.026 50.2156C423.858 50.1531 423.678 50.1271 423.498 50.1394L421.073 50.3075C420.902 50.3195 420.735 50.366 420.583 50.4442C420.43 50.5223 420.295 50.6305 420.185 50.7622C420.076 50.8938 419.994 51.0463 419.945 51.2104C419.896 51.3744 419.881 51.5466 419.9 51.7167Z" fill="#E0E0E0"/>
<path d="M425.61 68.4829C425.483 68.9456 425.222 69.3605 424.859 69.6751C424.496 69.9897 424.048 70.1899 423.572 70.2503C423.095 70.3107 422.611 70.2287 422.181 70.0146C421.752 69.8005 421.395 69.464 421.157 69.0475C420.918 68.631 420.809 68.1533 420.842 67.6746C420.876 67.196 421.05 66.738 421.344 66.3584C421.638 65.9788 422.038 65.6947 422.493 65.542C422.949 65.3893 423.439 65.3748 423.903 65.5005C424.211 65.584 424.5 65.7275 424.753 65.9227C425.006 66.1178 425.217 66.3609 425.376 66.6379C425.535 66.9149 425.637 67.2205 425.677 67.5371C425.717 67.8536 425.694 68.175 425.61 68.4829Z" fill="#E0E0E0"/>
<path d="M549.949 147.147L546.246 162.149C546.102 162.743 546.179 163.37 546.463 163.911C546.747 164.453 547.219 164.873 547.791 165.092C548.392 165.32 549.058 165.309 549.652 165.06C550.245 164.812 550.72 164.345 550.979 163.757L557.275 149.473C557.387 149.218 557.444 148.942 557.442 148.663C557.439 148.384 557.378 148.109 557.261 147.856C557.144 147.603 556.974 147.378 556.763 147.196C556.553 147.013 556.305 146.877 556.038 146.797L552.426 145.718C552.17 145.642 551.9 145.62 551.635 145.652C551.369 145.683 551.113 145.769 550.881 145.902C550.649 146.036 550.447 146.215 550.287 146.429C550.127 146.643 550.012 146.887 549.949 147.147Z" fill="white"/>
<path d="M549.092 174.609C548.655 175.213 548.048 175.675 547.349 175.935C546.649 176.195 545.888 176.242 545.162 176.071C544.436 175.899 543.777 175.516 543.269 174.97C542.761 174.424 542.426 173.739 542.308 173.004C542.189 172.268 542.292 171.513 542.603 170.835C542.914 170.158 543.419 169.587 544.055 169.196C544.691 168.805 545.428 168.611 546.174 168.639C546.92 168.667 547.64 168.915 548.245 169.352C548.647 169.641 548.987 170.007 549.247 170.428C549.507 170.848 549.681 171.316 549.76 171.805C549.838 172.293 549.82 172.792 549.705 173.273C549.591 173.754 549.382 174.208 549.092 174.609Z" fill="white"/>
<path d="M456.185 49.0334L461.081 48.5463C461.081 48.5463 460.633 44.0363 464.899 43.5326C465.75 43.4397 466.609 43.6215 467.35 44.0514C468.09 44.4814 468.673 45.1369 469.013 45.9219C469.343 46.6026 469.522 47.3466 469.537 48.1028C469.552 48.859 469.404 49.6095 469.101 50.3031C468.417 51.8894 466.733 53.4349 463.369 53.1293L464.573 65.2343L469.409 64.7531L468.704 57.6592C468.704 57.6592 475.308 55.0633 474.491 46.8525C473.71 39.0039 467.104 37.832 464.353 38.1056C462.259 38.2956 455.149 39.5457 456.185 49.0334Z" fill="white"/>
<path d="M469.73 67.2393L464.809 67.7289L465.31 72.7641L470.231 72.2745L469.73 67.2393Z" fill="white"/>
<path d="M588.694 123.625C588.694 123.625 588.753 123.552 588.881 123.423C589.084 123.233 589.322 123.083 589.582 122.982C590.01 122.821 590.473 122.775 590.924 122.848C591.557 122.925 592.144 123.22 592.582 123.683C593.133 124.273 593.485 125.02 593.588 125.821C593.706 126.783 593.569 127.759 593.193 128.652C592.196 130.844 590.741 132.797 588.927 134.381C587.874 135.342 586.77 136.246 585.619 137.088C584.42 137.982 583.144 138.902 581.754 139.784C580.309 140.712 578.785 141.511 577.199 142.17C576.357 142.524 575.49 142.814 574.605 143.037C573.685 143.272 572.745 143.417 571.797 143.469C570.807 143.605 569.799 143.451 568.896 143.026C568.432 142.775 568.082 142.356 567.918 141.855C567.77 141.347 567.783 140.805 567.953 140.303C568.323 139.314 568.889 138.409 569.618 137.644C570.324 136.832 571.087 136.072 571.901 135.368C573.547 133.936 575.324 132.589 577.15 131.187C579.015 129.731 581.05 128.504 583.21 127.536C584.338 127.047 585.519 126.69 586.73 126.472C587.972 126.226 589.25 126.219 590.495 126.451C591.798 126.661 592.976 127.351 593.795 128.385C594.173 128.942 594.412 129.581 594.491 130.249C594.57 130.917 594.488 131.594 594.25 132.224C593.78 133.504 592.93 134.61 591.812 135.393C590.701 136.196 589.493 136.855 588.216 137.354C585.589 138.348 582.814 138.896 580.007 138.976C577.117 139.058 574.224 138.938 571.351 138.618C569.872 138.495 568.402 138.287 566.948 137.995C566.212 137.84 565.487 137.639 564.776 137.394C564.03 137.181 563.34 136.806 562.756 136.296C562.457 136.02 562.244 135.665 562.141 135.272C562.04 134.865 562.068 134.436 562.221 134.045C562.535 133.313 563.056 132.689 563.721 132.249C565.021 131.369 566.499 130.783 568.049 130.532C571.156 129.949 574.307 129.635 577.468 129.595C579.079 129.581 580.689 129.661 582.29 129.835C583.099 129.919 583.904 130.04 584.708 130.204C585.538 130.304 586.341 130.561 587.073 130.962C587.456 131.177 587.774 131.492 587.993 131.872C588.211 132.253 588.322 132.686 588.314 133.125C588.237 133.552 588.071 133.957 587.827 134.316C587.583 134.674 587.266 134.977 586.897 135.205C585.514 136.171 583.957 136.862 582.313 137.24C581.487 137.428 580.646 137.539 579.8 137.57C578.944 137.62 578.086 137.547 577.251 137.354C576.38 137.17 575.601 136.689 575.046 135.994C574.792 135.62 574.636 135.19 574.591 134.741C574.547 134.291 574.615 133.838 574.79 133.422C575.136 132.599 575.717 131.897 576.46 131.401C577.203 130.905 578.076 130.639 578.969 130.635C579.882 130.615 580.766 130.948 581.437 131.566C582.093 132.207 582.469 133.081 582.485 133.998C582.49 134.46 582.383 134.917 582.171 135.328C581.95 135.733 581.629 136.076 581.239 136.323C580.454 136.801 579.526 136.988 578.617 136.852C578.153 136.818 577.702 136.677 577.301 136.441C576.9 136.205 576.558 135.88 576.302 135.491C576.184 135.275 576.121 135.033 576.122 134.787C576.122 134.541 576.184 134.298 576.303 134.083C576.548 133.664 576.938 133.35 577.399 133.199C578.291 132.991 579.221 133.009 580.103 133.253C580.996 133.403 581.86 133.694 582.661 134.115C583.48 134.554 584.147 135.229 584.576 136.052C584.795 136.469 584.92 136.93 584.941 137.401C584.963 137.872 584.88 138.341 584.7 138.777C584.316 139.622 583.699 140.341 582.922 140.85C582.165 141.384 581.307 141.758 580.4 141.949C578.574 142.343 576.666 142.07 575.025 141.179C573.396 140.267 572.071 138.898 571.214 137.241C570.288 135.604 569.968 133.693 570.311 131.844C570.509 130.906 570.999 130.055 571.711 129.412C572.423 128.8 573.251 128.339 574.146 128.054C575.892 127.483 577.709 127.156 579.544 127.084C581.362 126.929 583.19 126.951 585.003 127.15C586.849 127.351 588.561 128.211 589.823 129.573C590.425 130.279 590.824 131.135 590.979 132.049C591.118 132.956 591.064 133.881 590.821 134.766C590.299 136.502 589.276 138.045 587.881 139.205C587.216 139.794 586.511 140.336 585.771 140.829C585.046 141.333 584.29 141.793 583.509 142.206C581.951 143.077 580.174 143.48 578.393 143.368C574.912 142.915 571.696 141.273 569.291 138.719C568.156 137.412 567.391 135.825 567.076 134.123C566.765 132.445 566.824 130.721 567.251 129.069C567.661 127.435 568.411 125.906 569.454 124.582C570.48 123.271 571.737 122.158 573.163 121.298C574.577 120.459 576.124 119.866 577.738 119.544C579.355 119.233 581.016 119.231 582.634 119.539C584.24 119.81 585.718 120.585 586.853 121.753C587.882 122.977 588.545 124.467 588.764 126.051C589.25 129.112 589.014 132.244 588.074 135.198C587.629 136.643 587.006 138.028 586.22 139.321C585.445 140.606 584.415 141.719 583.193 142.591C581.975 143.438 580.542 143.925 579.059 143.997C577.59 144.026 576.151 143.579 574.958 142.722C573.811 141.894 572.741 140.966 571.758 139.949C570.709 139.02 569.807 137.938 569.082 136.74C568.752 136.127 568.529 135.463 568.423 134.775C568.331 134.089 568.361 133.393 568.511 132.718C568.835 131.409 569.404 130.173 570.188 129.075C571.623 126.878 573.715 125.187 576.166 124.243C577.339 123.799 578.588 123.593 579.842 123.638C581.095 123.683 582.326 123.978 583.464 124.505C585.59 125.617 587.29 127.398 588.302 129.572C589.316 131.582 589.821 133.809 589.772 136.059C589.753 138.21 588.981 140.286 587.59 141.928C586.204 143.387 584.448 144.443 582.509 144.983C580.735 145.552 578.876 145.817 577.013 145.767C575.272 145.709 573.592 145.113 572.204 144.063C570.948 143.094 569.957 141.826 569.322 140.374C568.739 139.057 568.457 137.628 568.496 136.188C568.565 133.775 569.347 131.435 570.746 129.465C571.765 128.028 573.03 126.782 574.482 125.783C575.365 125.165 576.303 124.629 577.283 124.181C577.949 123.877 578.303 123.75 578.303 123.75L578.046 123.867L577.299 124.21C576.327 124.671 575.397 125.215 574.517 125.834C573.082 126.839 571.832 128.086 570.824 129.518C569.446 131.478 568.678 133.801 568.619 136.194C568.586 137.611 568.867 139.018 569.444 140.313C570.078 141.743 571.06 142.991 572.302 143.943C573.668 144.97 575.318 145.549 577.027 145.601C578.864 145.644 580.695 145.377 582.444 144.812C584.346 144.277 586.069 143.24 587.432 141.81C588.787 140.195 589.537 138.158 589.551 136.051C589.602 133.825 589.104 131.622 588.101 129.635C587.101 127.505 585.426 125.764 583.335 124.682C582.231 124.173 581.037 123.889 579.822 123.847C578.606 123.806 577.395 124.008 576.259 124.441C573.857 125.368 571.808 127.029 570.407 129.188C569.639 130.259 569.084 131.467 568.77 132.747C568.628 133.392 568.6 134.057 568.685 134.712C568.791 135.371 569.007 136.007 569.324 136.594C570.018 137.775 570.888 138.844 571.904 139.764C572.877 140.766 573.937 141.68 575.07 142.497C576.219 143.324 577.605 143.757 579.021 143.732C580.457 143.659 581.844 143.185 583.024 142.364C584.213 141.509 585.216 140.422 585.972 139.169C586.747 137.896 587.36 136.533 587.797 135.11C588.72 132.199 588.95 129.113 588.469 126.098C588.258 124.567 587.62 123.126 586.627 121.94C585.535 120.818 584.111 120.075 582.564 119.82C581.003 119.519 579.4 119.517 577.838 119.815C576.257 120.126 574.741 120.706 573.357 121.529C570.506 123.203 568.432 125.934 567.586 129.127C567.174 130.727 567.115 132.397 567.414 134.022C567.711 135.688 568.454 137.243 569.565 138.521C571.914 141.018 575.057 142.623 578.46 143.062C580.182 143.183 581.903 142.8 583.411 141.96C584.18 141.553 584.924 141.1 585.639 140.604C586.366 140.119 587.06 139.586 587.715 139.008C589.065 137.887 590.057 136.396 590.566 134.718C590.795 133.877 590.845 132.998 590.713 132.137C590.571 131.275 590.196 130.469 589.626 129.806C588.415 128.502 586.772 127.679 585 127.492C583.209 127.292 581.403 127.267 579.608 127.419C577.797 127.488 576.004 127.808 574.281 128.369C573.432 128.645 572.646 129.086 571.968 129.667C571.305 130.265 570.848 131.058 570.661 131.931C570.336 133.715 570.647 135.556 571.539 137.136C572.368 138.737 573.648 140.062 575.221 140.946C576.8 141.789 578.629 142.04 580.377 141.652C581.242 141.472 582.06 141.117 582.782 140.608C583.501 140.121 584.069 139.441 584.419 138.647C584.581 138.253 584.656 137.828 584.637 137.402C584.618 136.976 584.505 136.56 584.308 136.182C583.906 135.416 583.285 134.788 582.523 134.378C581.748 133.976 580.915 133.696 580.053 133.551C579.224 133.324 578.353 133.302 577.513 133.487C577.125 133.613 576.796 133.875 576.585 134.225C576.492 134.396 576.444 134.589 576.445 134.784C576.446 134.979 576.497 135.17 576.593 135.34C576.825 135.683 577.132 135.969 577.491 136.176C577.85 136.384 578.252 136.507 578.665 136.536C579.495 136.657 580.34 136.489 581.06 136.06C581.409 135.842 581.694 135.536 581.889 135.174C582.083 134.811 582.179 134.404 582.167 133.993C582.166 133.58 582.081 133.171 581.918 132.791C581.755 132.412 581.516 132.069 581.217 131.784C580.918 131.499 580.564 131.277 580.177 131.132C579.789 130.987 579.377 130.922 578.963 130.94C578.133 130.944 577.321 131.19 576.629 131.649C575.937 132.108 575.394 132.759 575.069 133.522C574.914 133.893 574.854 134.296 574.894 134.695C574.934 135.095 575.072 135.478 575.296 135.811C575.807 136.448 576.524 136.888 577.325 137.054C578.132 137.239 578.961 137.31 579.788 137.266C580.616 137.232 581.439 137.121 582.246 136.936C583.85 136.571 585.369 135.9 586.72 134.961C587.054 134.757 587.342 134.486 587.565 134.165C587.787 133.843 587.94 133.479 588.012 133.094C588.017 132.71 587.918 132.332 587.725 132C587.531 131.668 587.251 131.395 586.914 131.21C586.215 130.829 585.449 130.585 584.657 130.489C583.856 130.35 583.062 130.227 582.258 130.118C580.668 129.944 579.07 129.863 577.471 129.875C574.329 129.901 571.194 130.201 568.104 130.77C566.594 131.003 565.154 131.563 563.883 132.41C563.263 132.818 562.775 133.399 562.48 134.08C562.351 134.41 562.325 134.772 562.407 135.117C562.49 135.462 562.676 135.773 562.941 136.009C563.503 136.489 564.163 136.84 564.875 137.036C565.575 137.28 566.29 137.477 567.015 137.628C568.459 137.919 569.919 138.126 571.387 138.248C574.243 138.599 577.121 138.751 579.998 138.702C582.777 138.629 585.524 138.088 588.123 137.101C589.38 136.618 590.567 135.973 591.657 135.183C592.736 134.432 593.559 133.369 594.015 132.137C594.24 131.545 594.32 130.908 594.248 130.278C594.176 129.649 593.954 129.046 593.601 128.52C592.821 127.531 591.696 126.872 590.45 126.675C589.24 126.446 587.997 126.452 586.789 126.692C585.593 126.906 584.425 127.255 583.309 127.733C581.167 128.694 579.148 129.906 577.294 131.344C575.474 132.744 573.69 134.086 572.05 135.524C571.244 136.221 570.486 136.972 569.783 137.774C569.071 138.522 568.517 139.407 568.156 140.374C567.994 140.838 567.98 141.34 568.115 141.811C568.268 142.269 568.588 142.653 569.01 142.887C569.881 143.296 570.852 143.442 571.805 143.31C572.743 143.26 573.674 143.119 574.584 142.887C575.461 142.664 576.32 142.375 577.154 142.022C578.734 141.369 580.252 140.577 581.692 139.656C583.077 138.786 584.354 137.873 585.56 136.984C586.708 136.145 587.81 135.246 588.863 134.29C590.671 132.726 592.124 130.794 593.122 128.623C593.5 127.744 593.64 126.782 593.529 125.833C593.432 125.047 593.092 124.311 592.556 123.728C592.127 123.273 591.555 122.979 590.935 122.896C590.49 122.826 590.034 122.871 589.611 123.027C589.262 123.151 588.947 123.356 588.694 123.625Z" fill="#F5F5F5"/>
<path d="M514.564 27.1414C514.658 27.026 514.759 26.9162 514.867 26.8124C515.188 26.5037 515.566 26.2592 515.979 26.092C516.666 25.8366 517.408 25.7629 518.131 25.8779C519.141 26.0054 520.075 26.4793 520.774 27.2186C521.654 28.1599 522.215 29.3542 522.377 30.632C522.559 32.169 522.337 33.7269 521.734 35.1529C520.48 38.2531 518.08 41.3759 514.91 44.3069C513.222 45.8469 511.452 47.295 509.609 48.645C507.68 50.0564 505.624 51.5474 503.414 52.9562C501.102 54.4523 498.662 55.7417 496.123 56.8094C494.78 57.3667 493.396 57.8203 491.984 58.1662C490.515 58.5404 489.013 58.7735 487.499 58.8624C485.916 59.0697 484.307 58.8148 482.866 58.1284C482.138 57.7256 481.588 57.0643 481.326 56.2756C481.09 55.4742 481.112 54.6192 481.388 53.8306C481.968 52.2545 482.863 50.8128 484.019 49.5935C485.149 48.2972 486.368 47.0818 487.668 45.9563C488.982 44.8012 490.362 43.7006 491.772 42.5969C493.183 41.4933 494.603 40.3703 496.081 39.266C499.065 36.9368 502.32 34.9752 505.774 33.4239C507.583 32.6519 509.472 32.0836 511.406 31.7296C513.389 31.338 515.429 31.3275 517.416 31.6987C518.427 31.8977 519.402 32.2466 520.309 32.7339C521.238 33.2217 522.041 33.9182 522.655 34.7687C523.252 35.6523 523.629 36.6661 523.753 37.7251C523.878 38.7842 523.746 39.8576 523.37 40.8556C522.618 42.8908 521.264 44.6499 519.488 45.9C517.716 47.1794 515.787 48.2278 513.749 49.0197C509.549 50.6149 505.11 51.4914 500.618 51.6125C495.989 51.7288 491.358 51.5213 486.759 50.9915C484.395 50.7915 482.045 50.4594 479.718 49.9969C478.546 49.7456 477.391 49.4227 476.258 49.0303C475.069 48.6878 473.969 48.0922 473.032 47.2844C472.58 46.8493 472.261 46.2956 472.11 45.6872C471.961 45.0637 472.009 44.4092 472.247 43.8139C472.746 42.6596 473.568 41.6737 474.614 40.9749C476.688 39.5732 479.044 38.6436 481.517 38.2517C486.492 37.3321 491.538 36.8444 496.598 36.794C499.175 36.7736 501.75 36.9042 504.311 37.1851C505.6 37.319 506.892 37.5381 508.175 37.7335C509.502 37.889 510.786 38.2974 511.958 38.9364C512.536 39.2923 513.025 39.7755 513.387 40.349C513.768 40.9311 513.949 41.622 513.9 42.3161C513.828 43.0021 513.56 43.653 513.128 44.1915C512.711 44.7247 512.219 45.1947 511.667 45.5868C509.463 47.1236 506.984 48.223 504.364 48.8254C503.046 49.1261 501.702 49.3047 500.351 49.3587C498.975 49.4431 497.593 49.3259 496.251 49.0107C494.876 48.7254 493.644 47.9676 492.771 46.8692C492.36 46.2885 492.115 45.6067 492.062 44.8972C492.02 44.1923 492.131 43.4866 492.388 42.8284C492.936 41.5296 493.856 40.4206 495.03 39.6392C496.205 38.8578 497.584 38.4385 498.996 38.4334C499.711 38.4041 500.424 38.5191 501.093 38.7715C501.763 39.0238 502.374 39.4084 502.891 39.9023C503.408 40.3961 503.82 40.989 504.102 41.6456C504.385 42.3021 504.532 43.0088 504.534 43.7234C504.556 44.449 504.387 45.1676 504.045 45.8081C503.703 46.4486 503.199 46.9886 502.584 47.3746C501.342 48.1257 499.876 48.4182 498.441 48.2013C497.714 48.1466 497.008 47.9266 496.379 47.558C495.75 47.1895 495.214 46.6822 494.811 46.0749C494.626 45.7432 494.528 45.3698 494.528 44.99C494.527 44.6103 494.624 44.2366 494.808 43.9045C495.184 43.251 495.787 42.7574 496.502 42.5166C497.198 42.2949 497.934 42.2217 498.66 42.3019C499.38 42.3583 500.082 42.4775 500.784 42.6027C502.207 42.8405 503.583 43.3047 504.859 43.9777C506.156 44.6698 507.214 45.7378 507.892 47.0415C508.224 47.7004 508.418 48.4194 508.463 49.1553C508.493 49.8998 508.358 50.6417 508.069 51.3286C507.474 52.6813 506.504 53.8357 505.274 54.6552C504.679 55.0818 504.039 55.4419 503.366 55.7291C502.692 56.0213 501.99 56.2443 501.271 56.3948C498.367 57.0214 495.335 56.5876 492.724 55.1721C490.13 53.7205 488.021 51.5384 486.66 48.8978C485.957 47.5893 485.459 46.1811 485.183 44.7219C484.886 43.2549 484.898 41.7423 485.217 40.2798C485.529 38.7882 486.301 37.4319 487.426 36.4018C488.564 35.4356 489.88 34.7018 491.301 34.2419C494.099 33.3295 497.01 32.8101 499.951 32.6985C502.861 32.5553 505.781 32.3807 508.68 32.8056C511.58 33.2305 514.42 34.4173 516.34 36.6529C517.302 37.7739 517.939 39.1353 518.185 40.5911C518.409 42.0229 518.326 43.4861 517.94 44.8834C517.201 47.7007 515.367 50.072 513.253 51.9529C512.19 52.893 511.065 53.7607 509.885 54.5501C508.724 55.3509 507.517 56.0818 506.269 56.739C505.017 57.3965 503.693 57.9067 502.323 58.2595C500.951 58.5945 499.533 58.7047 498.125 58.5857C495.349 58.2987 492.654 57.4822 490.187 56.1805C487.691 54.9684 485.452 53.2891 483.59 51.2336C481.783 49.1513 480.566 46.6242 480.066 43.914C479.341 39.8871 479.929 35.7337 481.744 32.065C482.019 31.4583 482.391 30.897 482.711 30.3103C483.031 29.7236 483.449 29.1943 483.867 28.6771C485.507 26.5883 487.513 24.8145 489.787 23.4421C492.043 22.097 494.514 21.15 497.091 20.6424C499.644 20.1623 502.265 20.1684 504.816 20.6604C507.374 21.0875 509.728 22.3211 511.534 24.1808C513.168 26.1353 514.22 28.5084 514.572 31.0305C515.343 35.9214 514.965 40.9249 513.468 45.6454C512.757 47.9536 511.761 50.1644 510.502 52.2266C509.268 54.2761 507.627 56.0516 505.679 57.4439C503.733 58.7958 501.445 59.5747 499.078 59.6921C497.908 59.7281 496.741 59.5616 495.628 59.1999C494.537 58.8359 493.502 58.3234 492.552 57.6768C490.718 56.3531 489.004 54.8711 487.429 53.2478C485.784 51.7491 484.376 50.0103 483.253 48.0905C482.732 47.1135 482.377 46.0567 482.203 44.9635C482.06 43.8754 482.109 42.7705 482.348 41.6993C482.861 39.6117 483.767 37.6406 485.018 35.8913C487.31 32.3822 490.649 29.6822 494.562 28.174C496.432 27.4613 498.425 27.1308 500.425 27.2021C502.425 27.2734 504.39 27.745 506.203 28.5889C507.931 29.4461 509.484 30.6168 510.784 32.0415C512.041 33.4302 513.098 34.9873 513.924 36.6677C515.551 39.8928 516.354 43.4702 516.26 47.0809C516.213 48.8066 515.896 50.5145 515.323 52.1433C514.755 53.727 513.894 55.1902 512.785 56.4565C510.59 58.9369 507.599 60.4113 504.68 61.3296C501.842 62.2387 498.871 62.6622 495.891 62.5821C494.481 62.5184 493.088 62.246 491.757 61.7739C490.481 61.3227 489.283 60.6744 488.208 59.8528C486.198 58.3034 484.608 56.275 483.586 53.9533C482.655 51.8524 482.203 49.5713 482.262 47.2745C482.304 45.2259 482.684 43.1982 483.386 41.2728C483.995 39.5791 484.822 37.9718 485.847 36.4917C487.48 34.1961 489.5 32.2022 491.818 30.5993C493.232 29.605 494.734 28.7414 496.305 28.0189C497.361 27.5297 497.927 27.3271 497.927 27.3271L497.524 27.5074C497.248 27.6202 496.845 27.8006 496.32 28.0479C494.757 28.7825 493.263 29.6535 491.854 30.6506C489.551 32.2576 487.545 34.252 485.926 36.5449C484.906 38.014 484.083 39.6108 483.48 41.294C482.787 43.2079 482.414 45.2225 482.376 47.2571C482.323 49.5337 482.775 51.7938 483.7 53.8749C484.717 56.1737 486.296 58.1803 488.292 59.7103C490.486 61.3617 493.137 62.2948 495.884 62.3816C498.843 62.457 501.794 62.0294 504.61 61.1171C507.512 60.2187 510.475 58.7044 512.628 56.2892C513.716 55.0393 514.562 53.599 515.124 52.0412C515.687 50.4279 515.997 48.7373 516.042 47.0295C516.128 43.4541 515.331 39.9127 513.721 36.7184C512.897 35.0607 511.848 33.5238 510.605 32.1507C509.324 30.7489 507.793 29.5967 506.091 28.7525C502.642 27.0348 498.395 26.994 494.629 28.3564C490.765 29.8535 487.47 32.5279 485.212 36.0001C483.979 37.7322 483.087 39.6833 482.585 41.7489C482.35 42.7916 482.304 43.8679 482.45 44.9268C482.616 45.9921 482.962 47.0216 483.473 47.9711C484.598 49.8621 486.003 51.5723 487.641 53.0439C489.201 54.649 490.901 56.1122 492.722 57.4161C494.576 58.7499 496.813 59.4472 499.098 59.4035C501.413 59.2886 503.65 58.5252 505.551 57.2006C507.469 55.8293 509.086 54.0812 510.303 52.0635C511.542 50.0169 512.526 47.8264 513.232 45.5409C514.711 40.8632 515.083 35.9069 514.319 31.0618C513.974 28.5914 512.943 26.267 511.343 24.3522C509.58 22.5413 507.283 21.3407 504.787 20.9254C502.254 20.4453 499.653 20.4497 497.121 20.9382C494.579 21.4386 492.142 22.372 489.916 23.6975C487.676 25.0541 485.699 26.8042 484.081 28.8631C483.668 29.3737 483.321 29.9326 482.941 30.4704C482.561 31.0082 482.259 31.5991 481.989 32.1991C480.217 35.8075 479.645 39.8871 480.358 43.8423C480.848 46.5006 482.041 48.9795 483.813 51.0224C485.647 53.0463 487.85 54.702 490.306 55.9004C492.734 57.2024 495.39 58.0268 498.13 58.3291C499.505 58.4431 500.89 58.3341 502.231 58.0065C503.593 57.6627 504.91 57.1592 506.154 56.5065C507.392 55.8506 508.59 55.1207 509.74 54.3206C510.907 53.5363 512.02 52.676 513.074 51.7452C515.16 49.8914 516.932 47.5689 517.661 44.832C518.035 43.4724 518.118 42.0493 517.904 40.6556C517.672 39.2622 517.063 37.9587 516.144 36.8859C515.209 35.8151 514.06 34.9512 512.771 34.3496C511.476 33.7422 510.095 33.3348 508.677 33.1413C505.8 32.8301 502.899 32.796 500.016 33.0396C497.105 33.148 494.224 33.6625 491.456 34.568C490.073 35.0119 488.791 35.7237 487.684 36.6627C486.611 37.6414 485.87 38.93 485.566 40.3488C485.259 41.7694 485.249 43.2378 485.537 44.6623C485.806 46.0906 486.294 47.4692 486.981 48.75C488.318 51.3262 490.383 53.453 492.92 54.8661C495.452 56.2574 498.401 56.6953 501.229 56.1002C501.928 55.9514 502.61 55.7324 503.265 55.4465C503.921 55.1728 504.544 54.8244 505.121 54.4082C506.302 53.6241 507.232 52.5178 507.802 51.221C508.068 50.5777 508.189 49.884 508.158 49.1887C508.127 48.4934 507.944 47.8134 507.621 47.1966C506.972 45.9504 505.962 44.9289 504.722 44.2656C503.471 43.6143 502.124 43.1659 500.732 42.9372C499.359 42.7018 497.912 42.3946 496.613 42.8348C495.971 43.0448 495.426 43.4802 495.08 44.0604C494.922 44.347 494.839 44.6692 494.839 44.9966C494.84 45.324 494.924 45.6459 495.083 45.9319C495.43 46.5137 495.934 46.9856 496.538 47.2932C497.142 47.6173 497.803 47.8227 498.484 47.8983C499.844 48.1067 501.234 47.8325 502.412 47.1234C502.986 46.7681 503.456 46.2677 503.774 45.6729C504.092 45.078 504.247 44.4099 504.224 43.736C504.221 43.0631 504.081 42.398 503.814 41.7803C503.547 41.1626 503.158 40.6051 502.67 40.1413C502.182 39.6775 501.605 39.3168 500.974 39.0809C500.344 38.845 499.671 38.7387 498.998 38.7685C497.654 38.778 496.341 39.18 495.222 39.9251C494.103 40.6702 493.226 41.7258 492.7 42.9619C492.457 43.5759 492.351 44.2358 492.392 44.8949C492.443 45.5492 492.67 46.1776 493.049 46.7135C493.878 47.7544 495.047 48.4712 496.352 48.7384C497.645 49.0369 498.974 49.1511 500.299 49.0774C501.63 49.0244 502.953 48.8499 504.252 48.5561C506.834 47.963 509.277 46.8795 511.45 45.3645C511.978 44.9811 512.449 44.5236 512.847 44.0061C513.248 43.5095 513.493 42.9062 513.553 42.2713C513.558 41.6438 513.393 41.0267 513.077 40.4844C512.761 39.942 512.305 39.4944 511.757 39.188C510.625 38.5736 509.386 38.1796 508.107 38.0269C506.827 37.8067 505.544 37.6112 504.261 37.4767C501.71 37.1993 499.145 37.0697 496.578 37.0886C491.539 37.136 486.513 37.6177 481.557 38.5283C479.124 38.9123 476.806 39.8257 474.765 41.2038C473.762 41.8719 472.972 42.814 472.489 43.9178C472.273 44.4606 472.23 45.057 472.366 45.6251C472.51 46.1921 472.818 46.7042 473.252 47.0979C474.15 47.8765 475.207 48.4515 476.35 48.7834C477.478 49.1709 478.629 49.4881 479.796 49.7332C482.112 50.1939 484.452 50.5249 486.805 50.7247C491.393 51.2597 496.012 51.4705 500.629 51.3553C505.089 51.235 509.498 50.3677 513.671 48.7896C515.689 48.0081 517.598 46.9718 519.353 45.7062C521.087 44.4896 522.407 42.7735 523.137 40.7873C523.504 39.826 523.633 38.791 523.516 37.7693C523.398 36.7476 523.037 35.769 522.462 34.9159C521.869 34.0935 521.093 33.4194 520.196 32.9464C519.308 32.4712 518.354 32.1285 517.366 31.9293C515.409 31.5641 513.4 31.5756 511.447 31.9633C509.529 32.3102 507.656 32.8708 505.863 33.6346C502.424 35.1759 499.182 37.1237 496.208 39.4363C494.736 40.5339 493.309 41.6575 491.899 42.7612C490.488 43.8648 489.107 44.9595 487.805 46.1072C486.506 47.2231 485.289 48.4323 484.166 49.7251C483.012 50.9197 482.115 52.3368 481.528 53.8898C481.268 54.6456 481.247 55.463 481.468 56.231C481.712 56.9773 482.233 57.6018 482.924 57.9762C484.33 58.6346 485.897 58.8745 487.437 58.6674C488.941 58.5844 490.433 58.3542 491.892 57.9802C493.305 57.638 494.689 57.1884 496.032 56.6355C498.562 55.5922 500.997 54.33 503.307 52.8632C505.53 51.4652 507.576 49.9996 509.505 48.5882C511.346 47.2431 513.114 45.8013 514.802 44.2688C517.967 41.3505 520.361 38.2283 521.62 35.1704C522.223 33.759 522.448 32.2154 522.273 30.6911C522.123 29.4265 521.578 28.2414 520.715 27.3037C520.123 26.6799 519.362 26.2413 518.525 26.041C517.688 25.8408 516.811 25.8874 516 26.1753C515.449 26.3755 514.956 26.7072 514.564 27.1414Z" fill="#495E4C"/>
<path d="M411.87 108.709C411.87 108.709 411.755 108.72 411.534 108.706L410.54 108.652C409.271 108.586 408.016 108.355 406.808 107.962C405.924 107.663 405.111 107.188 404.416 106.566C403.572 105.83 402.991 104.839 402.762 103.743C402.649 103.125 402.703 102.488 402.92 101.898C403.169 101.278 403.573 100.732 404.093 100.312C404.648 99.8568 405.344 99.6067 406.062 99.6043C406.44 99.6246 406.808 99.7271 407.142 99.9045C407.476 100.082 407.768 100.33 407.996 100.631C408.46 101.268 408.711 102.034 408.714 102.822C408.732 103.632 408.579 104.436 408.265 105.183C408.103 105.568 407.893 105.931 407.64 106.264C407.394 106.609 407.12 106.934 406.821 107.236C406.188 107.832 405.471 108.333 404.692 108.722C403.879 109.111 403.012 109.378 402.121 109.514C401.203 109.664 400.266 109.662 399.349 109.509C398.4 109.356 397.487 109.034 396.653 108.558C395.798 108.06 395.058 107.388 394.479 106.585C393.276 104.917 392.688 102.884 392.814 100.831C392.876 99.7752 393.14 98.7411 393.591 97.7842C393.823 97.2997 394.107 96.842 394.438 96.4195C394.759 95.9736 395.163 95.5938 395.627 95.3013C396.107 94.9713 396.696 94.8406 397.27 94.9367C397.559 95.0035 397.831 95.1326 398.065 95.3149C398.286 95.512 398.459 95.7578 398.57 96.0329C398.761 96.5726 398.818 97.1505 398.737 97.7173C398.671 98.2744 398.539 98.8217 398.344 99.3478C397.922 100.384 397.453 101.375 396.942 102.377C396.426 103.392 395.793 104.343 395.057 105.211C394.309 106.088 393.389 106.802 392.353 107.309C391.321 107.813 390.161 107.997 389.023 107.836C387.911 107.651 386.869 107.169 386.009 106.44C385.161 105.739 384.454 104.882 383.926 103.916C383.003 102.014 382.417 99.9657 382.195 97.8632C382.009 96.8561 381.926 95.8328 381.946 94.8089C381.926 93.7515 382.295 92.7233 382.983 91.9193C383.345 91.5518 383.805 91.2946 384.307 91.1779C384.799 91.0613 385.312 91.069 385.799 91.2002C386.754 91.4561 387.578 92.0621 388.105 92.8975C388.582 93.7132 388.823 94.6456 388.8 95.5903C388.796 96.4917 388.644 97.3864 388.349 98.2386C388.08 99.0618 387.716 99.851 387.265 100.59C386.824 101.298 386.316 101.961 385.746 102.571C384.662 103.713 383.373 104.641 381.946 105.308C380.656 105.914 379.262 106.27 377.838 106.357C376.569 106.433 375.296 106.287 374.077 105.926C372.12 105.356 370.336 104.305 368.889 102.87C367.976 101.963 367.225 100.908 366.668 99.7494C366.518 99.4521 366.387 99.1453 366.277 98.831C366.202 98.6251 366.166 98.5128 366.166 98.5128C366.166 98.5128 366.326 98.9481 366.726 99.7192C367.306 100.847 368.068 101.871 368.981 102.751C370.423 104.149 372.187 105.171 374.119 105.727C375.32 106.073 376.573 106.208 377.821 106.127C379.218 106.031 380.584 105.676 381.85 105.08C383.995 104.072 385.797 102.46 387.036 100.442C387.473 99.7168 387.824 98.9432 388.083 98.1371C388.37 97.3134 388.517 96.4477 388.518 95.5757C388.537 94.681 388.307 93.7986 387.855 93.026C387.364 92.2534 386.6 91.6938 385.715 91.4585C385.272 91.3308 384.803 91.3248 384.357 91.4411C383.911 91.5574 383.504 91.7916 383.18 92.1192C382.564 92.8623 382.235 93.8015 382.253 94.7662C382.231 95.78 382.316 96.7934 382.505 97.7897C382.726 99.8487 383.302 101.854 384.206 103.718C384.718 104.647 385.405 105.469 386.229 106.138C387.044 106.834 388.033 107.294 389.091 107.469C390.165 107.62 391.26 107.445 392.234 106.967C393.229 106.483 394.116 105.804 394.843 104.97C396.305 103.282 397.215 101.198 398.067 99.2046C398.486 98.2353 398.57 97.1543 398.305 96.1324C398.206 95.9168 398.064 95.7236 397.888 95.5641C397.699 95.4144 397.48 95.3072 397.246 95.25C396.751 95.1689 396.244 95.2827 395.831 95.5676C395.395 95.8433 395.016 96.1998 394.714 96.6176C394.399 97.0213 394.127 97.4571 393.904 97.9177C393.468 98.8384 393.214 99.8347 393.158 100.852C393.028 102.835 393.591 104.802 394.749 106.418C395.304 107.175 396.004 107.813 396.807 108.297C397.611 108.781 398.503 109.101 399.432 109.239C400.726 109.459 402.055 109.378 403.313 109C404.57 108.622 405.723 107.958 406.682 107.06C407.265 106.496 407.738 105.828 408.079 105.092C408.376 104.366 408.515 103.585 408.486 102.802C408.491 102.062 408.261 101.34 407.829 100.739C407.615 100.468 407.345 100.246 407.038 100.087C406.73 99.9282 406.392 99.8369 406.047 99.8192C405.378 99.8183 404.73 100.049 404.213 100.471C403.709 100.87 403.317 101.392 403.075 101.987C402.864 102.542 402.808 103.144 402.913 103.728C403.131 104.79 403.687 105.753 404.499 106.473C405.173 107.086 405.963 107.559 406.823 107.863C408.031 108.267 409.287 108.513 410.558 108.595L411.55 108.686L411.87 108.709Z" fill="#495E4C"/>
<path d="M503.111 214.375L465.989 218.068C464.524 218.214 463.454 219.518 463.6 220.982L463.621 221.193C463.767 222.657 465.073 223.726 466.538 223.58L503.659 219.887C505.124 219.741 506.194 218.436 506.048 216.972L506.027 216.761C505.882 215.297 504.576 214.229 503.111 214.375Z" fill="#495E4C"/>
<path d="M474.387 226.13L497.254 223.855C497.254 223.855 494.816 230.231 485.954 231.113C476.712 232.032 474.387 226.13 474.387 226.13Z" fill="#495E4C"/>
<path d="M483.872 95.5395C482.894 94.2769 481.564 93.3314 480.049 92.8217C478.534 92.3121 476.903 92.2611 475.359 92.675C473.815 93.089 472.428 93.9496 471.372 95.1486C470.316 96.3476 469.638 97.8315 469.424 99.4139C469.21 100.996 469.468 102.607 470.167 104.043C470.866 105.479 471.974 106.676 473.352 107.485C474.73 108.294 476.317 108.677 477.913 108.588C479.509 108.498 481.043 107.939 482.322 106.982L482.416 106.904L479.178 129.827L497.214 132.362L497.132 132.269C496.188 130.995 495.64 129.472 495.558 127.89C495.476 126.308 495.863 124.736 496.67 123.372C497.477 122.008 498.669 120.912 500.096 120.221C501.524 119.529 503.123 119.274 504.695 119.486C506.267 119.699 507.741 120.369 508.933 121.414C510.125 122.459 510.982 123.832 511.397 125.361C511.812 126.89 511.767 128.508 511.267 130.012C510.766 131.515 509.833 132.838 508.585 133.815L508.427 133.938L527.812 136.669C530.999 127.139 532.152 114.675 525.739 101.198C522.38 93.9595 517.335 87.6299 511.027 82.7383C504.718 77.8466 497.329 74.5349 489.476 73.0801L487.232 72.7652L483.995 95.7018L483.872 95.5395Z" fill="#E9E9E9"/>
<path d="M483.873 95.5393C483.918 95.5895 483.96 95.6419 484 95.6964C484.104 94.789 485.247 86.5197 487.168 72.7568L487.161 72.6848L487.233 72.6776L489.079 72.9353C489.708 73.0133 490.339 73.159 490.982 73.2841C492.263 73.5688 493.577 73.9035 494.909 74.3141C497.742 75.1738 500.493 76.2825 503.131 77.6273C506.043 79.1203 508.811 80.8787 511.399 82.8801C514.171 85.1014 516.713 87.5936 518.988 90.3196C519.578 91.027 520.105 91.7939 520.664 92.5335L521.509 93.6616C521.772 94.0525 522.016 94.4598 522.274 94.8608L523.807 97.2926L525.166 99.8728C527.028 103.444 528.436 107.235 529.356 111.156C530.294 115.287 530.654 119.528 530.425 123.758C530.387 124.838 530.252 125.919 530.146 127.006C530.041 128.092 529.842 129.169 529.62 130.248C529.195 132.429 528.629 134.579 527.925 136.686L527.897 136.786L527.796 136.796L514.264 134.894L508.408 134.09L508.108 134.047L508.352 133.863C509.68 132.875 510.666 131.496 511.173 129.921C511.421 129.144 511.547 128.333 511.545 127.518C511.557 126.708 511.437 125.901 511.191 125.129C511.072 124.744 510.926 124.368 510.754 124.004C510.571 123.645 510.365 123.3 510.136 122.969C509.688 122.308 509.138 121.721 508.507 121.231C507.583 120.508 506.511 119.999 505.367 119.74C504.223 119.481 503.035 119.477 501.889 119.73C500.744 119.983 499.668 120.486 498.74 121.203C497.812 121.92 497.054 122.834 496.52 123.878C496.172 124.552 495.927 125.274 495.792 126.021C495.641 126.756 495.603 127.511 495.68 128.257C495.834 129.737 496.401 131.144 497.316 132.318L497.495 132.552L497.21 132.513L479.178 129.967L479.069 129.949L479.083 129.841C480.275 121.479 481.369 113.792 482.336 106.922L482.484 107.004C481.335 107.898 479.968 108.469 478.524 108.659C477.154 108.832 475.763 108.648 474.486 108.125C473.394 107.686 472.41 107.015 471.602 106.16C470.794 105.304 470.182 104.284 469.807 103.169C469.431 102.055 469.302 100.872 469.429 99.7026C469.555 98.5332 469.933 97.405 470.538 96.3956C471.503 94.82 472.965 93.61 474.695 92.9564C475.429 92.6966 476.195 92.534 476.971 92.4729C477.655 92.4387 478.339 92.4812 479.013 92.5996C480.726 92.9147 482.288 93.781 483.461 95.0662C483.615 95.2275 483.758 95.3997 483.886 95.5816L483.777 95.4567C483.705 95.3669 483.595 95.242 483.444 95.0826C482.994 94.6075 482.489 94.1873 481.941 93.8308C481.046 93.2546 480.047 92.8598 479 92.6687C478.333 92.5572 477.655 92.5205 476.98 92.5594C476.211 92.6212 475.454 92.7846 474.728 93.0453C473.024 93.6977 471.586 94.8985 470.641 96.4581C470.048 97.4515 469.677 98.5615 469.555 99.7117C469.433 100.862 469.562 102.025 469.933 103.12C470.304 104.216 470.908 105.218 471.704 106.057C472.501 106.897 473.469 107.554 474.544 107.983C475.831 108.504 477.232 108.677 478.606 108.482C479.981 108.287 481.279 107.733 482.37 106.875L482.55 106.736L482.519 106.957C481.553 113.841 480.476 121.498 479.3 129.882L479.211 129.76L497.24 132.287L497.138 132.481C496.189 131.27 495.602 129.816 495.445 128.286C495.362 127.516 495.399 126.739 495.555 125.981C495.693 125.212 495.946 124.467 496.306 123.773C497.032 122.359 498.153 121.185 499.532 120.393C500.944 119.579 502.565 119.204 504.191 119.314C505.816 119.424 507.372 120.015 508.66 121.012C509.31 121.513 509.878 122.11 510.346 122.784C510.581 123.125 510.793 123.481 510.981 123.85C511.159 124.225 511.309 124.612 511.431 125.008C511.688 125.804 511.813 126.636 511.803 127.473C511.806 128.75 511.508 130.009 510.935 131.15C510.361 132.291 509.527 133.282 508.501 134.042L508.444 133.815L514.302 134.638L527.829 136.546L527.691 136.627C528.391 134.529 528.954 132.389 529.379 130.219C529.602 129.145 529.747 128.068 529.902 126.991C530.057 125.914 530.144 124.838 530.178 123.768C530.413 119.561 530.058 115.342 529.125 111.232C528.218 107.314 526.822 103.526 524.97 99.9553L523.617 97.3843C523.109 96.5717 522.597 95.7645 522.095 94.961C521.842 94.5644 521.598 94.1571 521.336 93.771L520.496 92.6472C519.937 91.9029 519.405 91.1412 518.82 90.4381C514.507 85.168 509.137 80.8594 503.055 77.79C500.43 76.4464 497.691 75.3365 494.872 74.473C493.544 74.0572 492.234 73.722 490.958 73.4368C490.315 73.3117 489.694 73.165 489.064 73.0822L487.225 72.8385L487.306 72.7771C485.347 86.5485 484.158 94.7981 484 95.7012L483.873 95.5393Z" fill="#495E4C"/>
<path d="M506.179 151.986L506.3 151.833C507.278 150.608 507.871 149.122 508.006 147.561C508.14 146 507.81 144.435 507.057 143.061C506.303 141.687 505.16 140.567 503.771 139.84C502.382 139.113 500.809 138.813 499.25 138.977C497.69 139.141 496.214 139.762 495.007 140.761C493.799 141.76 492.914 143.094 492.463 144.594C492.011 146.095 492.014 147.695 492.47 149.194C492.926 150.692 493.816 152.023 495.027 153.018L495.121 153.086L476.329 154.955L478.426 176.028L478.494 175.929C479.146 175.13 479.95 174.466 480.859 173.977C481.768 173.488 482.765 173.183 483.792 173.08C485.084 172.949 486.389 173.138 487.591 173.629C488.793 174.12 489.856 174.898 490.687 175.896C491.518 176.893 492.09 178.079 492.355 179.349C492.62 180.62 492.569 181.936 492.205 183.182C491.842 184.428 491.179 185.566 490.273 186.496C489.367 187.426 488.246 188.119 487.009 188.516C485.772 188.912 484.457 188.999 483.179 188.769C481.9 188.539 480.698 187.999 479.678 187.196L479.524 187.071L481.928 211.231L503.118 209.123C503.118 209.123 503.277 200.966 503.629 194.744C503.98 188.522 516.458 174.659 519.876 169.058C521.253 166.802 524.485 159.532 525.27 150.096L506.179 151.986Z" fill="#E9E9E9"/>
<path d="M515.065 175.641C514.778 175.13 514.322 174.735 513.774 174.524C513.227 174.313 512.623 174.299 512.067 174.485C511.322 174.753 510.7 175.382 509.889 175.376C509.528 175.336 509.183 175.208 508.884 175.004C508.584 174.799 508.339 174.525 508.171 174.204C507.78 173.593 507.531 172.895 507.086 172.324C506.887 172.019 506.604 171.779 506.272 171.631C505.939 171.484 505.571 171.435 505.212 171.492C504.3 171.738 503.831 172.933 502.891 173.046C502.611 173.053 502.333 172.99 502.082 172.865C501.831 172.739 501.614 172.555 501.451 172.327C501.091 171.877 500.848 171.388 500.481 170.968C499.875 170.329 499.042 169.952 498.161 169.917C497.28 169.883 496.42 170.193 495.764 170.783C494.906 171.329 494.096 172.937 494.119 174.491C494.193 179.187 492.46 180.203 492.46 180.203C492.615 181.75 492.311 183.308 491.587 184.683C490.862 186.059 489.749 187.191 488.385 187.939C487.021 188.687 485.467 189.018 483.917 188.891C482.366 188.763 480.888 188.183 479.665 187.222L479.512 187.097L481.915 211.256L503.105 209.148C503.105 209.148 503.264 200.991 503.616 194.769L503.567 194.619C503.575 194.554 503.58 194.489 503.582 194.424C503.77 189.978 515.065 175.641 515.065 175.641Z" fill="#5CCD6A"/>
<path d="M506.179 151.985L525.281 150.017L525.363 150.009L525.371 150.091C525.015 154.258 524.18 158.371 522.882 162.349C522.146 164.676 521.182 166.926 520.003 169.065C518.65 171.231 517.029 173.322 515.364 175.514C513.699 177.707 511.982 179.962 510.27 182.324C508.478 184.749 506.855 187.293 505.412 189.94C504.647 191.3 504.107 192.775 503.813 194.308C503.673 195.878 503.646 197.501 503.555 199.124C503.422 202.376 503.322 205.713 503.252 209.104L503.262 209.21L481.813 211.344L479.369 186.781L479.602 186.976C480.534 187.748 481.634 188.291 482.814 188.563C483.994 188.835 485.221 188.827 486.398 188.54C487.174 188.362 487.916 188.059 488.594 187.642C488.934 187.439 489.258 187.213 489.566 186.964C489.864 186.706 490.146 186.43 490.41 186.138C491.307 185.13 491.927 183.908 492.209 182.589C492.491 181.271 492.427 179.902 492.021 178.617C491.615 177.331 490.883 176.172 489.895 175.254C488.907 174.336 487.697 173.69 486.384 173.379C485.662 173.203 484.917 173.135 484.175 173.177C483.437 173.206 482.708 173.347 482.013 173.596C480.637 174.085 479.426 174.951 478.52 176.096L478.334 176.328L478.306 176.04C477.566 168.607 476.865 161.564 476.209 154.967L476.199 154.861L476.304 154.851L495.096 152.981L495.054 153.146C493.925 152.255 493.058 151.077 492.545 149.734C492.069 148.46 491.932 147.083 492.148 145.74C492.413 143.938 493.287 142.281 494.625 141.044C495.963 139.808 497.684 139.065 499.503 138.941C501.321 138.817 503.128 139.318 504.621 140.361C506.115 141.404 507.206 142.927 507.714 144.676C507.897 145.323 508.004 145.989 508.033 146.661C508.068 147.719 507.889 148.772 507.506 149.759C507.274 150.364 506.966 150.937 506.589 151.465C506.466 151.647 506.357 151.774 506.293 151.858L506.184 151.985L506.283 151.854C506.346 151.76 506.445 151.634 506.568 151.452C507.537 150.048 508.024 148.368 507.955 146.664C507.948 146.342 507.916 146.021 507.86 145.704C507.691 144.61 507.287 143.565 506.677 142.641C505.807 141.305 504.551 140.265 503.075 139.659C501.599 139.054 499.974 138.912 498.415 139.251C496.856 139.591 495.437 140.397 494.348 141.562C493.259 142.726 492.55 144.195 492.316 145.772C492.107 147.088 492.241 148.435 492.705 149.685C493.212 150.992 494.06 152.14 495.162 153.009L495.336 153.151L495.115 153.173L476.324 155.043L476.419 154.927C477.075 161.524 477.776 168.567 478.515 175.999L478.306 175.943C479.238 174.758 480.486 173.861 481.907 173.354C483.358 172.856 484.92 172.778 486.413 173.129C487.567 173.402 488.647 173.927 489.574 174.666C490.502 175.405 491.254 176.34 491.778 177.404C492.301 178.468 492.582 179.634 492.601 180.819C492.62 182.005 492.377 183.18 491.888 184.26C491.557 185 491.113 185.684 490.571 186.287C490.294 186.59 489.998 186.875 489.685 187.141C489.367 187.397 489.032 187.632 488.682 187.842C487.982 188.271 487.216 188.583 486.415 188.766C485.613 188.963 484.785 189.034 483.961 188.976C482.292 188.857 480.701 188.22 479.411 187.155L479.619 187.042L480.346 194.354C480.919 200.116 481.485 205.805 482.022 211.202L481.89 211.094L503.08 208.985L502.97 209.103C503.049 205.698 503.154 202.368 503.287 199.112C503.362 197.48 503.407 195.881 503.549 194.281C503.847 192.722 504.396 191.222 505.174 189.838C506.627 187.184 508.259 184.632 510.059 182.2C511.763 179.819 513.505 177.561 515.167 175.388C516.829 173.216 518.459 171.109 519.803 168.963C520.98 166.839 521.945 164.604 522.683 162.291C523.984 158.327 524.829 154.228 525.199 150.074L525.27 150.144L506.179 151.985Z" fill="#495E4C"/>
<path d="M493.573 168.464C493.609 168.826 493.537 169.19 493.366 169.511C493.195 169.832 492.932 170.095 492.611 170.267C492.29 170.439 491.926 170.511 491.564 170.476C491.201 170.441 490.858 170.299 490.576 170.069C490.295 169.838 490.088 169.53 489.982 169.182C489.876 168.834 489.876 168.463 489.981 168.115C490.086 167.767 490.293 167.458 490.574 167.227C490.855 166.996 491.198 166.853 491.56 166.817C492.046 166.769 492.531 166.915 492.908 167.224C493.286 167.533 493.525 167.979 493.573 168.464Z" fill="#5CCD6A"/>
<g opacity="0.2">
<path d="M486.078 188.644C484.229 188.983 482.087 188.435 481.047 186.856L479.668 187.633C479.763 188.593 481.148 190.361 482.063 190.634C483.901 191.242 485.893 191.195 487.699 190.5C488.603 190.083 489.386 189.444 489.974 188.641C490.561 187.839 490.934 186.9 491.058 185.913C489.529 187.277 487.927 188.305 486.078 188.644Z" fill="black"/>
</g>
<path d="M460.245 103.971C462.226 103.451 464.332 103.72 466.119 104.72L466.28 104.825L460.531 82.841L458.383 83.4038C450.894 85.71 444.066 89.7742 438.471 95.2565C432.876 100.739 428.676 107.48 426.223 114.915C421.501 128.772 424.037 140.802 428.229 149.714L430.518 149.113L448.353 144.454L448.254 144.628C447.48 145.991 447.126 147.551 447.237 149.113C447.348 150.676 447.919 152.17 448.878 153.41C449.836 154.649 451.14 155.577 452.625 156.078C454.111 156.579 455.711 156.631 457.226 156.226C458.74 155.821 460.102 154.978 461.138 153.803C462.175 152.628 462.841 151.173 463.053 149.621C463.265 148.069 463.013 146.489 462.329 145.08C461.645 143.671 460.559 142.495 459.208 141.701L459.101 141.648L459.597 141.517L474.87 137.505L469.122 115.535L469.065 115.642C468.546 116.534 467.856 117.315 467.034 117.94C466.213 118.565 465.276 119.022 464.278 119.285C462.285 119.705 460.207 119.343 458.474 118.275C456.741 117.207 455.485 115.514 454.967 113.547C454.449 111.579 454.708 109.488 455.69 107.705C456.673 105.923 458.303 104.586 460.245 103.971Z" fill="#5CCD6A"/>
<path d="M460.245 103.971L459.728 104.143C459.516 104.211 459.308 104.294 459.107 104.389C458.986 104.445 458.855 104.497 458.717 104.569L458.285 104.811C457.536 105.248 456.865 105.806 456.299 106.463C455.532 107.363 454.974 108.422 454.666 109.564C454.575 109.889 454.505 110.22 454.454 110.555C454.408 110.913 454.387 111.275 454.392 111.637C454.388 112.415 454.506 113.189 454.741 113.93C455.304 115.764 456.52 117.329 458.159 118.327C459.799 119.326 461.748 119.689 463.638 119.348C464.738 119.151 465.781 118.716 466.695 118.074C467.66 117.4 468.46 116.516 469.035 115.49L469.138 115.305L469.192 115.508C470.889 121.977 472.827 129.363 474.96 137.476L474.97 137.577L474.869 137.587L459.126 141.708L459.149 141.498C460.444 142.22 461.512 143.29 462.232 144.585C462.601 145.24 462.867 145.948 463.019 146.684C463.191 147.424 463.254 148.186 463.205 148.944C463.154 149.711 462.995 150.466 462.734 151.188C462.463 151.918 462.092 152.608 461.632 153.237C460.685 154.507 459.385 155.471 457.894 156.009C456.373 156.562 454.72 156.639 453.154 156.228C451.564 155.812 450.139 154.922 449.066 153.677C448.515 153.059 448.075 152.35 447.766 151.581C447.434 150.818 447.227 150.007 447.153 149.179C446.996 147.493 447.376 145.8 448.24 144.343L448.379 144.528L435.365 147.927L428.27 149.782L428.164 149.793L428.12 149.695C426.323 145.876 425.032 141.838 424.28 137.684C423.915 135.662 423.69 133.617 423.608 131.564C423.594 130.547 423.552 129.533 423.607 128.524C423.626 128.037 423.623 127.518 423.666 127.02L423.793 125.523C424.169 121.637 425.04 117.814 426.384 114.147L427.402 111.5L427.657 110.845C427.747 110.627 427.858 110.422 427.953 110.209L428.561 108.951C428.757 108.534 428.963 108.116 429.16 107.703L429.457 107.082L429.801 106.49L431.173 104.133C431.387 103.739 431.656 103.377 431.906 103.008L432.666 101.91L433.416 100.817C433.672 100.461 433.964 100.132 434.236 99.7895C434.785 99.1143 435.314 98.4265 435.875 97.7791L437.631 95.9122C439.911 93.5958 442.407 91.5015 445.085 89.6575C447.563 87.9889 450.178 86.5348 452.904 85.311C455.36 84.1934 457.919 83.3153 460.544 82.6889L460.621 82.6812L460.629 82.7581C463.213 92.727 465.149 100.186 466.336 104.752L466.345 104.843L466.28 104.825C464.92 104.017 463.349 103.633 461.768 103.722C461.383 103.745 461.001 103.795 460.623 103.87L460.252 103.946C460.252 103.946 460.37 103.91 460.621 103.851C460.997 103.765 461.379 103.709 461.764 103.684C463.356 103.575 464.943 103.949 466.317 104.758L466.258 104.803C465.057 100.243 463.092 92.7875 460.466 82.8324L460.564 82.8906C457.951 83.5171 455.405 84.3973 452.963 85.5184C447.264 88.0485 442.099 91.6413 437.747 96.1043L436.015 97.964C435.453 98.6114 434.93 99.2987 434.38 99.9692C434.113 100.311 433.825 100.64 433.572 101.019C433.318 101.398 433.076 101.743 432.826 102.107L432.071 103.2C431.807 103.562 431.562 103.938 431.338 104.325L429.979 106.667L429.633 107.235L429.335 107.851L428.741 109.098L428.142 110.35C428.042 110.559 427.936 110.768 427.846 110.981L427.595 111.636C427.255 112.509 426.92 113.386 426.581 114.268C425.246 117.919 424.382 121.725 424.009 125.594C423.97 126.083 423.927 126.572 423.883 127.061C423.84 127.55 423.839 128.035 423.824 128.56C423.766 129.536 423.81 130.569 423.828 131.581C423.909 133.623 424.133 135.656 424.497 137.667C425.246 141.8 426.532 145.817 428.321 149.617L428.178 149.549L435.274 147.694L448.293 144.294L448.586 144.217L448.432 144.474C447.804 145.524 447.435 146.708 447.355 147.928C447.275 149.148 447.486 150.37 447.971 151.493C448.125 151.862 448.307 152.22 448.514 152.564C448.729 152.901 448.969 153.223 449.231 153.525C450.271 154.732 451.653 155.595 453.195 156.001C453.953 156.195 454.734 156.281 455.516 156.255C456.292 156.209 457.057 156.056 457.791 155.801C458.514 155.541 459.196 155.178 459.814 154.722C461.035 153.81 461.965 152.564 462.491 151.134C462.741 150.432 462.895 149.699 462.948 148.955C462.995 148.219 462.934 147.481 462.769 146.762C462.618 146.049 462.362 145.362 462.008 144.724C461.309 143.467 460.277 142.428 459.025 141.719L458.773 141.579L459.048 141.508L474.819 137.432L474.745 137.561C472.609 129.409 470.7 122.025 469.018 115.559L469.169 115.573C468.579 116.622 467.76 117.524 466.772 118.212C465.837 118.863 464.771 119.3 463.648 119.493C461.724 119.834 459.743 119.458 458.078 118.437C456.414 117.416 455.182 115.82 454.617 113.952C454.383 113.199 454.267 112.413 454.274 111.625C454.258 110.912 454.351 110.202 454.55 109.517C454.822 108.519 455.29 107.584 455.924 106.766C456.559 105.948 457.35 105.263 458.25 104.751L458.687 104.509L459.082 104.339C459.285 104.244 459.494 104.166 459.71 104.106C460.062 103.989 460.245 103.971 460.245 103.971Z" fill="#495E4C"/>
<path d="M481.598 211.326L462.437 213.232C462.437 213.232 460.673 205.266 459.103 199.236C457.532 193.205 442.567 182.072 438.113 177.25C436.318 175.31 431.717 168.824 429.089 159.722L447.188 157.922L447.063 158.08C446.084 159.305 445.49 160.793 445.355 162.354C445.22 163.916 445.55 165.483 446.304 166.858C447.058 168.232 448.202 169.354 449.592 170.081C450.981 170.808 452.556 171.109 454.116 170.945C455.677 170.781 457.154 170.16 458.362 169.159C459.571 168.159 460.456 166.825 460.908 165.323C461.359 163.822 461.356 162.221 460.9 160.721C460.443 159.221 459.553 157.89 458.341 156.895L458.246 156.822L475.873 155.199L477.97 176.271C477.97 176.271 479.364 173.606 483.339 173.313C487.314 173.019 490.589 175.54 491.511 178.318C492.433 181.097 492.433 186.513 487.232 188.49C482.032 190.467 478.976 186.97 478.976 186.97L481.47 211.45" fill="white"/>
<path d="M481.327 210.267C481.394 210.26 481.479 210.523 481.512 210.855C481.545 211.186 481.519 211.46 481.447 211.467C481.374 211.474 481.295 211.211 481.262 210.879C481.229 210.548 481.255 210.274 481.327 210.267Z" fill="#495E4C"/>
<path d="M480.824 205.356C480.985 205.742 481.071 206.155 481.076 206.573C481.159 206.982 481.158 207.405 481.073 207.814C480.912 207.429 480.828 207.015 480.826 206.597C480.743 206.188 480.742 205.766 480.824 205.356Z" fill="#495E4C"/>
<path d="M480.326 200.446C480.487 200.831 480.571 201.245 480.573 201.663C480.657 202.072 480.657 202.494 480.575 202.904C480.411 202.519 480.325 202.106 480.323 201.687C480.24 201.278 480.241 200.855 480.326 200.446Z" fill="#495E4C"/>
<path d="M479.824 195.536C479.988 195.92 480.073 196.334 480.076 196.752C480.159 197.162 480.158 197.584 480.073 197.994C479.912 197.608 479.828 197.195 479.826 196.777C479.742 196.368 479.742 195.946 479.824 195.536Z" fill="#495E4C"/>
<path d="M479.325 190.625C479.486 191.01 479.57 191.424 479.572 191.842C479.655 192.251 479.656 192.673 479.574 193.083C479.412 192.697 479.327 192.284 479.322 191.866C479.239 191.457 479.24 191.034 479.325 190.625Z" fill="#495E4C"/>
<path d="M479.869 187.754C479.872 187.783 479.721 187.73 479.534 187.613C479.424 187.544 479.317 187.469 479.216 187.387L479.041 187.235L478.949 187.147L478.906 187.103L478.904 187.079L479.123 186.984C479.205 187.385 479.203 187.798 479.117 188.197C478.934 187.815 478.833 187.399 478.821 186.976L479.039 186.881L479.042 186.905L479.085 186.949L479.166 187.033L479.322 187.188L479.596 187.451C479.793 187.626 479.866 187.73 479.869 187.754Z" fill="#495E4C"/>
<path d="M484.303 189.092C483.516 189.285 482.686 189.175 481.977 188.785C482.369 188.773 482.762 188.814 483.144 188.906C483.537 188.918 483.926 188.98 484.303 189.092Z" fill="#495E4C"/>
<path d="M488.757 187.713C488.801 187.766 488.385 188.118 487.776 188.392C487.424 188.59 487.026 188.695 486.622 188.696C486.614 188.619 487.081 188.427 487.671 188.165C488.011 187.966 488.376 187.814 488.757 187.713Z" fill="#495E4C"/>
<path d="M491.549 184.026C491.549 184.434 491.432 184.832 491.212 185.175C490.911 185.767 490.528 186.16 490.48 186.116C490.432 186.072 490.702 185.609 490.986 185.057C491.271 184.505 491.479 184.004 491.549 184.026Z" fill="#495E4C"/>
<path d="M491.762 179.385C491.958 179.737 492.056 180.136 492.046 180.539C492.121 180.937 492.087 181.348 491.946 181.728C491.84 181.348 491.789 180.954 491.796 180.559C491.726 180.172 491.715 179.776 491.762 179.385Z" fill="#495E4C"/>
<path d="M489.455 175.362C489.498 175.309 489.965 175.612 490.375 176.124C490.668 176.405 490.873 176.765 490.964 177.161C490.904 177.196 490.6 176.77 490.186 176.269C489.772 175.767 489.407 175.415 489.455 175.362Z" fill="#495E4C"/>
<path d="M485.235 173.396C485.636 173.333 486.046 173.382 486.42 173.54C487.055 173.729 487.515 174.017 487.483 174.079C487.092 174.031 486.71 173.93 486.346 173.78C485.961 173.701 485.587 173.572 485.235 173.396Z" fill="#495E4C"/>
<path d="M480.614 173.977C480.917 173.703 481.291 173.523 481.694 173.457C482.071 173.31 482.482 173.269 482.881 173.339C482.523 173.505 482.144 173.621 481.755 173.684C481.388 173.826 481.005 173.924 480.614 173.977Z" fill="#495E4C"/>
<path d="M477.825 175.064C477.988 175.439 478.071 175.844 478.07 176.252L477.832 176.203L477.829 176.179L477.863 176.123L477.93 176.019L478.072 175.835C478.152 175.731 478.242 175.635 478.339 175.547C478.499 175.395 478.618 175.325 478.644 175.347C478.671 175.368 478.595 175.487 478.472 175.664C478.349 175.841 478.319 175.883 478.255 175.972L478.133 176.159L478.075 176.257L478.046 176.308L478.048 176.332L477.811 176.288C477.733 175.883 477.738 175.467 477.825 175.064Z" fill="#495E4C"/>
<path d="M477.294 169.73C477.548 170.594 477.638 171.498 477.559 172.395C477.305 171.531 477.215 170.627 477.294 169.73Z" fill="#495E4C"/>
<path d="M476.763 164.391C477.017 165.254 477.107 166.158 477.028 167.055C476.774 166.191 476.684 165.288 476.763 164.391Z" fill="#495E4C"/>
<path d="M476.233 159.061C476.487 159.925 476.577 160.829 476.498 161.726C476.244 160.862 476.154 159.958 476.233 159.061Z" fill="#495E4C"/>
<path d="M474.646 155.302C475.023 155.145 475.427 155.065 475.836 155.067L475.973 155.18L475.996 155.405C476.003 155.477 476.01 155.554 476.018 155.631C476.026 155.708 476.045 155.905 476.056 156.015C476.054 156.234 476.034 156.371 476 156.375C475.966 156.378 475.919 156.247 475.878 156.033C475.868 155.922 475.855 155.793 475.811 155.652L475.767 155.2L475.904 155.313C475.489 155.4 475.059 155.396 474.646 155.302Z" fill="#495E4C"/>
<path d="M470.298 155.705C470.633 155.547 471.001 155.469 471.372 155.477C471.736 155.404 472.112 155.413 472.472 155.503C472.134 155.656 471.767 155.733 471.397 155.727C471.033 155.799 470.658 155.792 470.298 155.705Z" fill="#495E4C"/>
<path d="M465.946 156.104C466.646 155.87 467.39 155.796 468.123 155.888C467.786 156.046 467.417 156.124 467.044 156.116C466.682 156.193 466.307 156.189 465.946 156.104Z" fill="#495E4C"/>
<path d="M461.598 156.507C461.934 156.349 462.302 156.271 462.673 156.279C463.036 156.203 463.412 156.212 463.772 156.306C463.435 156.458 463.068 156.535 462.697 156.529C462.334 156.602 461.959 156.594 461.598 156.507Z" fill="#495E4C"/>
<path d="M459.109 157.633C459.08 157.636 458.963 157.585 458.79 157.452C458.701 157.388 458.601 157.306 458.494 157.214L458.329 157.066L458.244 156.987L458.197 156.953C458.144 157.152 458.276 156.674 458.261 156.724C458.663 156.647 459.076 156.652 459.476 156.739C459.1 156.898 458.695 156.978 458.286 156.973C458.291 157.021 458.404 156.545 458.346 156.749L458.349 156.773L458.396 156.812L458.487 156.895L458.649 157.058C458.752 157.165 458.844 157.262 458.915 157.347C459.056 157.493 459.135 157.606 459.109 157.633Z" fill="#495E4C"/>
<path d="M461.117 161.772C460.943 161.423 460.815 161.053 460.735 160.671C460.581 160.312 460.477 159.935 460.425 159.548C460.705 159.839 460.896 160.203 460.976 160.599C461.135 160.968 461.184 161.376 461.117 161.772Z" fill="#495E4C"/>
<path d="M460.46 166.333C460.629 165.573 460.853 164.826 461.131 164.099C461.18 164.899 460.942 165.691 460.46 166.333Z" fill="#495E4C"/>
<path d="M457.373 169.753C457.338 169.689 457.759 169.385 458.267 168.981C458.775 168.576 459.133 168.22 459.167 168.27C459.201 168.32 458.917 168.78 458.408 169.175C458.124 169.462 457.766 169.662 457.373 169.753Z" fill="#495E4C"/>
<path d="M452.903 170.881C453.273 170.751 453.666 170.697 454.057 170.723C454.436 170.614 454.835 170.59 455.225 170.65C454.871 170.834 454.484 170.944 454.087 170.972C453.69 171.026 453.287 170.995 452.903 170.881Z" fill="#495E4C"/>
<path d="M448.562 169.339C448.605 169.282 449.068 169.551 449.584 169.854C450.099 170.156 450.606 170.368 450.612 170.435C450.208 170.42 449.817 170.29 449.483 170.062C448.91 169.765 448.519 169.392 448.562 169.339Z" fill="#495E4C"/>
<path d="M445.811 165.647C446.051 165.953 446.248 166.291 446.397 166.65C446.614 166.974 446.788 167.326 446.913 167.695C446.859 167.739 446.486 167.35 446.175 166.769C445.948 166.438 445.822 166.048 445.811 165.647Z" fill="#495E4C"/>
<path d="M445.581 161.045C445.61 161.434 445.585 161.824 445.508 162.206C445.511 162.596 445.46 162.985 445.356 163.361C445.147 162.587 445.228 161.764 445.581 161.045Z" fill="#495E4C"/>
<path d="M445.961 158.034C446.337 157.874 446.741 157.791 447.15 157.79C447.198 157.882 447.042 157.587 447.263 157.997L447.224 158.044L447.15 158.134L447.018 158.317L446.78 158.612C446.641 158.776 446.534 158.869 446.508 158.853C446.482 158.836 446.528 158.705 446.635 158.515C446.688 158.418 446.754 158.3 446.829 158.176L446.956 157.984C446.977 157.949 447.001 157.916 447.028 157.885L447.067 157.837C447.288 158.247 447.127 157.952 447.175 158.04C446.774 158.122 446.361 158.12 445.961 158.034Z" fill="#495E4C"/>
<path d="M441.795 158.449C441.788 158.381 442.052 158.297 442.383 158.264C442.715 158.231 442.99 158.262 442.997 158.329C443.003 158.396 442.74 158.481 442.408 158.514C442.077 158.547 441.802 158.521 441.795 158.449Z" fill="#495E4C"/>
<path d="M481.66 211.319L481.314 211.354L480.31 211.453L476.465 211.836L462.514 213.326L462.427 213.334L462.419 213.248C461.547 209.364 460.517 204.962 459.309 200.238C458.883 197.807 457.257 195.763 455.579 193.821C453.798 191.829 451.915 189.932 449.937 188.137C447.312 185.707 444.668 183.429 442.16 181.196C440.913 180.074 439.686 178.969 438.553 177.821C437.993 177.254 437.474 176.647 436.999 176.007C436.52 175.386 436.077 174.746 435.651 174.115C434.079 171.721 432.709 169.201 431.557 166.58C430.558 164.36 429.714 162.074 429.032 159.737L429.022 159.636L429.123 159.626L438.171 158.765L440.577 158.55L441.206 158.487L441.418 158.466L441.206 158.487L440.577 158.55L438.174 158.789L429.133 159.727L429.204 159.618C429.887 161.936 430.726 164.205 431.715 166.409C432.873 169.015 434.246 171.52 435.818 173.899C436.24 174.531 436.682 175.166 437.161 175.783C437.633 176.413 438.149 177.009 438.703 177.569C439.825 178.703 441.051 179.803 442.302 180.92C444.811 183.153 447.459 185.426 450.084 187.865C452.073 189.686 453.962 191.612 455.745 193.634C456.601 194.6 457.388 195.625 458.098 196.702C458.441 197.236 458.738 197.799 458.984 198.384C459.207 198.965 459.386 199.561 459.521 200.168C460.719 204.898 461.725 209.302 462.594 213.201L462.484 213.12L476.454 211.774L480.302 211.42L481.306 211.32C481.544 211.321 481.66 211.319 481.66 211.319Z" fill="#495E4C"/>
<path d="M480.397 211.446C480.39 211.374 480.654 211.294 480.985 211.261C481.317 211.228 481.591 211.254 481.598 211.326C481.606 211.398 481.342 211.478 481.01 211.511C480.678 211.544 480.404 211.513 480.397 211.446Z" fill="#495E4C"/>
<path d="M475.61 211.922C476.386 211.675 477.204 211.594 478.013 211.683C477.238 211.929 476.419 212.011 475.61 211.922Z" fill="#495E4C"/>
<path d="M470.817 212.399C471.593 212.152 472.412 212.07 473.22 212.16C472.445 212.406 471.626 212.488 470.817 212.399Z" fill="#495E4C"/>
<path d="M466.031 212.875C466.806 212.628 467.625 212.547 468.434 212.636C467.658 212.882 466.839 212.964 466.031 212.875Z" fill="#495E4C"/>
<path d="M462.169 212.056C462.203 212.053 462.264 212.173 462.337 212.379C462.348 212.489 462.409 212.61 462.447 212.751C462.486 212.893 462.487 212.902 462.503 212.969L462.515 213.089L462.521 213.151L462.526 213.204C462.464 213.162 462.658 213.307 462.39 213.106C462.791 213.024 463.204 213.025 463.604 213.111C463.228 213.272 462.824 213.355 462.415 213.356C462.39 213.101 462.246 213.314 462.279 213.253L462.267 213.138L462.255 213.018L462.233 212.797C462.219 212.653 462.206 212.523 462.195 212.413C462.135 212.2 462.136 212.064 462.169 212.056Z" fill="#495E4C"/>
<path d="M461.042 207.169C461.397 207.935 461.59 208.766 461.61 209.61C461.261 208.842 461.068 208.012 461.042 207.169Z" fill="#495E4C"/>
<path d="M459.869 202.306C460.088 202.669 460.23 203.072 460.288 203.491C460.427 203.892 460.487 204.316 460.466 204.739C460.108 203.976 459.905 203.149 459.869 202.306Z" fill="#495E4C"/>
<path d="M458.385 197.537C458.691 197.84 458.912 198.218 459.028 198.632C459.204 199.022 459.283 199.448 459.258 199.874C459.177 199.883 459.022 199.35 458.794 198.718C458.608 198.343 458.471 197.947 458.385 197.537Z" fill="#495E4C"/>
<path d="M455.412 193.518C455.763 193.753 456.066 194.052 456.306 194.399C456.606 194.697 456.843 195.053 457.002 195.445C456.948 195.489 456.549 195.093 456.108 194.564C455.809 194.266 455.572 193.91 455.412 193.518Z" fill="#495E4C"/>
<path d="M451.933 189.912C451.982 189.864 452.42 190.223 452.911 190.712C453.238 190.982 453.51 191.312 453.711 191.685C453.658 191.734 453.224 191.374 452.734 190.89C452.405 190.62 452.133 190.288 451.933 189.912Z" fill="#495E4C"/>
<path d="M448.265 186.501C448.309 186.453 448.778 186.784 449.272 187.254C449.611 187.509 449.897 187.828 450.113 188.194C450.065 188.247 449.599 187.91 449.101 187.441C448.603 186.972 448.202 186.556 448.265 186.501Z" fill="#495E4C"/>
<path d="M444.517 183.173C444.56 183.12 445.03 183.447 445.561 183.908C445.905 184.157 446.196 184.471 446.42 184.831C446.371 184.88 445.907 184.553 445.376 184.096C444.845 183.64 444.474 183.226 444.517 183.173Z" fill="#495E4C"/>
<path d="M440.773 179.841C440.816 179.788 441.286 180.12 441.789 180.584C442.127 180.838 442.415 181.153 442.638 181.513C442.59 181.566 442.125 181.234 441.618 180.771C441.111 180.307 440.744 179.888 440.773 179.841Z" fill="#495E4C"/>
<path d="M438.103 177.251C438.152 177.203 438.381 177.359 438.623 177.597C438.865 177.835 438.997 178.045 438.951 178.117C438.905 178.19 438.673 178.009 438.431 177.771C438.189 177.533 438.059 177.299 438.103 177.251Z" fill="#495E4C"/>
</g>
<path d="M505.928 288.234C488.438 307.1 460.995 312.925 444.44 313.937C398.449 321.318 357.615 294.551 318.499 274.995C272.982 262.23 250.433 299.444 227.158 311.382C203.883 323.32 149.378 312.496 118.567 287.095" stroke="#5CCD6A" stroke-linecap="round" stroke-dasharray="8 8"/>
<path d="M0.99995 282.7C13.8878 271.055 18.9492 263.976 39.0889 258.31C59.2287 252.645 69.4159 256.908 81.0896 264.218" stroke="#5CCD6A" stroke-linecap="round" stroke-dasharray="8 8"/>
<defs>
<clipPath id="clip0_1538_39">
<rect width="279" height="246" fill="white" transform="translate(336 27.621) rotate(-5.68159)"/>
</clipPath>
</defs>
</svg>
