<svg width="589" height="378" viewBox="0 0 589 378" fill="none" xmlns="http://www.w3.org/2000/svg">
<g opacity="0.5" clip-path="url(#clip0_1538_41)">
<path d="M527.612 220.009C527.612 220.009 427.948 218.195 385.677 220.359C355.436 221.907 264.494 220.659 264.494 220.659C264.494 220.659 266.197 154.107 264.247 120.378C262.991 98.867 264.034 34.1862 264.034 34.1862C264.034 34.1862 360.843 34.1311 391.962 32.8507C443.455 30.6988 527.151 33.5362 527.151 33.5362C527.151 33.5362 529.274 79.8025 527.334 107.347C525.373 135.443 527.612 220.009 527.612 220.009Z" fill="white"/>
<path opacity="0.5" d="M527.151 33.5363L527.256 75.8006C509.395 75.3987 459.931 74.6147 395.096 76.3323C326.287 78.1518 277.897 77.1528 264.111 76.7833L264.005 34.1863C264.005 34.1863 360.815 34.1383 391.933 32.8508C443.455 30.6988 527.151 33.5363 527.151 33.5363Z" fill="#92E3A9" fill-opacity="0.7"/>
<path opacity="0.2" d="M427.875 217.473L425.109 73.9927L395.692 74.0654C394.439 96.645 395.527 187.5 395.933 217.552L427.875 217.473Z" fill="#92E3A9" fill-opacity="0.7"/>
<path opacity="0.2" d="M267.456 76.8458L299.723 76.5466C299.723 76.5466 302.459 187.539 296.918 217.796L269.665 217.864C269.665 217.864 269.94 177.432 269.483 144.061C269.025 110.689 267.456 76.8458 267.456 76.8458Z" fill="#92E3A9" fill-opacity="0.7"/>
<path d="M267.401 54.496C267.401 54.496 347.324 53.1729 371.488 54.2389C395.653 55.3048 462.127 53.1867 471.816 52.5751C481.505 51.9636 525.575 53.8582 525.575 53.8582C527.197 40.6156 524.035 34.5634 524.035 34.5634C524.035 34.5634 406.138 36.3908 349.06 37.3035C291.982 38.2161 267.359 37.5053 267.359 37.5053C267.359 37.5053 268.51 47.9589 267.401 54.496Z" fill="#5CCD6A"/>
<path d="M527.612 220.009C527.612 220.009 427.948 218.195 385.677 220.359C355.436 221.907 264.494 220.659 264.494 220.659C264.494 220.659 266.197 154.107 264.247 120.378C262.991 98.867 264.034 34.1862 264.034 34.1862C264.034 34.1862 360.843 34.1311 391.962 32.8507C443.455 30.6988 527.151 33.5362 527.151 33.5362C527.151 33.5362 529.274 79.8025 527.334 107.347C525.373 135.443 527.612 220.009 527.612 220.009Z" stroke="#495E4C" stroke-width="0.6" stroke-linecap="round" stroke-linejoin="round"/>
<path d="M271.409 56.1712C271.409 56.1712 301.905 54.9703 336.884 56.0095C371.863 57.0487 425.051 56.1953 453.44 55.219C481.829 54.2427 516.168 53.8817 516.168 53.8817" stroke="#495E4C" stroke-width="0.6" stroke-linecap="round" stroke-linejoin="round"/>
<path d="M271.459 76.6165C271.459 76.6165 492.918 73.8253 516.181 73.7678" stroke="#495E4C" stroke-width="0.6" stroke-linecap="round" stroke-linejoin="round"/>
<path d="M299.669 54.4163C299.669 54.4163 303.052 178.483 300.035 202.851" stroke="#495E4C" stroke-width="0.6" stroke-linecap="round" stroke-linejoin="round"/>
<path d="M330.168 54.3409C330.168 54.3409 329.387 190.92 330.529 200.489" stroke="#495E4C" stroke-width="0.6" stroke-linecap="round" stroke-linejoin="round"/>
<path d="M362.067 54.2621C362.067 54.2621 363.251 81.1612 363.607 104.955C363.963 128.748 362.425 199.285 363.859 207.153" stroke="#495E4C" stroke-width="0.6" stroke-linecap="round" stroke-linejoin="round"/>
<path d="M395.646 55.3119C395.646 55.3119 394.143 137.084 394.919 165.088C395.696 193.093 396.023 208.221 396.023 208.221" stroke="#495E4C" stroke-width="0.6" stroke-linecap="round" stroke-linejoin="round"/>
<path d="M425.024 54.1066C425.024 54.1066 428.094 151.315 427.834 172.164C427.574 193.014 427.914 204.652 427.914 204.652" stroke="#495E4C" stroke-width="0.6" stroke-linecap="round" stroke-linejoin="round"/>
<path d="M456.92 52.6119C456.92 52.6119 456.885 109.956 458.728 125.887C460.571 141.819 458.118 208.096 458.118 208.096" stroke="#495E4C" stroke-width="0.6" stroke-linecap="round" stroke-linejoin="round"/>
<path d="M488.296 52.5344C488.296 52.5344 489.571 81.8616 489.824 98.2429C490.076 114.624 489.512 198.242 491.501 204.523" stroke="#495E4C" stroke-width="0.6" stroke-linecap="round" stroke-linejoin="round"/>
<path d="M271.502 93.9753C271.502 93.9753 317.531 93.0262 346.703 93.7895C346.703 93.7895 346.651 101.634 346.73 104.713C346.73 104.713 278.827 104.322 271.529 104.899C271.529 104.899 272.066 95.9349 271.502 93.9753Z" fill="white" stroke="#495E4C" stroke-linecap="round" stroke-linejoin="round"/>
<path d="M426.154 93.225L426.182 104.552C426.182 104.552 483.62 103.851 489.764 102.717L489.624 91.794C489.624 91.794 446.541 91.3977 426.154 93.225Z" fill="white" stroke="#495E4C" stroke-linecap="round" stroke-linejoin="round"/>
<path d="M329.797 107.834L395.195 107.673L394.81 118.109C394.81 118.109 367.262 118.807 352.431 119.198C337.6 119.588 330.33 120.088 330.33 120.088L329.797 107.834Z" fill="#5CCD6A" stroke="#495E4C" stroke-linecap="round" stroke-linejoin="round"/>
<path d="M491.183 104.356L491.471 112.199C491.471 112.199 511.816 110.733 514.809 111.023L514.79 103.179C514.79 103.179 496.781 102.941 491.183 104.356Z" fill="#5CCD6A" stroke="#495E4C" stroke-linecap="round" stroke-linejoin="round"/>
<path d="M395.256 132.614C395.256 132.614 451.13 131.173 458.735 128.577L458.773 144.152C458.773 144.152 404.177 144.507 394.71 146.257C394.71 146.286 394.132 135.717 395.256 132.614Z" fill="white" stroke="#495E4C" stroke-linecap="round" stroke-linejoin="round"/>
<path d="M399.104 132.505C399.104 132.505 393.784 140.766 394.883 141.818C395.982 142.87 401.375 132.861 403.03 132.595C404.684 132.329 397.285 146.357 397.994 146.851C398.702 147.345 408.064 132.023 410.292 132.017C412.52 132.012 405.374 145.353 406.789 145.286C408.203 145.219 414.791 132.261 417.195 132C419.6 131.74 411.654 145.075 413.5 145.014C415.346 144.953 422.716 130.783 424.246 131.537C425.776 132.291 416.673 143.881 419.094 144.823C421.516 145.766 427.664 132.421 430.626 131.741C433.588 131.061 423.803 143.899 426.668 144.231C429.533 144.564 433.793 130.855 436.031 131.94C438.268 133.024 431.95 140.643 432.885 141.151C433.82 141.658 436.78 131.98 439.765 131.93C442.75 131.881 436.25 140.633 436.96 141.686C437.67 142.739 440.695 139.1 440.695 139.1" stroke="#92E3A9" stroke-linecap="round" stroke-linejoin="round"/>
<path d="M274.296 93.9258C274.296 93.9258 271.933 99.5953 272.5 99.8558C273.066 100.116 275.315 94.249 277.523 94.5196C279.73 94.7903 273.545 104.795 274.987 104.742C276.43 104.688 281.325 93.2784 282.833 93.8835C284.341 94.4886 279.221 103.407 280.199 104.021C281.176 104.634 286.05 93.2243 287.593 93.8505C289.137 94.4768 283.281 103.588 284.788 103.585C286.295 103.581 291.341 93.6572 292.876 93.6534C294.411 93.6496 288.145 102.309 289.682 103.452C291.22 104.595 294.974 92.5297 297.219 93.6427C299.464 94.7557 293.882 102.854 295.561 103.721C297.239 104.588 301.546 92.9382 302.948 93.5577C304.35 94.1773 298.802 104.584 299.764 104.588C300.726 104.593 306.893 92.6277 308.295 93.5233C309.698 94.4189 303.145 104.587 304.404 104.584C305.663 104.581 312.211 92.2889 313.889 92.8935C315.566 93.4982 309.576 102.426 311.084 102.982C312.592 103.537 316.246 96.6682 316.946 96.6665C317.647 96.6647 314.508 102.973 315.385 102.971C316.262 102.969 319.602 92.4405 321.274 93.4983C322.946 94.5561 319.332 100.441 320.175 100.722C321.017 101.003 326.31 93.139 327.847 94.2608C329.385 95.3827 321.896 104.626 324.273 104.62C326.649 104.614 330.684 94.3883 332.643 94.5251C334.603 94.6618 328.747 103.639 330.29 103.777C331.832 103.914 334.883 93.6842 336.561 94.2393C338.239 94.7944 334.204 101.948 335.322 102.363C336.441 102.777 338.799 95.2107 340.758 95.3475C342.718 95.4842 337.141 102.641 339.518 102.911C341.895 103.182 342.716 94.925 345.094 95.1952C347.471 95.4654 342.106 102.785 343.403 103.744C344.7 104.704 346.69 100.09 346.69 100.09" stroke="#5CCD6A" stroke-linecap="round" stroke-linejoin="round"/>
<path d="M272.408 111.197L275.665 109.773C275.637 110.847 275.419 111.907 275.022 112.904C275.493 112.796 275.921 112.549 276.25 112.194C276.58 111.84 276.796 111.395 276.87 110.917L276.512 112.065L279.561 112.058C279.511 111.891 279.518 111.712 279.58 111.549C279.643 111.387 279.757 111.249 279.905 111.158C279.58 111.449 279.78 112.043 280.169 112.24C280.585 112.392 281.041 112.391 281.457 112.237C282.531 111.966 283.564 111.554 284.53 111.012C284.453 111.363 284.503 111.731 284.67 112.049C284.838 112.368 285.113 112.616 285.447 112.751C286.109 113.005 286.823 113.096 287.527 113.015L296.672 112.702" stroke="#495E4C" stroke-linecap="round" stroke-linejoin="round"/>
<path d="M271.631 117.578C271.631 117.578 272.886 115.947 274.011 116.156C275.136 116.366 274.434 118.159 274.852 118.441C275.27 118.723 275.967 114.707 276.664 116.15C277.105 117.036 278.494 118.446 278.494 118.446C278.494 118.446 280.025 116.821 280.443 117.131C280.861 117.442 281.702 117.128 281.702 117.128L294.716 117.096" stroke="#495E4C" stroke-linecap="round" stroke-linejoin="round"/>
<path d="M312.671 109.71C312.671 109.71 302.238 144.093 390.26 140.152" stroke="#495E4C" stroke-linecap="round" stroke-linejoin="round"/>
<path d="M390.254 137.688L392.496 140.429L390.265 141.83" stroke="#495E4C" stroke-linecap="round" stroke-linejoin="round"/>
<path d="M337.653 141.4C330.374 138.055 317.188 140.36 307.415 146.544C297.641 152.727 295.675 172.901 331.513 166.929C367.351 160.958 344.635 144.462 332.08 144.493" fill="white"/>
<path d="M337.653 141.4C330.374 138.055 317.188 140.36 307.415 146.544C297.641 152.727 295.675 172.901 331.513 166.929C367.351 160.958 344.635 144.462 332.08 144.493" stroke="#92E3A9" stroke-linecap="round" stroke-linejoin="round"/>
<path d="M309.247 152.394C309.247 152.394 311.435 150.399 312.382 150.262C313.33 150.126 310.597 152.1 312.387 152.386C314.178 152.672 313.8 151.675 315.539 151.309C317.278 150.944 317.821 152.89 317.821 152.89C317.821 152.89 320.648 151.927 322.294 151.463C323.941 150.998 322.859 153.698 325.127 152.872C327.395 152.045 326.367 150.787 329.94 151.444C333.514 152.1 340.444 151.658 343.556 151.41" stroke="#92E3A9" stroke-linecap="round" stroke-linejoin="round"/>
<path d="M312.438 158.326C313.141 156.611 312.263 156.28 314.224 157.146C316.185 158.012 317.306 159.184 318.145 158.312C318.489 157.921 318.946 157.646 319.452 157.526C319.959 157.405 320.49 157.445 320.973 157.639C321.808 157.991 319.851 158.555 321.808 157.991C322.945 157.678 323.997 157.114 324.888 156.341C324.888 156.341 324.396 157.532 326.464 158.595C328.532 159.659 329.998 157.454 329.998 157.454C333.15 157.326 336.307 157.368 339.454 157.579" stroke="#92E3A9" stroke-linecap="round" stroke-linejoin="round"/>
<path d="M331.985 255.61L339.448 247.387L339.442 245.263L345.144 240.025C345.144 240.025 352.124 242.421 355.47 250.915L349.428 256.042L347.116 256.345L338.198 262.738C338.198 262.738 331.997 260.601 331.985 255.61Z" fill="#495E4C"/>
<path opacity="0.3" d="M345.375 241.61C345.375 241.61 347.947 249.207 354.543 250.741" stroke="white" stroke-width="0.6" stroke-linecap="round" stroke-linejoin="round"/>
<path opacity="0.3" d="M340.636 247.504C340.636 247.504 342.971 253.622 347.906 255.571" stroke="white" stroke-width="0.6" stroke-linecap="round" stroke-linejoin="round"/>
<path opacity="0.2" d="M427.482 20.9118L430.451 17.4992L437.368 17.4821C439.234 17.063 441.001 16.2896 442.576 15.2038C442.576 15.2038 439.938 12.5272 436.762 12.443L430.792 12.4578L414.842 9.60167L326.053 17.7571C325.439 19.5605 325.266 21.4848 325.549 23.3688C325.832 25.2528 326.562 27.0414 327.678 28.5847L427.482 20.9118Z" fill="black" fill-opacity="0.7"/>
<path opacity="0.2" d="M467.448 28.2393L469.841 26.1874L477.578 26.0834C478.069 23.5768 478.12 21.0039 477.729 18.4798L456.556 11.1837C451.133 14.5881 453.373 28.2741 453.373 28.2741L467.448 28.2393Z" fill="black" fill-opacity="0.7"/>
<path d="M436.361 4.55776C436.361 4.55776 440.08 4.08133 442.206 5.80345C442.206 5.80345 441.936 7.99872 436.342 8.5718L436.361 4.55776Z" fill="#5CCD6A" stroke="#495E4C" stroke-width="0.5" stroke-linecap="round" stroke-linejoin="round"/>
<path d="M429.469 3.5906L424.63 0.30351L325.931 8.49758C321.612 15.5311 327.04 22.491 327.04 22.491L426.361 13.9697L429.84 10.5417L436.726 9.34246C437.149 8.47647 437.359 7.52233 437.341 6.5587C437.394 5.50372 437.063 4.4654 436.408 3.63718L429.469 3.5906Z" fill="#495E4C"/>
<path d="M358.526 6.72496L402.539 3.00576C402.63 3.21299 402.669 3.43885 402.654 3.66446C402.639 3.89007 402.571 4.10886 402.454 4.30253C402.338 4.4962 402.177 4.65912 401.984 4.77765C401.792 4.89618 401.574 4.96689 401.349 4.98385L360.087 8.62545C359.89 8.64579 359.69 8.62439 359.502 8.56264C359.314 8.5009 359.14 8.40018 358.993 8.26704C358.846 8.13389 358.729 7.97129 358.648 7.78978C358.568 7.60827 358.527 7.4119 358.527 7.21343L358.526 6.72496Z" fill="#92E3A9"/>
<path opacity="0.3" d="M424.549 1.83289C424.549 1.83289 427.733 5.3647 425.508 12.4496" stroke="white" stroke-width="0.6" stroke-linecap="round" stroke-linejoin="round"/>
<path opacity="0.3" d="M429.853 4.53833C430.413 5.96427 430.562 7.51923 430.281 9.02559" stroke="white" stroke-width="0.6" stroke-linecap="round" stroke-linejoin="round"/>
<path opacity="0.3" d="M326.684 9.81946C326.684 9.81946 330.051 12.7562 327.829 21.1436" stroke="white" stroke-width="0.6" stroke-linecap="round" stroke-linejoin="round"/>
<path opacity="0.3" d="M328.571 9.25564C328.571 9.25564 329.632 9.39461 330.07 14.7173L424.558 5.71242C424.336 4.01464 423.663 2.40763 422.609 1.05893L328.571 9.25564Z" fill="white"/>
<path opacity="0.3" d="M430.772 4.18201C431.252 4.95574 431.514 5.84591 431.528 6.75703L436.746 6.23442C436.65 5.51278 436.428 4.81363 436.09 4.16887L430.772 4.18201Z" fill="white"/>
<path d="M475.724 22.6331L464.959 19.9341L463.073 20.9441L455.775 18.364C455.775 18.364 454.59 11.0751 460.486 4.10865L467.856 7.0213L469.218 8.92229L479.048 13.7757C479.048 13.7757 480.11 20.2648 475.724 22.6331Z" fill="#5CCD6A"/>
<path d="M475.724 22.6331L464.959 19.9341L463.073 20.9441L455.775 18.364C455.775 18.364 454.59 11.0751 460.486 4.10865L467.856 7.0213L469.218 8.92229L479.048 13.7757C479.048 13.7757 480.11 20.2648 475.724 22.6331Z" stroke="#495E4C" stroke-width="0.6" stroke-linecap="round" stroke-linejoin="round"/>
<path d="M457.088 17.4334C457.088 17.4334 462.569 11.5723 460.806 5.0353" stroke="#495E4C" stroke-width="0.6" stroke-linecap="round" stroke-linejoin="round"/>
<path d="M464.497 18.8309C464.497 18.8309 468.785 13.8648 468.171 8.60634" stroke="#495E4C" stroke-width="0.6" stroke-linecap="round" stroke-linejoin="round"/>
<path d="M482.772 273.619C482.772 273.619 477.033 223.178 473.13 212.484C469.228 201.789 463.949 166.291 463.949 166.291C463.949 166.291 475.857 165.306 479.464 165.262C483.072 165.218 487.724 161.751 487.724 161.751C487.33 162.46 486.43 162.031 485.755 157.7C485.302 154.798 480.893 153.931 480.893 153.931C480.893 153.931 470.321 154.75 461.399 153.569C459.239 154.255 456.921 154.261 454.758 153.585C451.508 152.411 450.847 151.145 452.625 149.421C452.625 149.421 450.092 146.128 458.71 141.406C458.71 141.406 452.961 136.259 455.753 132.918C458.546 129.576 465.137 126.218 465.137 126.218C465.137 126.218 465.406 123.697 466.621 123.043C467.836 122.389 474.45 119.661 478.079 117.132C481.709 114.603 483.294 114.783 490.012 114.582C496.731 114.381 504.932 112.676 508.012 114.07C510.406 115.155 511.527 119.421 511.527 119.421C513.763 120.123 513.999 123.783 514.143 124.681C514.81 128.694 519.47 145.319 521.528 148.203C523.587 151.086 524.809 156.131 524.447 158.751C524.086 161.371 523.153 164.418 522.232 169.772C521.312 175.126 518.189 193.583 516.646 198.911C515.103 204.238 514.256 213.479 515.102 217.958L536.822 261.054" fill="white"/>
<path opacity="0.4" d="M509.532 136.848C509.532 136.848 505.076 139.556 505.08 141.269C505.08 141.269 496.608 147.754 495.651 155.366C495.651 155.366 490.959 160.15 489.932 162.318C488.905 164.487 484.427 167.04 484.427 167.04C483.159 166.923 481.886 166.879 480.614 166.908C478.461 166.588 476.333 166.12 474.245 165.507C476.367 165.368 478.318 165.257 479.443 165.247C482.435 165.239 486.142 162.823 487.321 162.006C486.869 162.007 486.236 160.919 485.733 157.678C485.281 154.783 480.872 153.909 480.872 153.909C480.872 153.909 470.3 154.728 461.378 153.554C459.918 154.01 458.383 154.173 456.86 154.032C456.893 153.471 456.814 152.909 456.628 152.378C456.442 151.847 456.153 151.359 455.777 150.941C455.777 150.941 459.865 148.206 458.792 146.106C458.28 145.102 456.447 144.483 454.657 144.112C455.896 143.059 457.249 142.147 458.689 141.391C458.689 141.391 452.94 136.244 455.732 132.903C458.525 129.562 465.137 126.218 465.137 126.218C465.137 126.218 465.407 123.704 466.622 123.043C466.622 123.043 465.924 126.931 471.291 126.571C476.659 126.211 484.382 122.999 484.382 122.999C484.382 122.999 498.953 123.367 501.904 121.115C501.904 121.115 505.448 124.129 508.038 124.64C510.628 125.15 509.532 136.848 509.532 136.848Z" fill="#92E3A9"/>
<path opacity="0.4" d="M524.434 158.772C524.065 161.385 523.139 164.439 522.219 169.793C521.298 175.148 518.175 193.612 516.632 198.932C515.089 204.253 514.242 213.5 515.088 217.98L517.08 222.704C512.768 215.097 513.083 205.1 513.423 202.473C513.832 199.25 516.214 187.337 518.321 181.173C520.428 175.008 520.587 162.123 520.586 161.677C520.585 161.231 519.475 164.512 518.346 168.146C517.216 171.781 513.061 182.028 513.061 182.028C512.914 179.904 514.631 167.476 514.945 166.059C515.26 164.642 517.797 155.114 518.25 152.423C518.703 149.732 516.567 146.763 516.031 144.641C515.495 142.518 513.378 133.051 512.804 126.532C512.573 122.989 511.684 119.519 510.182 116.302C510.767 117.301 511.221 118.37 511.534 119.484C513.771 120.187 514.006 123.839 514.15 124.738C514.818 128.75 519.478 145.376 521.536 148.266C523.594 151.157 524.795 156.159 524.434 158.772Z" fill="#92E3A9"/>
<path opacity="0.4" d="M483.351 275.359C481.008 257.27 476.325 222.84 473.402 213.403C475.409 215.833 477.697 219.764 479.314 227.342C482.57 242.598 483.57 249.313 483.721 256.315C483.86 260.789 483.781 269.036 483.351 275.359Z" fill="#92E3A9"/>
<path d="M482.772 273.619C482.772 273.619 477.033 223.178 473.13 212.484C469.228 201.789 463.949 166.291 463.949 166.291C463.949 166.291 475.857 165.306 479.464 165.262C483.072 165.218 487.724 161.751 487.724 161.751C487.33 162.46 486.43 162.031 485.755 157.7C485.302 154.798 480.893 153.931 480.893 153.931C480.893 153.931 470.321 154.75 461.399 153.569C459.239 154.255 456.921 154.261 454.758 153.585C451.508 152.411 450.847 151.145 452.625 149.421C452.625 149.421 450.092 146.128 458.71 141.406C458.71 141.406 452.961 136.259 455.753 132.918C458.546 129.576 465.137 126.218 465.137 126.218C465.137 126.218 465.406 123.697 466.621 123.043C467.836 122.389 474.45 119.661 478.079 117.132C481.709 114.603 483.294 114.783 490.012 114.582C496.731 114.381 504.932 112.676 508.012 114.07C510.406 115.155 511.527 119.421 511.527 119.421C513.763 120.123 513.999 123.783 514.143 124.681C514.81 128.694 519.47 145.319 521.528 148.203C523.587 151.086 524.809 156.131 524.447 158.751C524.086 161.371 523.153 164.418 522.232 169.772C521.312 175.126 518.189 193.583 516.646 198.911C515.103 204.238 514.256 213.479 515.102 217.958L536.822 261.054" stroke="#495E4C" stroke-width="0.6" stroke-linecap="round" stroke-linejoin="round"/>
<path d="M452.59 149.42C452.59 149.42 454.457 151.943 460.89 150.894C467.324 149.844 475.018 143.39 475.018 143.39L479.632 141.425C479.632 141.425 485.511 142.061 487.651 141.03" stroke="#495E4C" stroke-width="0.6" stroke-linecap="round" stroke-linejoin="round"/>
<path d="M484.365 141.597C484.365 141.597 488.208 145.694 491.287 146.621" stroke="#495E4C" stroke-width="0.6" stroke-linecap="round" stroke-linejoin="round"/>
<path d="M487.689 161.751C490.295 160.067 493.735 155.365 496.903 155.01" stroke="#495E4C" stroke-width="0.5" stroke-linecap="round" stroke-linejoin="round"/>
<path d="M487.137 156.06C488.54 151.377 492.773 146.617 492.773 146.617C493.467 145.056 494.34 143.581 495.372 142.221C496.42 140.664 498.016 139.561 499.841 139.13C499.841 139.13 496.109 128.641 497.2 126.529" stroke="#495E4C" stroke-width="0.6" stroke-linecap="round" stroke-linejoin="round"/>
<path d="M480.858 153.931C480.858 153.931 483.735 153.011 484.388 151.091" stroke="#495E4C" stroke-width="0.6" stroke-linecap="round" stroke-linejoin="round"/>
<path d="M480.198 150.011C480.198 150.011 480.028 152.999 475.546 153.944" stroke="#495E4C" stroke-width="0.6" stroke-linecap="round" stroke-linejoin="round"/>
<path d="M479.618 141.425C479.618 141.425 481.842 139.933 482.588 138.43" stroke="#495E4C" stroke-width="0.6" stroke-linecap="round" stroke-linejoin="round"/>
<path d="M465.137 126.218C465.137 126.218 464.343 128.464 467.684 129.384C471.025 130.303 479.977 129.261 483.696 126.172C483.696 126.172 484.609 123.558 484.329 121.881" stroke="#495E4C" stroke-width="0.6" stroke-linecap="round" stroke-linejoin="round"/>
<path d="M483.196 126.563C483.196 126.563 494.136 126.147 494.971 126.145C495.806 126.143 499.161 124.364 499.807 122.494" stroke="#495E4C" stroke-width="0.6" stroke-linecap="round" stroke-linejoin="round"/>
<path d="M499.827 139.131C499.827 139.131 502.291 139.974 503.994 139.602" stroke="#495E4C" stroke-width="0.6" stroke-linecap="round" stroke-linejoin="round"/>
<path d="M494.416 156.043C494.416 156.043 494.009 151.902 496.881 146.033" stroke="#495E4C" stroke-width="0.6" stroke-linecap="round" stroke-linejoin="round"/>
<path d="M511.513 119.442C513.012 125.215 515.344 144.21 516.895 147.803C518.445 151.395 518.632 152.62 517.523 155.985C516.414 159.35 514.63 167.475 514.63 167.475" stroke="#495E4C" stroke-width="0.6" stroke-linecap="round" stroke-linejoin="round"/>
<path d="M515.059 217.98C513.84 214.153 513.085 209.114 513.539 206.784" stroke="#495E4C" stroke-width="0.6" stroke-linecap="round" stroke-linejoin="round"/>
<path d="M443.944 136.848C443.944 136.848 440.848 137.436 439.805 139.116C439.805 139.116 440.721 140.53 444.461 140.138C448.202 139.747 443.944 136.848 443.944 136.848Z" fill="#495E4C"/>
<path d="M454.971 130.966L542.425 117.759L543.581 133.38L455.741 142.319L451.634 140.482L444.915 140.668C444.289 140.104 443.879 139.338 443.757 138.503C443.635 137.668 443.808 136.817 444.246 136.096L451.16 134.593L454.971 130.966Z" fill="#5CCD6A"/>
<path d="M470.017 131.749L506.076 126.535C506.44 126.484 506.809 126.506 507.164 126.601C507.518 126.696 507.849 126.861 508.138 127.087C508.427 127.313 508.668 127.595 508.846 127.916C509.024 128.237 509.135 128.59 509.173 128.956L509.246 129.663C509.321 130.373 509.115 131.083 508.672 131.642C508.229 132.201 507.584 132.562 506.877 132.65L470.752 137.135C470.392 137.179 470.027 137.151 469.678 137.052C469.329 136.953 469.003 136.785 468.72 136.558C468.437 136.331 468.202 136.05 468.028 135.731C467.855 135.412 467.748 135.061 467.712 134.7C467.646 134.007 467.849 133.314 468.278 132.766C468.706 132.217 469.329 131.853 470.017 131.749Z" fill="#495E4C"/>
<path opacity="0.3" d="M543.581 133.38L455.741 142.326L451.634 140.481L444.915 140.668C444.556 140.346 444.266 139.954 444.064 139.516L451.136 139.258L454.249 139.533L466.476 138.477L470.038 131.749C470.038 131.749 473.178 131.345 475.704 134.532C478.23 137.718 479.629 137.304 479.629 137.304L539.798 130.855L540.504 130.145C540.504 130.145 538.064 124.643 540.479 120.142C541.084 119.015 541.783 118.56 542.491 118.565L543.581 133.38Z" fill="black" fill-opacity="0.7"/>
<path d="M454.971 130.966L542.425 117.759L543.581 133.38L455.741 142.319L451.634 140.482L444.915 140.668C444.289 140.104 443.879 139.338 443.757 138.503C443.635 137.668 443.808 136.817 444.246 136.096L451.16 134.593L454.971 130.966Z" stroke="#495E4C" stroke-width="0.6" stroke-linecap="round" stroke-linejoin="round"/>
<path d="M542.425 117.759C548.485 117.262 549.825 132.741 543.581 133.38C537.606 133.989 536.273 118.255 542.425 117.759Z" fill="#5CCD6A"/>
<path opacity="0.3" d="M543.581 133.38C541.948 133.547 540.658 132.488 539.777 130.855L540.482 130.145C540.482 130.145 538.043 124.643 540.458 120.142C541.063 119.015 541.762 118.56 542.47 118.566C544.591 118.56 546.766 122.661 546.679 124.877L547.6 125.101C547.942 128.987 546.721 133.096 543.581 133.38Z" fill="black" fill-opacity="0.7"/>
<path d="M542.425 117.759C548.485 117.262 549.825 132.741 543.581 133.38C537.606 133.989 536.273 118.255 542.425 117.759Z" stroke="#495E4C" stroke-width="0.6" stroke-linecap="round" stroke-linejoin="round"/>
<path d="M454.971 130.966C454.971 130.966 453.243 133.15 453.72 137.283C453.886 139.124 454.588 140.875 455.741 142.319" stroke="#495E4C" stroke-width="0.6" stroke-linecap="round" stroke-linejoin="round"/>
<path d="M451.16 134.593C450.845 135.557 450.725 136.574 450.807 137.585C450.888 138.596 451.169 139.58 451.634 140.481" stroke="#495E4C" stroke-width="0.6" stroke-linecap="round" stroke-linejoin="round"/>
<path d="M539.749 133.772C533.766 134.381 532.576 119.333 538.664 118.327" stroke="#495E4C" stroke-width="0.6" stroke-linecap="round" stroke-linejoin="round"/>
<path d="M542.548 118.735C547.342 118.306 548.408 131.69 543.465 132.233C538.714 132.762 537.683 119.172 542.548 118.735Z" stroke="#495E4C" stroke-width="0.6" stroke-linecap="round" stroke-linejoin="round"/>
<path d="M542.564 119.691C542.564 119.691 545.07 120.612 545.527 125.163C545.984 129.714 543.42 131.122 543.42 131.122" stroke="#495E4C" stroke-width="0.6" stroke-linecap="round" stroke-linejoin="round"/>
<path d="M487.702 166.891C487.702 166.891 481.337 167.275 480.629 166.908C479.92 166.542 475.941 159.076 475.751 156.747C475.562 154.419 475.168 146.944 474.966 142.272C474.763 137.6 474.76 130.322 465.993 131.894C462.076 132.612 461.427 136.316 460.147 144.652C458.866 152.987 460.081 155.2 459.173 165.843C458.266 176.486 459.394 180.709 461.649 186.063C463.905 191.416 464.766 205.042 470.748 210.068C476.73 215.094 479.095 224.794 479.095 224.794" fill="white"/>
<path opacity="0.4" d="M472.032 140.148C470.428 140.541 464.254 140.875 463.856 142.936C463.458 144.997 467.124 145.958 468.649 147.802C468.593 147.802 462.283 147.818 460.876 150.901C459.469 153.984 462.067 160.59 462.076 164.229C462.085 167.867 458.935 175.16 461.37 178.934C463.5 182.228 465.485 189.82 464.477 197.036C463.399 192.72 462.653 188.545 461.621 186.063C459.38 180.745 458.252 176.5 459.159 165.878C460.067 155.257 458.845 153.016 460.133 144.68C461.051 138.695 461.644 135.091 463.365 133.274C465.38 132.83 467.657 132.654 469.024 133.628C471.951 135.638 473.658 139.747 472.032 140.148Z" fill="#92E3A9"/>
<path d="M487.702 166.891C487.702 166.891 481.337 167.275 480.629 166.908C479.92 166.542 475.941 159.076 475.751 156.747C475.562 154.419 475.168 146.944 474.966 142.272C474.763 137.6 474.76 130.322 465.993 131.894C462.076 132.612 461.427 136.316 460.147 144.652C458.866 152.987 460.081 155.2 459.173 165.843C458.266 176.486 459.394 180.709 461.649 186.063C463.905 191.416 464.766 205.042 470.748 210.068C476.73 215.094 479.095 224.794 479.095 224.794" stroke="#495E4C" stroke-width="0.6" stroke-linecap="round" stroke-linejoin="round"/>
<path d="M475.737 156.747C475.737 156.747 475.136 156.557 474.773 152.92C474.656 151.849 474.282 150.824 473.682 149.93C473.082 149.037 472.275 148.302 471.33 147.788" stroke="#495E4C" stroke-width="0.6" stroke-linecap="round" stroke-linejoin="round"/>
<path d="M463.125 147.809C463.125 147.809 460.524 148.374 459.5 152.023" stroke="#495E4C" stroke-width="0.6" stroke-linecap="round" stroke-linejoin="round"/>
<path d="M282.588 72.7719C282.385 72.7728 282.228 72.6779 282.118 72.487C282.008 72.2922 281.951 71.9155 281.949 71.3569C281.944 70.3959 282.161 68.3285 282.6 65.1546C282.626 65.0177 282.577 64.9359 282.452 64.9092C282.327 64.8785 281.815 64.8652 280.917 64.8694C279.69 64.8751 278.987 64.9506 278.808 65.0959C278.629 65.2413 278.492 65.8943 278.396 67.0549C278.359 67.516 278.249 68.2646 278.066 69.3006C277.845 70.5438 277.736 71.4291 277.739 71.9564L277.764 72.3255C277.765 72.677 277.598 72.8536 277.262 72.8551C276.86 72.857 276.658 72.606 276.655 72.1021C276.653 71.6997 276.685 71.3441 276.75 71.0352C276.857 70.5113 276.946 70.007 277.018 69.5223C277.064 69.2173 277.117 68.887 277.178 68.5313C277.421 67.1161 277.542 66.1077 277.539 65.5061C277.538 65.303 277.444 65.1921 277.256 65.1734C276.885 65.1322 276.699 64.9807 276.697 64.719C276.696 64.5432 276.741 64.4004 276.83 64.2906C276.923 64.1808 277.044 64.1217 277.193 64.1132C277.567 64.0958 277.841 64.034 278.012 63.9277C278.168 63.8489 278.285 63.8093 278.363 63.8089C278.523 63.8082 278.662 63.8427 278.78 63.9125C278.909 63.99 279.284 64.0273 279.905 64.0245C279.913 64.0244 280.327 64.0108 281.147 63.9836C281.971 63.9563 282.422 63.9347 282.5 63.9187C282.578 63.9027 282.674 63.871 282.787 63.8236C282.97 63.7446 283.12 63.7049 283.238 63.7043L283.707 63.7725L284.228 63.7349C284.544 63.7335 284.703 63.8714 284.705 64.1487C284.705 64.3284 284.647 64.481 284.531 64.6066C284.414 64.7282 284.282 64.7933 284.133 64.8018C284.028 64.8101 283.936 64.8496 283.858 64.9202C283.781 64.987 283.679 65.2844 283.552 65.8123C283.426 66.3402 283.303 67.2646 283.184 68.5855C283.069 69.9064 283.014 71.0941 283.019 72.1488L283.02 72.3597C283.02 72.4418 282.97 72.526 282.869 72.6124C282.768 72.7027 282.674 72.7559 282.588 72.7719Z" fill="#495E4C"/>
<path d="M289.923 68.6363C289.965 68.5541 290.031 68.0636 290.121 67.1647C290.188 66.4456 290.415 66.0852 290.801 66.0834C291.118 66.082 291.277 66.2394 291.278 66.5558C291.279 66.6301 291.252 66.7806 291.198 67.0074C290.903 68.2549 290.758 69.3005 290.762 70.1442C290.766 71.0583 290.919 71.6493 291.221 71.9175C291.378 72.0613 291.457 72.1781 291.457 72.268C291.458 72.3773 291.378 72.4773 291.218 72.5679C291.062 72.6585 290.92 72.704 290.791 72.7046C290.182 72.7075 289.873 71.7675 289.864 69.8847C289.863 69.7597 289.816 69.6974 289.722 69.6978C289.355 69.6995 288.906 69.7231 288.375 69.7685C287.844 69.8139 287.463 69.8704 287.233 69.9379C287.007 70.0053 286.867 70.0685 286.812 70.1273C286.762 70.1822 286.716 70.3328 286.674 70.5791C286.636 70.8215 286.617 71.0735 286.619 71.3353L286.622 72.056C286.624 72.4739 286.433 72.6838 286.051 72.6856C285.73 72.687 285.569 72.4788 285.567 72.0608C285.566 71.7874 285.6 71.4396 285.668 71.0174C285.793 70.2434 285.916 68.9108 286.036 67.0196C286.051 66.7734 286.071 66.617 286.098 66.5505C286.125 66.484 286.195 66.4114 286.308 66.3327C286.425 66.2502 286.552 66.2086 286.689 66.2079C286.97 66.2066 287.111 66.3212 287.112 66.5517C287.112 66.5868 287.069 66.88 286.981 67.4312C286.89 67.9824 286.845 68.4104 286.847 68.715C286.848 68.9299 286.922 69.037 287.071 69.0363C287.368 69.0349 287.911 68.9836 288.699 68.8822C289.488 68.777 289.896 68.6951 289.923 68.6363Z" fill="#495E4C"/>
<path d="M312.608 66.9589C312.608 67.0175 312.765 67.1183 313.078 67.2614C313.427 67.4238 313.683 67.5789 313.848 67.7266C314.017 67.8703 314.154 68.065 314.261 68.3106C314.371 68.5523 314.428 68.8431 314.429 69.1829C314.431 69.4954 314.222 69.9222 313.802 70.4632C313.387 71.0002 312.846 71.452 312.18 71.8183C311.517 72.1808 310.825 72.3637 310.102 72.367C309.965 72.3677 309.774 72.3275 309.527 72.2466C309.285 72.1657 309.163 72.0803 309.163 71.9905C309.16 71.4983 309.507 71.2506 310.202 71.2474C310.417 71.2503 310.628 71.2474 310.835 71.2386C311.042 71.2259 311.305 71.1564 311.625 71.0299C311.949 70.8995 312.253 70.7184 312.537 70.4866C312.821 70.2548 313.025 70.0293 313.149 69.8099C313.273 69.5867 313.334 69.3735 313.333 69.1704C313.332 68.811 313.18 68.4934 312.878 68.2174C312.576 67.9415 312.165 67.8047 311.645 67.8071C311.567 67.8075 311.382 67.8708 311.09 67.9972C310.797 68.1274 310.606 68.1928 310.516 68.1932C310.212 68.1946 310.02 68.1564 309.942 68.0787C309.867 68.0009 309.829 67.8624 309.828 67.6632C309.828 67.5264 310.155 67.3277 310.81 67.0668C311.453 66.8099 312.032 66.4186 312.545 65.8928C313.062 65.3669 313.32 64.9478 313.318 64.6353C313.317 64.4243 313.207 64.2393 312.987 64.0801C312.772 63.9171 312.477 63.8364 312.102 63.8381C311.617 63.8404 311.055 63.9094 310.415 64.0452C309.775 64.177 309.424 64.3056 309.362 64.4309C309.304 64.5562 309.144 65.5081 308.883 67.2867C308.622 69.0613 308.492 70.0873 308.493 70.3647C308.494 70.5131 308.502 70.6557 308.519 70.7923C308.531 70.9329 308.537 71.0657 308.538 71.1907C308.54 71.7258 308.282 71.9946 307.762 71.997C307.618 71.9977 307.498 71.8947 307.403 71.6881C307.309 71.4815 307.261 71.2923 307.26 71.1204C307.26 71.0462 307.323 70.7471 307.449 70.223C307.602 69.5114 307.754 68.538 307.905 67.3029C308.055 66.0639 308.13 65.4034 308.13 65.3214C308.129 65.1573 308.105 65.0363 308.058 64.9584C308.015 64.8805 307.913 64.8419 307.753 64.8427C307.69 64.8429 307.628 64.8452 307.565 64.8494C307.507 64.8536 307.446 64.8167 307.383 64.7389C307.324 64.661 307.294 64.5674 307.294 64.4581C307.292 64.1495 307.803 63.819 308.824 63.4666C309.846 63.1103 311.066 62.9289 312.484 62.9223C313.004 62.9199 313.465 63.0935 313.869 63.4432C314.277 63.7929 314.482 64.1533 314.484 64.5244C314.485 64.79 314.309 65.1678 313.956 65.6577C313.606 66.1437 313.157 66.5774 312.608 66.9589Z" fill="#495E4C"/>
<path d="M320.403 67.2509C320.039 67.2604 319.267 68.3402 318.086 70.4902C317.687 71.2147 317.454 71.6103 317.388 71.677C317.322 71.7399 317.199 71.7971 317.02 71.8487C316.844 71.9003 316.698 71.9263 316.58 71.9269C316.319 71.9281 316.186 71.4189 316.181 70.3994C316.178 69.8252 316.296 68.7856 316.536 67.2806C316.634 66.6707 316.683 66.2349 316.682 65.9732C316.681 65.7154 316.795 65.586 317.026 65.5849C317.459 65.5829 317.678 65.8944 317.68 66.5194C317.682 66.8124 317.612 67.3869 317.472 68.243C317.308 69.2204 317.225 69.8145 317.222 70.0255C317.463 69.79 317.816 69.2746 318.281 68.4795C318.94 67.3905 319.425 66.7008 319.737 66.4103C320.052 66.1158 320.377 65.9678 320.713 65.9663C320.967 65.9651 321.169 66.1341 321.319 66.4733C321.473 66.8124 321.568 67.6225 321.606 68.9036C321.615 69.2239 321.645 69.462 321.697 69.618C321.748 69.774 321.786 69.852 321.809 69.8519C321.993 69.851 322.388 69.2242 322.996 67.9714C323.321 67.3097 323.637 66.8063 323.944 66.4611C324.255 66.1159 324.6 65.9424 324.979 65.9407C325.295 65.9392 325.526 66.1022 325.672 66.4297C325.818 66.7532 325.924 67.2352 325.99 67.8755C326.051 68.5236 326.144 69.117 326.267 69.6555C326.395 70.1939 326.623 70.5386 326.952 70.6894C327.175 70.7939 327.287 70.9164 327.288 71.057C327.288 71.1937 327.195 71.3348 327.008 71.4802C326.821 71.6256 326.65 71.6986 326.494 71.6994C326.181 71.7008 325.901 71.5107 325.653 71.129C325.405 70.7474 325.216 69.9201 325.085 68.6473C325.028 68.1358 324.973 67.7728 324.922 67.5582C324.87 67.3435 324.789 67.2365 324.68 67.237C324.516 67.2378 324.321 67.3949 324.096 67.7085C323.875 68.022 323.517 68.6584 323.021 69.6178C322.634 70.3656 322.339 70.8651 322.137 71.116C321.939 71.363 321.746 71.487 321.559 71.4878C321.391 71.4886 321.24 71.4229 321.107 71.2907C320.973 71.1546 320.889 70.9929 320.853 70.8055C320.817 70.6143 320.777 70.1477 320.735 69.4057C320.671 68.1716 320.56 67.4533 320.403 67.2509Z" fill="#495E4C"/>
<path d="M350.37 69.3797C350.522 69.379 350.599 69.4724 350.6 69.6599C350.601 69.8552 350.385 70.1355 349.953 70.5007C349.521 70.866 349.021 71.1574 348.451 71.3749C347.886 71.5924 347.367 71.7022 346.894 71.7044C346.203 71.7076 345.571 71.482 344.999 71.0276C344.43 70.5732 344.144 69.9124 344.14 69.0452C344.132 67.4632 344.805 65.921 346.157 64.4186C347.514 62.9123 348.823 62.1563 350.085 62.1504C350.557 62.1483 350.935 62.293 351.217 62.5847C351.504 62.8724 351.648 63.2096 351.65 63.5963C351.651 63.9557 351.631 64.239 351.589 64.4462C351.551 64.6534 351.429 64.8298 351.223 64.9753C351.016 65.1169 350.851 65.1879 350.726 65.1885C350.636 65.1889 350.557 65.1502 350.491 65.0724C350.424 64.9946 350.39 64.8893 350.39 64.7565C350.389 64.6666 350.421 64.479 350.487 64.1935C350.552 63.912 350.584 63.7028 350.583 63.5661C350.581 63.1677 350.407 62.9693 350.059 62.9709C349.52 62.9734 348.853 63.287 348.059 63.9118C347.269 64.5326 346.599 65.3209 346.049 66.2766C345.499 67.2284 345.225 68.1046 345.229 68.9054C345.231 69.4406 345.392 69.8851 345.71 70.2391C346.032 70.5892 346.488 70.7629 347.077 70.7602C347.417 70.7586 347.829 70.6727 348.313 70.5025C348.8 70.3283 349.246 70.0978 349.651 69.8107C350.056 69.5237 350.296 69.38 350.37 69.3797Z" fill="#495E4C"/>
<path d="M353.656 70.4543C353.468 71.1583 353.293 72.1455 353.131 73.4158L352.972 74.5239C352.945 74.6803 352.874 74.8349 352.757 74.9878C352.641 75.1446 352.534 75.2232 352.436 75.2237C352.315 75.2242 352.176 75.1624 352.019 75.0381C351.866 74.9177 351.79 74.8204 351.789 74.7462C351.788 74.5314 351.836 74.2343 351.932 73.8549C352.633 70.9649 352.979 68.4281 352.969 66.2446L352.961 65.7524C352.951 65.3306 353.024 65.0236 353.179 64.8315C353.334 64.6393 353.514 64.5428 353.717 64.5419C353.81 64.5414 353.901 64.6152 353.987 64.7633C354.074 64.9074 354.118 65.1142 354.119 65.3838C354.121 65.7627 354.084 66.2218 354.008 66.7612C353.91 67.4414 353.859 67.8323 353.855 67.9338C354.433 66.9155 355.046 66.1197 355.696 65.5464C356.346 64.9731 356.95 64.6851 357.508 64.6825C357.903 64.6807 358.236 64.8276 358.507 65.1232C358.781 65.4149 358.92 65.7795 358.922 66.217C358.928 67.4904 358.445 68.6489 357.473 69.6925C356.501 70.7361 355.553 71.26 354.627 71.2643C354.396 71.2653 354.212 71.2076 354.075 71.0911C353.942 70.9745 353.802 70.7622 353.656 70.4543ZM357.273 65.7207C356.722 65.7233 356.043 66.242 355.235 67.277C354.428 68.312 354.025 69.1167 354.028 69.6909C354.028 69.8315 354.109 69.9678 354.27 70.0999C354.431 70.232 354.634 70.2974 354.88 70.2963C355.439 70.2937 356.079 69.8786 356.802 69.0511C357.525 68.2196 357.884 67.4054 357.881 66.6085C357.879 66.3234 357.82 66.1049 357.702 65.9531C357.588 65.7974 357.445 65.7199 357.273 65.7207Z" fill="#495E4C"/>
<path d="M379.467 63.357L379.451 63.6442C379.432 63.7225 379.329 64.2347 379.141 65.1808L379.107 65.3333C379.073 65.5835 378.986 66.5585 378.845 68.2584L378.7 69.8001C378.678 70.0541 378.662 70.4058 378.652 70.855C378.628 71.6364 378.586 72.078 378.523 72.1799C378.465 72.2817 378.366 72.374 378.226 72.4566C378.09 72.5432 377.959 72.5868 377.834 72.5874C377.693 72.588 377.584 72.5045 377.505 72.3369C377.426 72.1732 377.386 71.9703 377.385 71.7281C377.383 71.443 377.462 70.7844 377.622 69.7524C377.732 69.0448 377.802 68.2144 377.833 67.2611C377.813 67.1323 377.756 67.0642 377.662 67.0568C377.556 67.0573 377.223 67.2288 376.662 67.5712C376.012 67.9727 375.417 68.2508 374.879 68.4057C374.345 68.5566 373.919 68.6328 373.603 68.6342C373.087 68.6366 372.704 68.4743 372.452 68.1474C372.2 67.8165 372.072 67.1198 372.067 66.0573C372.065 65.5847 372.137 64.9828 372.282 64.2516C372.431 63.5166 372.616 63.0938 372.838 62.9834C373.064 62.873 373.234 62.8175 373.347 62.817C373.441 62.8166 373.525 62.867 373.6 62.9682C373.675 63.0694 373.712 63.2138 373.713 63.4013C373.713 63.4403 373.61 63.8295 373.402 64.5687C373.191 65.3119 373.086 65.8729 373.088 66.2518C373.091 66.8534 373.131 67.2341 373.21 67.3939C373.289 67.5497 373.526 67.6268 373.92 67.625C374.174 67.6238 374.539 67.544 375.015 67.3855C375.491 67.2271 375.964 67.0159 376.436 66.752C376.907 66.4881 377.269 66.2344 377.522 65.9911C377.775 65.7477 377.928 65.5771 377.983 65.4792C378.037 65.3774 378.081 65.133 378.114 64.7461C378.121 64.6328 378.131 64.5332 378.142 64.4472C378.18 64.1267 378.198 63.82 378.196 63.527C378.196 63.4059 378.275 63.259 378.435 63.0864C378.598 62.9138 378.744 62.8272 378.873 62.8266C379.017 62.8259 379.152 62.878 379.278 62.9829C379.403 63.0839 379.466 63.2086 379.467 63.357Z" fill="#495E4C"/>
<path d="M385.679 67.342C385.316 67.3515 384.543 68.4313 383.362 70.5813C382.963 71.3058 382.73 71.7014 382.664 71.7681C382.598 71.8309 382.475 71.8881 382.296 71.9398C382.12 71.9913 381.974 72.0174 381.857 72.018C381.595 72.0192 381.462 71.51 381.457 70.4905C381.454 69.9163 381.573 68.8767 381.812 67.3716C381.911 66.7618 381.959 66.326 381.958 66.0643C381.957 65.8065 382.072 65.6771 382.302 65.676C382.736 65.674 382.954 65.9855 382.957 66.6105C382.958 66.9034 382.888 67.478 382.748 68.3341C382.584 69.3114 382.501 69.9056 382.498 70.1165C382.739 69.881 383.093 69.3657 383.558 68.5706C384.217 67.4816 384.702 66.7918 385.013 66.5013C385.328 66.2069 385.653 66.0589 385.989 66.0574C386.243 66.0562 386.445 66.2252 386.595 66.5643C386.749 66.9035 386.845 67.7136 386.882 68.9947C386.891 69.3149 386.922 69.5531 386.973 69.7091C387.025 69.8651 387.062 69.9431 387.085 69.943C387.269 69.9421 387.665 69.3153 388.272 68.0624C388.597 67.4008 388.913 66.8974 389.22 66.5522C389.531 66.207 389.876 66.0335 390.255 66.0318C390.571 66.0303 390.803 66.1933 390.949 66.5207C391.095 66.8443 391.2 67.3262 391.266 67.9666C391.327 68.6147 391.42 69.208 391.544 69.7465C391.671 70.285 391.899 70.6297 392.228 70.7805C392.451 70.8849 392.563 71.0075 392.564 71.1481C392.564 71.2848 392.471 71.4259 392.284 71.5713C392.098 71.7167 391.926 71.7897 391.77 71.7904C391.457 71.7919 391.177 71.6018 390.929 71.2201C390.681 70.8384 390.492 70.0112 390.361 68.7383C390.304 68.2269 390.25 67.8638 390.198 67.6492C390.146 67.4346 390.066 67.3276 389.956 67.3281C389.792 67.3288 389.598 67.486 389.372 67.7995C389.151 68.1131 388.793 68.7495 388.297 69.7088C387.91 70.4567 387.616 70.9561 387.414 71.2071C387.216 71.4541 387.023 71.578 386.835 71.5789C386.667 71.5797 386.517 71.514 386.383 71.3818C386.25 71.2457 386.165 71.0839 386.129 70.8966C386.093 70.7054 386.054 70.2387 386.011 69.4967C385.947 68.2627 385.836 67.5444 385.679 67.342Z" fill="#495E4C"/>
<path d="M411.456 72.6495C411.253 72.6504 411.096 72.5554 410.986 72.3645C410.876 72.1697 410.819 71.793 410.817 71.2344C410.812 70.2735 411.029 68.2061 411.468 65.0321C411.494 64.8953 411.445 64.8135 411.32 64.7867C411.195 64.7561 410.683 64.7428 409.785 64.747C408.558 64.7526 407.855 64.8282 407.676 64.9735C407.497 65.1189 407.36 65.7719 407.263 66.9325C407.227 67.3936 407.117 68.1422 406.934 69.1782C406.713 70.4214 406.604 71.3067 406.606 71.834L406.632 72.203C406.633 72.5546 406.466 72.7312 406.13 72.7327C405.728 72.7346 405.525 72.4835 405.523 71.9796C405.521 71.5773 405.553 71.2217 405.618 70.9128C405.725 70.3889 405.814 69.8845 405.886 69.3998C405.932 69.0949 405.985 68.7646 406.046 68.4088C406.289 66.9936 406.409 65.9852 406.407 65.3837C406.406 65.1806 406.311 65.0697 406.124 65.051C405.753 65.0098 405.566 64.8583 405.565 64.5966C405.564 64.4208 405.609 64.278 405.698 64.1682C405.791 64.0584 405.912 63.9992 406.06 63.9907C406.435 63.9734 406.708 63.9116 406.88 63.8053C407.036 63.7265 407.153 63.6869 407.231 63.6865C407.391 63.6858 407.53 63.7203 407.647 63.79C407.777 63.8676 408.152 63.9049 408.773 63.902C408.781 63.902 409.195 63.8883 410.015 63.8611C410.839 63.8339 411.29 63.8122 411.368 63.7963C411.446 63.7803 411.542 63.7486 411.655 63.7012C411.838 63.6222 411.988 63.5824 412.105 63.5819L412.574 63.65L413.096 63.6125C413.412 63.611 413.571 63.749 413.572 64.0263C413.573 64.206 413.515 64.3586 413.399 64.4841C413.282 64.6058 413.15 64.6708 413.001 64.6793C412.896 64.6876 412.804 64.7271 412.726 64.7978C412.648 64.8646 412.546 65.1619 412.42 65.6898C412.293 66.2178 412.171 67.1422 412.052 68.4631C411.937 69.7839 411.882 70.9717 411.887 72.0264L411.888 72.2373C411.888 72.3193 411.838 72.4036 411.736 72.49C411.635 72.5803 411.542 72.6334 411.456 72.6495Z" fill="#495E4C"/>
<path d="M418.722 67.7056C418.359 67.7151 417.587 68.7949 416.405 70.9449C416.006 71.6694 415.774 72.065 415.708 72.1317C415.641 72.1945 415.519 72.2518 415.339 72.3034C415.164 72.355 415.017 72.381 414.9 72.3816C414.638 72.3828 414.505 71.8736 414.5 70.8541C414.498 70.2799 414.616 69.2403 414.855 67.7352C414.954 67.1254 415.003 66.6896 415.001 66.4279C415 66.1701 415.115 66.0407 415.345 66.0396C415.779 66.0376 415.997 66.3491 416 66.9741C416.001 67.267 415.932 67.8416 415.791 68.6977C415.628 69.675 415.545 70.2692 415.542 70.4801C415.783 70.2446 416.136 69.7293 416.601 68.9342C417.26 67.8452 417.745 67.1555 418.056 66.8649C418.371 66.5705 418.697 66.4225 419.033 66.421C419.287 66.4198 419.489 66.5888 419.639 66.9279C419.792 67.2671 419.888 68.0772 419.925 69.3583C419.934 69.6786 419.965 69.9167 420.016 70.0727C420.068 70.2287 420.105 70.3067 420.129 70.3066C420.312 70.3057 420.708 69.6789 421.315 68.4261C421.64 67.7644 421.957 67.261 422.264 66.9158C422.574 66.5706 422.919 66.3971 423.298 66.3954C423.615 66.3939 423.846 66.5569 423.992 66.8844C424.138 67.2079 424.244 67.6898 424.309 68.3302C424.371 68.9783 424.463 69.5717 424.587 70.1101C424.714 70.6486 424.943 70.9933 425.271 71.1441C425.495 71.2485 425.606 71.3711 425.607 71.5117C425.608 71.6484 425.515 71.7895 425.328 71.9349C425.141 72.0803 424.969 72.1533 424.813 72.154C424.501 72.1555 424.22 71.9654 423.973 71.5837C423.725 71.202 423.535 70.3748 423.405 69.1019C423.347 68.5905 423.293 68.2274 423.241 68.0128C423.189 67.7982 423.109 67.6912 423 67.6917C422.835 67.6924 422.641 67.8496 422.416 68.1631C422.195 68.4767 421.836 69.1131 421.341 70.0724C420.953 70.8203 420.659 71.3197 420.457 71.5707C420.259 71.8177 420.066 71.9416 419.879 71.9425C419.711 71.9433 419.56 71.8776 419.426 71.7454C419.293 71.6093 419.208 71.4476 419.172 71.2602C419.136 71.069 419.097 70.6024 419.054 69.8604C418.99 68.6263 418.879 67.908 418.722 67.7056Z" fill="#495E4C"/>
<path d="M377.39 41.6488C377.325 42.0277 377.11 42.219 376.746 42.2225L375.338 42.2363C375.178 42.2378 374.302 42.317 372.708 42.4739C372.139 42.5296 371.797 42.558 371.683 42.5591C371.601 42.5599 371.457 42.5271 371.252 42.4608C371.142 42.4254 371.063 42.4672 371.014 42.5862L371.02 42.5724C370.541 46.6834 370.303 48.8688 370.305 49.1285C370.307 49.3063 370.322 49.4998 370.352 49.7092C370.386 49.9458 370.404 50.1667 370.406 50.3718C370.409 50.627 370.256 50.8563 369.948 51.0599C369.645 51.2679 369.441 51.3725 369.336 51.3735C369.167 51.3751 368.961 51.286 368.718 51.1061C368.479 50.9261 368.359 50.7062 368.356 50.4465C368.353 50.1229 368.379 49.7786 368.435 49.4134C368.452 49.3039 368.469 49.167 368.485 49.0028C368.51 48.7336 368.593 48.1335 368.734 47.2024C368.897 46.1389 368.978 45.5867 368.978 45.5456L369.262 43.0955C369.253 42.1658 369.263 41.5824 369.292 41.3451C369.322 41.1033 369.432 40.9062 369.622 40.754C369.816 40.5971 370.052 40.5173 370.33 40.5146C370.531 40.5126 370.752 40.5629 370.995 40.6653C371.393 40.8255 371.813 40.9035 372.255 40.8991L375.349 40.6228C375.859 40.5768 376.325 40.6315 376.745 40.7869C377.171 40.9423 377.385 41.1954 377.389 41.5463L377.39 41.6488Z" fill="#495E4C"/>
<path d="M381.5 50.2839C381.412 50.6539 381.305 51.334 381.178 52.3242C381.051 53.319 380.975 53.9851 380.951 54.3226C380.927 54.6647 380.812 54.9552 380.604 55.1942C380.402 55.4332 380.218 55.5535 380.054 55.5551C379.849 55.5571 379.645 55.4816 379.443 55.3286C379.241 55.1756 379.139 55.008 379.138 54.8257C379.134 54.4566 379.187 54.03 379.296 53.5458C379.953 50.8094 380.299 47.9918 380.335 45.0929L380.333 44.9562C380.328 44.3911 380.342 44.0104 380.377 43.8141C380.411 43.6132 380.523 43.4207 380.713 43.2365C380.903 43.0524 381.127 42.959 381.387 42.9565C381.606 42.9544 381.785 43.0506 381.923 43.2452C382.066 43.4398 382.14 43.7216 382.143 44.0908C382.147 44.4645 382.085 45.1191 381.957 46.0546C382.455 45.2066 383.052 44.5035 383.748 43.9452C384.449 43.3823 385.089 43.0981 385.668 43.0924C386.178 43.0874 386.613 43.2655 386.972 43.6266C387.336 43.9876 387.52 44.4439 387.525 44.9953C387.54 46.4672 386.981 47.8126 385.849 49.0314C384.721 50.2456 383.599 50.8581 382.483 50.869C381.963 50.8741 381.636 50.6791 381.5 50.2839ZM385.416 44.6467C384.861 44.6521 384.144 45.2015 383.265 46.2948C382.392 47.388 381.958 48.2445 381.964 48.8642C381.966 49.0237 382.045 49.1665 382.201 49.2926C382.362 49.4141 382.547 49.4738 382.756 49.4718C383.335 49.4661 383.994 49.0062 384.732 48.092C385.475 47.1733 385.843 46.2901 385.834 45.4425C385.832 45.1599 385.786 44.9576 385.699 44.8354C385.611 44.7086 385.517 44.6457 385.416 44.6467Z" fill="#495E4C"/>
<path d="M396.109 48.309C394.935 49.8928 393.799 50.6901 392.701 50.7008C392.291 50.7048 391.936 50.5465 391.636 50.2259C391.337 49.9052 391.185 49.4942 391.18 48.9929C391.168 47.7853 391.693 46.495 392.756 45.1219C393.818 43.7443 394.896 43.0501 395.989 43.0394C396.545 43.034 396.913 43.3107 397.091 43.8695C397.615 43.8644 397.879 44.0624 397.883 44.4634C397.885 44.6548 397.838 45.0016 397.743 45.5039C397.57 46.4444 397.486 47.1949 397.492 47.7554C397.497 48.3388 397.54 48.7485 397.62 48.9847C397.704 49.2209 397.765 49.3752 397.802 49.4478C397.839 49.5204 397.949 49.5968 398.132 49.677C398.316 49.7618 398.408 49.8817 398.409 50.0366C398.412 50.269 398.295 50.4639 398.06 50.6211C397.829 50.7783 397.586 50.8582 397.33 50.8607C396.902 50.8649 396.59 50.6537 396.395 50.2272C396.204 49.8007 396.105 49.3003 396.1 48.7261L396.098 48.5211C396.097 48.4527 396.101 48.382 396.109 48.309ZM395.703 44.5052C395.243 44.5097 394.648 45.0259 393.92 46.0539C393.196 47.0773 392.838 47.9445 392.845 48.6554C392.848 49.0291 392.928 49.2151 393.083 49.2136C393.62 49.2084 394.277 48.7257 395.051 47.7656C395.83 46.8009 396.216 45.9609 396.209 45.2454C396.207 45.0175 396.153 44.838 396.047 44.7069C395.945 44.5712 395.83 44.5039 395.703 44.5052Z" fill="#495E4C"/>
<path d="M407.778 49.7332C407.734 49.9341 407.653 50.7142 407.534 52.0735L407.332 54.4545C407.316 54.6416 407.215 54.8248 407.03 55.0044C406.845 55.1839 406.661 55.2746 406.479 55.2764C406.187 55.2792 405.963 55.1994 405.806 55.0369C405.65 54.8789 405.571 54.7156 405.569 54.547C405.565 54.1642 405.698 53.2263 405.966 51.7334C406.06 51.1901 406.162 50.5807 406.269 49.9051C405.645 50.4126 404.996 50.6696 404.321 50.6762C403.638 50.6828 403.105 50.4966 402.723 50.1175C402.346 49.7384 402.153 49.2002 402.147 48.503C402.136 47.4093 402.542 46.2705 403.364 45.0866C404.187 43.9027 405.008 43.3068 405.828 43.2988C406.275 43.2944 406.645 43.6167 406.939 44.2655C406.967 43.9189 406.979 43.4721 406.973 42.9253L406.926 40.8749C406.922 40.4283 406.898 40.1026 406.855 39.898C406.827 39.8071 406.812 39.7434 406.812 39.707C406.81 39.47 406.885 39.2505 407.038 39.0485C407.191 38.8465 407.379 38.7443 407.602 38.7422C407.762 38.7406 407.945 38.8095 408.151 38.9487C408.358 39.0834 408.487 39.2485 408.539 39.444C408.595 39.6349 408.626 39.9171 408.629 40.2908C408.647 42.1 408.575 43.5773 408.413 44.7228L408.279 45.7701C408.654 44.9142 409.142 44.2235 409.743 43.6981C410.348 43.1726 410.968 42.9068 411.601 42.9006C412.116 42.8955 412.546 43.0759 412.892 43.4417C413.242 43.8029 413.419 44.2569 413.425 44.8037C413.435 45.8747 413.255 46.7811 412.884 47.523C412.513 48.2604 411.94 48.9382 411.167 49.5565C410.394 50.1748 409.595 50.4879 408.77 50.496C408.346 50.5001 408.016 50.2458 407.778 49.7332ZM408.282 48.1491C408.284 48.386 408.357 48.5881 408.5 48.7554C408.647 48.918 408.846 48.9981 409.097 48.9956C409.667 48.9901 410.26 48.5809 410.876 47.7682C411.493 46.9555 411.797 46.1185 411.788 45.2572C411.785 44.9702 411.736 44.7655 411.639 44.6434C411.546 44.5213 411.45 44.4607 411.35 44.4617C411.054 44.4646 410.765 44.5904 410.485 44.8393C410.205 45.0836 409.854 45.504 409.431 46.1006C409.009 46.6927 408.626 47.3755 408.282 48.1491ZM406.486 48.317C406.587 47.4911 406.643 46.8707 406.652 46.4559C406.658 46.0776 406.634 45.7975 406.583 45.6157C406.535 45.4293 406.415 45.2414 406.222 45.0519C406.028 44.8578 405.838 44.7616 405.651 44.7635C405.433 44.7656 405.07 45.193 404.563 46.0456C404.061 46.8937 403.814 47.7028 403.821 48.4729C403.824 48.7099 403.892 48.9029 404.025 49.052C404.159 49.2011 404.349 49.2745 404.595 49.2721C404.845 49.2696 405.184 49.1592 405.61 48.9408C406.036 48.7179 406.328 48.51 406.486 48.317Z" fill="#495E4C"/>
<path d="M422.279 47.8277C421.849 48.6295 421.347 49.2679 420.773 49.7429C420.204 50.2179 419.623 50.4583 419.03 50.4641C418.679 50.4675 418.322 50.2864 417.958 49.9208C417.599 49.5552 417.416 48.9896 417.409 48.224C417.403 47.6817 417.532 46.8623 417.795 45.766C418.023 44.8614 418.135 44.1744 418.13 43.705C418.309 43.3204 418.592 43.1262 418.979 43.1224C419.243 43.1199 419.454 43.2067 419.61 43.3829C419.772 43.5545 419.853 43.7292 419.855 43.9069C419.858 44.2304 419.748 44.6918 419.526 45.291C419.398 45.6478 419.259 46.1527 419.111 46.8059C418.966 47.4545 418.895 47.8699 418.897 48.0522C418.903 48.6583 419.031 48.9601 419.282 48.9576C419.678 48.9538 420.21 48.568 420.877 47.8004C421.544 47.0328 421.976 46.2492 422.174 45.4497C422.371 44.6685 422.548 44.1563 422.706 43.9132C422.863 43.6701 423.087 43.5472 423.379 43.5443C423.853 43.5397 424.092 43.8017 424.097 44.3303C424.098 44.4078 424.061 44.5631 423.986 44.7963C423.725 45.6055 423.599 46.5159 423.609 47.5276C423.621 48.7124 423.828 49.4191 424.231 49.6476C424.364 49.7238 424.431 49.8188 424.432 49.9328C424.434 50.0968 424.319 50.2529 424.088 50.401C423.857 50.5491 423.637 50.6242 423.427 50.6262C423.067 50.6297 422.787 50.3795 422.586 49.8756C422.39 49.3671 422.287 48.6845 422.279 47.8277Z" fill="#495E4C"/>
<path d="M432.201 46.7464C432.406 46.7945 432.598 46.8815 432.777 47.0073C432.956 47.1332 433.171 47.3635 433.42 47.6984C433.9 48.35 434.278 48.7769 434.554 48.9793C434.829 49.1817 435.128 49.2814 435.452 49.2782C435.789 49.2749 435.959 49.3781 435.961 49.5877C435.963 49.7882 435.849 49.9921 435.618 50.1995C435.388 50.4068 435.022 50.5129 434.521 50.5178C433.751 50.5253 432.963 49.8973 432.158 48.6336C431.69 47.8907 431.301 47.5208 430.991 47.5238C430.95 47.5242 430.839 47.555 430.657 47.616C430.48 47.677 430.364 47.7328 430.31 47.7834C430.256 47.8295 430.213 48.1194 430.182 48.6529L430.119 49.9114C430.112 50.1165 430.029 50.2928 429.871 50.4402C429.713 50.5921 429.516 50.6693 429.279 50.6716C429.028 50.674 428.832 50.6053 428.689 50.4654C428.546 50.3301 428.474 50.1918 428.473 50.0505C428.471 49.8773 428.525 49.5054 428.633 48.9346C428.892 47.4965 429.092 45.7399 429.231 43.6649C429.247 43.4004 429.354 43.1578 429.552 42.9371C429.75 42.7164 429.984 42.6047 430.253 42.6021C430.44 42.6003 430.595 42.6785 430.72 42.8368C430.845 42.9951 430.908 43.1791 430.91 43.3887C430.912 43.5527 430.886 43.7194 430.833 43.8885C430.766 44.0851 430.672 44.4871 430.551 45.0944C430.433 45.7017 430.363 46.165 430.339 46.4843C430.879 46.3149 431.299 46.0829 431.596 45.7884C431.894 45.4938 432.264 45.023 432.704 44.3761C433.072 43.8438 433.419 43.4508 433.745 43.1969C434.071 42.9385 434.429 42.8074 434.821 42.8036C435.036 42.8015 435.235 42.8907 435.419 43.0712C435.607 43.2471 435.703 43.4353 435.705 43.6358C435.706 43.8044 435.655 43.9325 435.551 44.0201C435.452 44.1031 435.275 44.1846 435.02 44.2646C434.698 44.3635 434.354 44.6266 433.989 45.054C433.232 45.941 432.636 46.5051 432.201 46.7464Z" fill="#495E4C"/>
<path d="M446.09 69.9121C446.242 69.9114 446.319 70.0048 446.32 70.1923C446.321 70.3876 446.105 70.6679 445.673 71.0332C445.241 71.3985 444.741 71.6899 444.171 71.9073C443.606 72.1248 443.087 72.2346 442.614 72.2368C441.923 72.24 441.291 72.0144 440.719 71.56C440.15 71.1056 439.864 70.4448 439.86 69.5777C439.852 67.9957 440.525 66.4535 441.877 64.9511C443.234 63.4448 444.543 62.6887 445.804 62.6829C446.277 62.6807 446.655 62.8254 446.937 63.1171C447.224 63.4049 447.368 63.7421 447.37 64.1288C447.371 64.4882 447.351 64.7715 447.309 64.9787C447.271 65.1859 447.149 65.3622 446.943 65.5077C446.736 65.6493 446.57 65.7204 446.445 65.721C446.356 65.7214 446.277 65.6827 446.211 65.6049C446.144 65.5271 446.11 65.4217 446.109 65.2889C446.109 65.1991 446.141 65.0114 446.206 64.726C446.272 64.4444 446.304 64.2353 446.303 64.0986C446.301 63.7001 446.127 63.5017 445.779 63.5033C445.24 63.5058 444.573 63.8195 443.779 64.4442C442.989 65.0651 442.319 65.8534 441.769 66.809C441.219 67.7608 440.945 68.6371 440.949 69.4379C440.951 69.973 441.112 70.4176 441.43 70.7716C441.752 71.1217 442.208 71.2953 442.797 71.2926C443.137 71.291 443.549 71.2051 444.033 71.0349C444.52 70.8608 444.966 70.6302 445.371 70.3432C445.776 70.0562 446.016 69.9125 446.09 69.9121Z" fill="#495E4C"/>
<path d="M451.783 65.5674C451.632 65.1657 451.287 64.7318 450.745 64.2655C450.236 63.8304 449.98 63.4565 449.978 63.1441C449.977 62.8941 450.058 62.6925 450.222 62.5394C450.385 62.3824 450.689 62.2404 451.134 62.1133C451.688 61.9584 452.252 61.7839 452.825 61.5898C453.398 61.3919 453.743 61.2653 453.86 61.2101C453.934 61.1746 454.01 61.1566 454.088 61.1563C454.217 61.1557 454.282 61.2706 454.283 61.5011C454.284 61.63 454.129 61.8065 453.817 62.0306C453.506 62.2547 452.954 62.4643 452.162 62.6593C451.662 62.7866 451.356 62.8818 451.243 62.9448C451.134 63.0039 451.08 63.0647 451.08 63.1272C451.081 63.2679 451.234 63.4703 451.54 63.7345C452.693 64.7331 453.273 65.9902 453.28 67.5058C453.283 68.1581 453.114 68.8581 452.774 69.6058C452.434 70.3496 451.977 70.9044 451.405 71.2704C450.836 71.6363 450.278 71.8205 449.732 71.823C449.239 71.8253 448.865 71.5868 448.609 71.1075C448.353 70.6282 448.224 70.0995 448.221 69.5214C448.216 68.498 448.526 67.5317 449.151 66.6225C449.779 65.7134 450.445 65.2571 451.148 65.2539C451.242 65.2535 451.36 65.3135 451.501 65.4339C451.63 65.5505 451.724 65.595 451.783 65.5674ZM449.246 69.5401C449.248 69.9737 449.307 70.3133 449.421 70.5588C449.539 70.8044 449.692 70.9267 449.88 70.9258C450.13 70.9247 450.467 70.7688 450.891 70.4583C451.316 70.1477 451.655 69.6891 451.91 69.0824C452.169 68.4758 452.297 67.9088 452.295 67.3814C452.293 66.9439 452.229 66.5907 452.103 66.3218C451.98 66.0489 451.866 65.9127 451.761 65.9132C451.066 65.9164 450.472 66.343 449.98 67.1929C449.487 68.0429 449.243 68.8253 449.246 69.5401Z" fill="#495E4C"/>
<path d="M479.488 65.89C479.488 65.9486 479.645 66.0495 479.958 66.1925C480.307 66.355 480.563 66.5101 480.728 66.6577C480.897 66.8015 481.034 66.9962 481.141 67.2418C481.251 67.4835 481.307 67.7742 481.309 68.1141C481.31 68.4266 481.101 68.8533 480.682 69.3943C480.266 69.9314 479.726 70.3831 479.059 70.7495C478.397 71.1119 477.704 71.2948 476.982 71.2982C476.845 71.2988 476.653 71.2587 476.407 71.1778C476.164 71.0969 476.043 71.0115 476.042 70.9217C476.04 70.4295 476.387 70.1818 477.082 70.1786C477.297 70.1815 477.508 70.1785 477.715 70.1698C477.922 70.1571 478.185 70.0875 478.505 69.961C478.828 69.8306 479.132 69.6495 479.416 69.4177C479.701 69.186 479.905 68.9604 480.029 68.7411C480.152 68.5178 480.214 68.3047 480.213 68.1015C480.211 67.7422 480.06 67.4245 479.757 67.1486C479.455 66.8726 479.045 66.7358 478.525 66.7382C478.447 66.7386 478.262 66.802 477.969 66.9283C477.677 67.0586 477.486 67.1239 477.396 67.1243C477.091 67.1257 476.9 67.0876 476.821 67.0098C476.747 66.932 476.709 66.7935 476.708 66.5943C476.707 66.4576 477.035 66.2588 477.69 65.998C478.333 65.7411 478.911 65.3497 479.424 64.8239C479.942 64.2981 480.199 63.8789 480.198 63.5664C480.197 63.3555 480.087 63.1704 479.867 63.0113C479.652 62.8482 479.356 62.7676 478.981 62.7693C478.497 62.7715 477.935 62.8405 477.295 62.9763C476.655 63.1082 476.304 63.2368 476.242 63.3621C476.184 63.4873 476.024 64.4393 475.763 66.2178C475.502 67.9925 475.372 69.0185 475.373 69.2958C475.374 69.4443 475.382 69.5868 475.398 69.7235C475.411 69.864 475.417 69.9968 475.418 70.1218C475.42 70.657 475.162 70.9257 474.642 70.9281C474.498 70.9288 474.378 70.8258 474.283 70.6193C474.189 70.4127 474.141 70.2234 474.14 70.0515C474.14 69.9773 474.203 69.6782 474.329 69.1542C474.482 68.4425 474.634 67.4692 474.784 66.2341C474.935 64.9951 475.01 64.3346 475.01 64.2525C475.009 64.0885 474.985 63.9675 474.938 63.8896C474.894 63.8117 474.793 63.7731 474.632 63.7738C474.57 63.7741 474.507 63.7763 474.445 63.7805C474.386 63.7847 474.326 63.7479 474.263 63.6701C474.204 63.5922 474.174 63.4986 474.174 63.3892C474.172 63.0806 474.682 62.7501 475.704 62.3977C476.726 62.0414 477.946 61.86 479.364 61.8535C479.883 61.8511 480.345 62.0247 480.749 62.3744C481.157 62.7241 481.362 63.0845 481.363 63.4555C481.365 63.7212 481.189 64.0989 480.835 64.5889C480.486 65.0749 480.037 65.5086 479.488 65.89Z" fill="#495E4C"/>
<path d="M484.481 71.1639C483.895 71.1666 483.443 71.0007 483.125 70.6662C482.811 70.3317 482.653 69.8618 482.65 69.2563C482.645 68.2368 483.045 67.1607 483.848 66.0281C484.651 64.8915 485.401 64.3216 486.096 64.3184C486.412 64.317 486.685 64.4876 486.913 64.8303C487.145 65.169 487.262 65.5298 487.264 65.9126C487.265 66.1431 487.215 66.3426 487.114 66.511C487.017 66.6755 486.918 66.758 486.816 66.7585C486.59 66.7595 486.429 66.5317 486.333 66.0752C486.225 65.5835 486.071 65.3381 485.872 65.339C485.466 65.3409 484.988 65.8255 484.438 66.7929C483.887 67.7603 483.614 68.576 483.617 69.2401C483.62 69.9042 483.998 70.2344 484.752 70.231C485.326 70.2283 486.001 69.9556 486.776 69.413C487.048 69.2203 487.249 69.1237 487.378 69.1231C487.511 69.1225 487.578 69.1983 487.578 69.3507C487.58 69.6475 487.232 70.0242 486.535 70.4805C485.838 70.933 485.153 71.1607 484.481 71.1639Z" fill="#495E4C"/>
</g>
<path d="M1 377C9.17365 371.826 29.0162 375.892 41.8296 372.941C52.013 369.841 57.5701 368.469 65.5387 358.794C71.1001 349.367 76.2977 340.75 74.6103 329.872C73.1979 320.766 46.0564 312.058 39.2053 323.062C35.6767 324.326 36.365 332.55 37.3955 334.875C39.8367 340.384 42.8886 344.453 49.25 348.002C63.6062 356.011 94.2448 361.061 113.296 348.002C231.786 266.78 329.449 296.584 364.755 300.747C388.465 303.543 407.883 328.79 404.823 341.748C401.118 357.436 381.547 364.758 367.058 364.758C349.142 364.758 330.501 353.624 330.501 334.803C330.501 313.374 357.847 303.893 383.892 300.747C404.382 298.273 416.647 298.616 436.921 302.06C491.406 311.316 563.5 300.747 588 238" stroke="#5CCD6A" stroke-linecap="round" stroke-dasharray="8 8"/>
<defs>
<clipPath id="clip0_1538_41">
<rect width="288.709" height="274.126" fill="white" transform="translate(259 0.712646) rotate(-0.141527)"/>
</clipPath>
</defs>
</svg>
