<svg width="890" height="1107" viewBox="0 0 890 1107" fill="none" xmlns="http://www.w3.org/2000/svg">
<g opacity="0.5" clip-path="url(#clip0_1538_44)">
<path d="M267.84 43.2482L158.833 98.1325L360.841 140.056L282.231 46.1859C280.517 44.1421 278.161 42.7391 275.548 42.2057C272.935 41.6722 270.218 42.0397 267.84 43.2482V43.2482Z" fill="#EBEBEB"/>
<path d="M157.583 98.2954L267.656 42.8736C270.117 41.613 272.933 41.2284 275.642 41.7832C278.35 42.3381 280.789 43.7992 282.556 45.9258L361.939 140.715L157.583 98.2954ZM278.124 43.4473C276.548 42.6904 274.817 42.3087 273.069 42.3319C271.32 42.3551 269.6 42.7827 268.045 43.5812V43.5812L160.072 97.9738L359.761 139.415L281.934 46.4426C280.884 45.1939 279.58 44.1846 278.107 43.4826L278.124 43.4473Z" fill="#E0E0E0"/>
<path d="M158.819 98.1562L361.538 140.229L338.741 250.073C338.289 252.248 336.992 254.155 335.135 255.374C333.278 256.593 331.012 257.024 328.837 256.572L142.529 217.906C140.354 217.454 138.447 216.157 137.228 214.3C136.009 212.443 135.578 210.177 136.03 208.002L158.827 98.1578L158.819 98.1562Z" fill="#F0F0F0"/>
<path d="M347.813 140.221L254.26 174.142L169.683 107.187L183.022 51.6805C183.666 48.7937 185.42 46.2762 187.905 44.6717C190.39 43.0673 193.406 42.5047 196.302 43.1056L349.851 74.9926C351.299 75.2919 352.674 75.8739 353.897 76.7053C355.12 77.5367 356.167 78.6011 356.978 79.8376C357.789 81.0741 358.349 82.4585 358.624 83.9114C358.9 85.3644 358.886 86.8574 358.584 88.3051L347.813 140.221Z" fill="white"/>
<path d="M248.071 164.96L136.148 206.978C135.901 208.162 135.89 209.384 136.116 210.572C136.342 211.761 136.799 212.893 137.463 213.905C138.127 214.917 138.983 215.787 139.984 216.468C140.984 217.148 142.109 217.624 143.294 217.87L328.187 256.222C330.579 256.718 333.07 256.244 335.112 254.904C337.155 253.564 338.581 251.468 339.079 249.076L339.222 248.381L258.333 167.188C257.019 165.867 255.352 164.954 253.531 164.559C251.71 164.164 249.814 164.303 248.071 164.96V164.96Z" fill="#E0E0E0"/>
<path d="M258.562 82.217L198.484 69.7593L197.212 75.8934L257.29 88.3512L258.562 82.217Z" fill="#E0E0E0"/>
<path d="M328.555 112.951L195.258 85.311L193.821 92.2416L327.118 119.882L328.555 112.951Z" fill="#E0E0E0"/>
<path d="M325.048 129.885L191.75 102.245L190.313 109.175L323.611 136.816L325.048 129.885Z" fill="#E0E0E0"/>
<path d="M317.922 151.126L312.4 153.061L199.883 131.119L188.29 121.785L188.478 120.131L321.346 147.687L320.874 149.986L317.922 151.126Z" fill="#E0E0E0"/>
<path d="M279.825 164.871L229.418 154.41L217.165 144.646L292.505 160.269L279.825 164.871Z" fill="#E0E0E0"/>
<path d="M243.987 166.485C243.987 166.485 243.901 166.539 243.717 166.615L242.9 166.942L239.766 168.152L228.182 172.587C218.392 176.306 204.836 181.432 189.876 187.004C174.916 192.575 161.272 197.486 151.391 200.944C146.447 202.671 142.431 204.055 139.657 204.986L136.463 206.053L135.624 206.318C135.531 206.356 135.434 206.382 135.334 206.395C135.422 206.347 135.514 206.307 135.609 206.276L136.433 205.969L139.588 204.822L151.271 200.652C161.127 197.156 174.739 192.186 189.726 186.611C204.714 181.035 218.248 176.028 228.066 172.306L239.687 167.992L242.845 166.838L243.677 166.553L243.987 166.485Z" fill="#FAFAFA"/>
<path d="M339.222 248.381C339.139 248.463 321.836 231.263 300.576 209.964C279.316 188.666 262.147 171.331 262.23 171.249C262.312 171.167 279.619 188.36 300.865 209.687C322.112 231.014 339.308 248.292 339.222 248.381Z" fill="#FAFAFA"/>
<path d="M352.279 138.568C352.21 138.612 352.137 138.65 352.06 138.68L351.397 138.96L348.835 140.01L339.367 143.779C331.353 146.928 320.259 151.192 307.935 155.74C295.612 160.288 284.398 164.241 276.262 167.046L266.609 170.318L263.974 171.177L263.288 171.394C263.128 171.438 263.048 171.461 263.044 171.45C263.118 171.411 263.195 171.379 263.274 171.352L263.945 171.093L266.554 170.161L276.157 166.761C284.274 163.886 295.469 159.88 307.782 155.336C320.096 150.792 331.214 146.567 339.251 143.498L348.805 139.874L351.343 138.873L352.025 138.628C352.107 138.598 352.192 138.578 352.279 138.568V138.568Z" fill="#FAFAFA"/>
<path d="M243.987 166.485C243.906 166.44 243.83 166.386 243.761 166.324L243.138 165.816L240.657 163.755C238.538 161.99 235.445 159.452 231.599 156.352C223.923 150.135 213.177 141.713 201.281 132.451C189.385 123.189 178.666 114.727 171.039 108.446C167.219 105.308 164.151 102.738 162.059 100.934L159.68 98.896L159.074 98.3527C158.999 98.295 158.932 98.2279 158.875 98.1528L159.098 98.3208L159.725 98.8219L162.17 100.866C164.296 102.635 167.392 105.165 171.235 108.272C178.911 114.489 189.65 122.908 201.553 132.174C213.456 141.439 224.168 149.897 231.796 156.178C235.615 159.317 238.687 161.879 240.775 163.69L243.175 165.773L243.782 166.317L243.987 166.485Z" fill="#FAFAFA"/>
<path d="M347.813 140.221C347.813 140.221 347.854 139.955 347.962 139.425L348.406 137.183C348.806 135.197 349.395 132.295 350.152 128.554L356.655 96.8632C357.002 95.1905 357.355 93.4768 357.712 91.7223C357.895 90.8554 358.081 89.9641 358.259 89.0693C358.354 88.6201 358.455 88.1743 358.515 87.7256C358.589 87.2749 358.631 86.8195 358.641 86.3629C358.703 84.4457 358.264 82.5455 357.367 80.8496C356.471 79.1538 355.148 77.7209 353.529 76.6923C352.69 76.1515 351.781 75.7288 350.826 75.436C349.864 75.164 348.843 74.9768 347.829 74.758L341.618 73.5067L328.703 70.8017L271.137 58.8762L213.543 46.9021L200.629 44.2146L197.505 43.5805C196.503 43.324 195.48 43.1571 194.447 43.0818C193.435 43.032 192.421 43.1289 191.437 43.3694C190.464 43.5967 189.528 43.9584 188.655 44.4441C187.796 44.9191 187.002 45.5027 186.292 46.1805C185.608 46.8571 185.009 47.6159 184.511 48.4396C183.469 50.0647 183.149 51.9586 182.697 53.7636C181.82 57.3917 180.979 60.8666 180.174 64.1882C176.926 77.4748 174.356 88.2325 172.521 95.6556C171.606 99.3636 170.901 102.236 170.428 104.195C170.187 105.164 169.996 105.905 169.871 106.418C169.746 106.931 169.658 107.184 169.658 107.184C169.658 107.184 169.707 106.921 169.828 106.398C169.95 105.875 170.12 105.141 170.343 104.172C170.806 102.199 171.49 99.3165 172.366 95.5985C174.134 88.1519 176.697 77.3909 179.858 64.1056C180.658 60.7817 181.49 57.3024 182.353 53.6674C182.794 51.8836 183.128 49.9266 184.197 48.245C184.703 47.4127 185.31 46.6467 186.005 45.9645C186.738 45.2653 187.556 44.6615 188.44 44.1675C189.34 43.6645 190.306 43.2905 191.309 43.0565C192.325 42.8008 193.372 42.6964 194.418 42.7464C195.473 42.8106 196.52 42.9714 197.546 43.2266L200.704 43.8777L213.632 46.5545L271.24 58.5003L328.835 70.4743L341.71 73.117L347.9 74.4106C348.918 74.6223 349.921 74.8098 350.93 75.0951C352.386 75.5456 353.738 76.282 354.906 77.2611C356.074 78.2402 357.035 79.4424 357.733 80.7974C358.621 82.5241 359.051 84.4491 358.984 86.3891C358.976 86.8591 358.931 87.3277 358.848 87.7905C358.782 88.2532 358.687 88.7024 358.593 89.1516C358.407 90.043 358.222 90.9344 358.036 91.8083C357.671 93.5594 357.309 95.2685 356.964 96.9424L350.318 128.625C349.529 132.359 348.873 135.238 348.495 137.234C348.275 138.213 348.115 138.961 348.001 139.47C347.886 139.979 347.813 140.221 347.813 140.221Z" fill="#E0E0E0"/>
<path d="M286.897 65.1196L277.374 67.0744L272.838 77.3725L268.897 69.2371L263.922 70.5588L258.482 47.583L286.897 65.1196Z" fill="#5CCD6A"/>
<g opacity="0.3">
<path d="M273.722 67.9731C273.573 68.2832 272.838 77.3721 272.838 77.3721L268.897 69.2366L273.722 67.9731Z" fill="black"/>
</g>
<path d="M258.482 47.583L273.715 67.9702L272.838 77.3725L277.374 67.0744L258.482 47.583Z" fill="#54BE61"/>
<path d="M249.1 211.452C247.867 210.807 246.78 209.915 245.908 208.832C247.141 209.476 248.228 210.368 249.1 211.452Z" fill="#495D4C"/>
<path d="M254.187 215.634C254.136 215.74 253.625 215.45 253.101 215.025C252.576 214.599 252.213 214.164 252.285 214.068C252.357 213.973 252.847 214.252 253.375 214.688C253.903 215.124 254.266 215.542 254.187 215.634Z" fill="#495D4C"/>
<path d="M288.538 83.2912C287.908 82.9997 287.333 82.6027 286.837 82.1175C286.252 81.7451 285.74 81.2693 285.325 80.7135C285.993 80.9332 286.602 81.3032 287.105 81.7951C287.696 82.1713 288.187 82.6846 288.538 83.2912V83.2912Z" fill="#495D4C"/>
<path d="M293.954 89.4973C293.408 89.0708 292.941 88.5524 292.573 87.9654C292.095 87.4649 291.707 86.8849 291.427 86.2515C292.028 86.6139 292.534 87.1131 292.905 87.7085C293.611 88.6036 294.054 89.4328 293.954 89.4973Z" fill="#495D4C"/>
<path d="M297.711 96.8241C297.597 96.8644 297.223 96.0341 296.753 94.9919C296.282 93.9497 295.933 93.0875 296.069 93.04C296.562 93.5409 296.931 94.1496 297.149 94.8179C297.606 95.8708 297.816 96.7876 297.711 96.8241Z" fill="#495D4C"/>
<path d="M299.392 104.879C299.269 104.881 299.133 103.973 298.976 102.856C298.818 102.181 298.772 101.485 298.839 100.795C298.947 100.768 299.248 101.659 299.402 102.801C299.563 103.485 299.559 104.197 299.392 104.879V104.879Z" fill="#495D4C"/>
<path d="M298.604 113.066C298.565 112.374 298.64 111.68 298.828 111.013C298.872 110.319 299.038 109.638 299.318 109.001C299.463 109.691 299.438 110.405 299.245 111.083C299.199 111.787 298.978 112.468 298.604 113.066Z" fill="#495D4C"/>
<path d="M295.426 120.65C295.594 119.977 295.87 119.337 296.243 118.752C296.49 118.103 296.849 117.503 297.304 116.98C297.237 117.679 297.005 118.353 296.627 118.945C296.367 119.601 295.955 120.185 295.426 120.65V120.65Z" fill="#495D4C"/>
<path d="M290.064 126.871C290.438 126.289 290.904 125.772 291.443 125.339C291.878 124.804 292.394 124.34 292.972 123.965C292.701 124.617 292.268 125.188 291.714 125.625C291.275 126.17 290.708 126.598 290.064 126.871V126.871Z" fill="#495D4C"/>
<path d="M282.863 130.82C282.833 130.701 283.681 130.345 284.717 129.906C285.753 129.467 286.6 129.076 286.654 129.198C286.164 129.705 285.556 130.083 284.884 130.299C283.824 130.752 282.896 130.931 282.863 130.82Z" fill="#495D4C"/>
<path d="M274.721 131.833C275.391 131.659 276.084 131.594 276.775 131.641C277.461 131.546 278.159 131.565 278.839 131.696C278.195 131.987 277.49 132.116 276.785 132.071C276.088 132.163 275.379 132.081 274.721 131.833V131.833Z" fill="#495D4C"/>
<path d="M266.737 129.92C267.424 129.994 268.093 130.181 268.719 130.474C269.396 130.627 270.043 130.889 270.637 131.249C269.933 131.298 269.227 131.171 268.585 130.878C267.898 130.719 267.263 130.39 266.737 129.92V129.92Z" fill="#495D4C"/>
<path d="M260.155 125.019C260.746 125.38 261.279 125.827 261.739 126.344C262.291 126.758 262.78 127.25 263.189 127.805C262.519 127.58 261.92 127.184 261.45 126.657C260.881 126.236 260.433 125.67 260.155 125.019Z" fill="#495D4C"/>
<path d="M257.486 117.486C257.592 117.537 257.577 118.398 257.755 119.508C257.933 120.617 258.212 121.463 258.083 121.531C257.955 121.6 257.518 120.739 257.329 119.581C257.144 118.885 257.199 118.147 257.486 117.486V117.486Z" fill="#495D4C"/>
<path d="M263.356 113.202C263.302 113.315 262.415 113.192 261.337 113.377C260.259 113.561 259.487 114.066 259.415 113.962C259.344 113.858 260.06 113.162 261.261 112.958C261.965 112.77 262.714 112.857 263.356 113.202V113.202Z" fill="#495D4C"/>
<path d="M268.457 118.909C268.331 118.918 268.212 118.011 267.805 116.982C267.397 115.952 266.812 115.255 266.934 115.183C267.554 115.551 268.011 116.14 268.215 116.832C268.539 117.474 268.625 118.21 268.457 118.909V118.909Z" fill="#495D4C"/>
<path d="M265.236 126.221C265.583 125.632 265.991 125.081 266.452 124.576C266.801 123.985 267.21 123.431 267.672 122.923C267.514 123.612 267.214 124.26 266.792 124.826C266.371 125.393 265.836 125.865 265.222 126.214L265.236 126.221Z" fill="#495D4C"/>
<path d="M257.747 129.432C257.727 129.31 258.623 129.089 259.706 128.803C260.79 128.517 261.702 128.262 261.718 128.356C261.733 128.45 260.943 128.921 259.835 129.186C258.726 129.452 257.759 129.55 257.747 129.432Z" fill="#495D4C"/>
<path d="M249.509 129.688C250.178 129.49 250.88 129.429 251.573 129.509C252.272 129.45 252.975 129.537 253.638 129.764C252.965 129.958 252.261 130.018 251.566 129.94C250.87 129.997 250.17 129.912 249.509 129.688V129.688Z" fill="#495D4C"/>
<path d="M241.263 129.87C241.251 129.752 242.161 129.573 243.307 129.465C243.999 129.352 244.707 129.396 245.38 129.594C245.385 129.726 244.459 129.811 243.334 129.894C242.65 130.031 241.944 130.023 241.263 129.87V129.87Z" fill="#495D4C"/>
<path d="M233.313 132.018C233.27 131.91 234.088 131.453 235.177 131.083C236.267 130.713 237.163 130.563 237.225 130.688C237.286 130.813 236.378 131.149 235.313 131.505C234.248 131.86 233.378 132.101 233.313 132.018Z" fill="#495D4C"/>
<path d="M226.134 136.046C226.551 135.481 227.094 135.02 227.719 134.699C228.685 134.079 229.547 133.713 229.608 133.82C229.131 134.325 228.571 134.746 227.952 135.063C227.035 135.689 226.209 136.143 226.134 136.046Z" fill="#495D4C"/>
<path d="M220.106 141.652C220.374 141.003 220.793 140.428 221.329 139.975C221.76 139.419 222.316 138.973 222.953 138.673C222.611 139.279 222.166 139.819 221.638 140.271C221.212 140.817 220.693 141.284 220.106 141.652V141.652Z" fill="#495D4C"/>
<path d="M215.594 148.542C215.933 147.184 216.637 145.944 217.631 144.957C217.447 145.626 217.143 146.256 216.736 146.818C216.459 147.455 216.073 148.039 215.594 148.542V148.542Z" fill="#495D4C"/>
<path d="M213.031 156.362C212.977 155.664 213.069 154.964 213.3 154.304C213.377 153.603 213.636 152.935 214.051 152.365C214.043 153.059 213.931 153.749 213.718 154.41C213.626 155.101 213.392 155.765 213.031 156.362Z" fill="#495D4C"/>
<path d="M212.612 164.578C212.351 163.926 212.247 163.222 212.307 162.522C212.225 161.824 212.312 161.115 212.562 160.458C212.739 161.13 212.797 161.827 212.734 162.519C212.819 163.207 212.778 163.905 212.612 164.578V164.578Z" fill="#495D4C"/>
<path d="M214.209 172.662C214.104 172.699 213.728 171.858 213.402 170.73C213.161 170.069 213.074 169.362 213.147 168.663C213.272 168.636 213.531 169.524 213.82 170.618C214.11 171.712 214.324 172.622 214.209 172.662Z" fill="#495D4C"/>
<path d="M217.661 180.137C217.127 179.678 216.71 179.099 216.442 178.449C215.902 177.442 215.615 176.558 215.712 176.501C216.182 177.015 216.558 177.607 216.824 178.25C217.367 179.249 217.761 180.072 217.661 180.137Z" fill="#495D4C"/>
<path d="M222.818 186.557C222.186 186.248 221.637 185.791 221.22 185.224C220.691 184.759 220.285 184.171 220.039 183.511C220.612 183.899 221.118 184.379 221.534 184.932C222.045 185.402 222.479 185.951 222.818 186.557V186.557Z" fill="#495D4C"/>
<path d="M226.072 189.337C226.024 189.436 225.92 189.49 225.888 189.466C225.856 189.442 225.886 189.343 225.987 189.261C226.087 189.179 226.138 189.109 226.17 189.133C226.202 189.157 226.161 189.206 226.072 189.337Z" fill="#495D4C"/>
<path d="M229.573 168.254L223.083 162.016L219.202 166.053L225.692 172.291L229.573 168.254Z" fill="#43AF55"/>
<path d="M229.589 168.274C227.8 168.303 226.012 168.197 224.239 167.957L224.081 167.942L224.051 167.789L223.998 167.555C223.558 165.74 223.26 163.893 223.105 162.031C223.681 163.809 224.121 165.627 224.42 167.472L224.466 167.702L224.278 167.533C226.065 167.637 227.841 167.884 229.589 168.274V168.274Z" fill="#2A9348"/>
<path d="M223.877 166.021C223.117 166.243 222.322 166.323 221.533 166.256C220.744 166.325 219.949 166.257 219.183 166.055C219.946 165.838 220.742 165.759 221.533 165.823C222.32 165.755 223.113 165.822 223.877 166.021V166.021Z" fill="#2A9348"/>
<path d="M225.79 172.4C225.614 171.661 225.571 170.897 225.661 170.142C225.701 168.868 225.825 167.817 225.959 167.899C226.136 168.639 226.182 169.404 226.095 170.16C226.134 170.919 226.031 171.679 225.79 172.4V172.4Z" fill="#2A9348"/>
<path d="M251.959 202.155L235.268 186.113L225.285 196.499L241.976 212.542L251.959 202.155Z" fill="#5CCD6A"/>
<path d="M251.948 202.155C251.588 202.181 251.225 202.173 250.867 202.13L247.935 201.909C245.438 201.688 242.033 201.387 238.211 201.016L238.053 201.001L238.023 200.847L237.902 200.251C237.118 196.359 236.42 192.83 235.943 190.266L235.397 187.235C235.315 186.864 235.267 186.486 235.253 186.107C235.403 186.463 235.516 186.835 235.589 187.214L236.268 190.223C236.825 192.764 237.561 196.286 238.352 200.181L238.477 200.77L238.289 200.602C242.1 200.977 245.527 201.341 247.994 201.625L250.913 201.979C251.263 202.007 251.609 202.066 251.948 202.155V202.155Z" fill="#43AF55"/>
<path d="M237.346 196.426C235.342 196.648 233.325 196.73 231.309 196.672C229.296 196.752 227.28 196.693 225.275 196.496C227.278 196.263 229.294 196.177 231.309 196.239C233.323 196.153 235.341 196.216 237.346 196.426V196.426Z" fill="#43AF55"/>
<path d="M242.179 212.348C242.068 210.5 242.088 208.643 242.238 206.793C242.261 204.937 242.419 203.082 242.709 201.244C242.826 203.094 242.805 204.953 242.647 206.806C242.626 208.659 242.469 210.512 242.179 212.348V212.348Z" fill="#43AF55"/>
<path d="M234.916 189.677C234.249 189.802 233.56 189.726 232.935 189.459C232.311 189.192 231.78 188.746 231.409 188.177C231.039 187.608 230.845 186.942 230.853 186.263C230.86 185.584 231.069 184.923 231.452 184.363C231.836 183.803 232.377 183.369 233.007 183.116C233.637 182.863 234.328 182.802 234.992 182.942C235.657 183.082 236.265 183.415 236.74 183.901C237.214 184.386 237.535 185.001 237.66 185.668C237.743 186.112 237.739 186.567 237.646 187.009C237.553 187.45 237.374 187.869 237.119 188.241C236.864 188.614 236.539 188.932 236.161 189.178C235.783 189.425 235.36 189.594 234.916 189.677V189.677Z" fill="#495D4C"/>
<path d="M236.479 186.662C235.591 186.834 234.688 186.929 233.783 186.945L233.158 186.982L233.042 186.988L233.034 186.879C232.955 186.19 232.94 185.494 232.991 184.802C233.149 185.479 233.238 186.171 233.257 186.866L233.144 186.759L233.773 186.714C234.672 186.618 235.577 186.601 236.479 186.662Z" fill="white"/>
<path d="M247.23 179.408L238.484 171.002L233.254 176.444L242 184.85L247.23 179.408Z" fill="#43AF55"/>
<path d="M247.215 179.406C247.026 179.418 246.837 179.414 246.649 179.394L245.108 179.278C243.815 179.168 242.018 179.007 240.021 178.81L239.951 178.776L239.932 178.689L239.871 178.382C239.455 176.342 239.13 174.511 238.839 173.148L238.552 171.56C238.512 171.366 238.487 171.169 238.48 170.97C238.556 171.154 238.609 171.345 238.64 171.541L239 173.121C239.29 174.449 239.678 176.293 240.094 178.333L240.152 178.647L240.039 178.593C242.036 178.79 243.83 178.976 245.126 179.131L246.651 179.317C246.842 179.324 247.032 179.354 247.215 179.406V179.406Z" fill="#2A9348"/>
<path d="M239.565 176.404C238.515 176.518 237.459 176.561 236.404 176.533C235.348 176.576 234.289 176.546 233.237 176.442C234.287 176.321 235.344 176.276 236.401 176.306C237.456 176.262 238.514 176.295 239.565 176.404V176.404Z" fill="#2A9348"/>
<path d="M242.142 184.994C242.068 183.983 242.069 182.968 242.144 181.958C242.15 180.943 242.225 179.929 242.37 178.925C242.449 180.951 242.372 182.98 242.142 184.994V184.994Z" fill="#2A9348"/>
<path d="M202.704 58.3953C200.632 60.8717 197.872 62.6782 194.773 63.5866C191.675 64.4949 188.377 64.4643 185.295 63.4986C182.214 62.5329 179.488 60.6755 177.463 58.161C175.437 55.6466 174.202 52.5881 173.914 49.372C173.626 46.1559 174.298 42.9266 175.845 40.0923C177.392 37.258 179.744 34.946 182.605 33.4483C185.466 31.9506 188.706 31.3346 191.917 31.6781C195.127 32.0216 198.164 33.3091 200.643 35.3781C202.29 36.7539 203.65 38.4407 204.645 40.3421C205.64 42.2436 206.25 44.3224 206.441 46.4598C206.633 48.5973 206.401 50.7515 205.76 52.7994C205.119 54.8473 204.08 56.7488 202.704 58.3953V58.3953Z" fill="#5CCD6A"/>
<path d="M199.473 42.5569C199.683 42.7881 195.643 46.9114 190.443 51.7697C189.68 52.4706 188.956 53.1463 188.239 53.808L187.849 54.1673L187.458 53.771C183.571 49.6365 180.811 46.4432 181.001 46.2654C181.19 46.0876 184.264 48.9717 188.234 53.0245L187.478 53.0081C188.181 52.3397 188.909 51.6569 189.657 50.9492C194.879 46.1011 199.267 42.3362 199.473 42.5569Z" fill="white"/>
</g>
<path d="M87 210.315C99.0398 221.653 166.71 241.285 174.743 248.484C187.13 259.585 200.137 267.579 217.118 272.968C247.531 282.62 286.883 267.44 305.436 252.533C318.089 241.1 320.963 230.839 320.963 220.577C320.963 207.236 305.436 198 293.863 198C282.29 198 271.57 198 261.425 210.315C244.672 230.652 264.659 256.466 288.957 261.011C320.562 266.921 339.785 273.938 369.414 264.02C396.065 255.098 414.901 247.459 439.494 240.115C457.124 234.851 483.036 241.448 495.393 244.974C537.963 257.123 569.281 241.559 614 273.562" stroke="#5CCD6A" stroke-linecap="round" stroke-dasharray="8 8"/>
<g opacity="0.5">
<path d="M298.772 573.647C299.152 569.29 298.351 564.912 296.453 560.971C294.554 557.029 291.628 553.671 287.982 551.247C284.335 548.823 280.102 547.423 275.727 547.194C271.352 546.965 266.996 547.915 263.116 549.945C261.241 544.941 259.316 539.848 256 535.661C252.684 531.474 247.671 528.263 242.322 528.46V573.647H298.772Z" fill="#D0FFD4"/>
<path d="M212.616 464.9H95.6685L73.8186 433.928L50.9127 465.777L24 465.344L53.0049 426.343L183.404 426.885L212.616 464.9Z" fill="#E0E0E0"/>
<path d="M154.133 465.344V573.913H37.3529V465.344H50.7353L73.8188 433.929L95.7378 464.871L154.133 465.344Z" fill="#F5F5F5"/>
<path d="M110.314 526.844H137.632V573.913H110.314V526.844Z" fill="#E0E0E0"/>
<path d="M50.9128 525.514H93.9415V552.122H50.9128V525.514Z" fill="#E0E0E0"/>
<path d="M81.023 525.514H82.0099V552.368H81.023V525.514Z" fill="#EBEBEB"/>
<path d="M63.1304 525.514H64.1173V552.368H63.1304V525.514Z" fill="#EBEBEB"/>
<path d="M63.6244 539.257H81.5168V540.242H63.6244V539.257Z" fill="#EBEBEB"/>
<path d="M50.9128 472.269H93.9415V498.877H50.9128V472.269Z" fill="#E0E0E0"/>
<path d="M81.023 472.259H82.0099V499.113H81.023V472.259Z" fill="#EBEBEB"/>
<path d="M63.1304 472.259H64.1173V499.113H63.1304V472.259Z" fill="#EBEBEB"/>
<path d="M63.6244 486.011H81.5168V486.996H63.6244V486.011Z" fill="#EBEBEB"/>
<path d="M113.166 472.506H140.306V498.158H113.166V472.506Z" fill="#E0E0E0"/>
<path d="M154.123 465.344H201.523V573.903H154.123V465.344Z" fill="#E0E0E0"/>
<path d="M126.243 472.506H127.23V498.158H126.243V472.506Z" fill="#EBEBEB"/>
<path d="M113.166 485.47H140.306V486.455H113.166V485.47Z" fill="#EBEBEB"/>
<path d="M73.8779 460.398C70.7002 460.398 68.1242 457.827 68.1242 454.655C68.1242 451.483 70.7002 448.912 73.8779 448.912C77.0555 448.912 79.6315 451.483 79.6315 454.655C79.6315 457.827 77.0555 460.398 73.8779 460.398Z" fill="#E0E0E0"/>
<path d="M114.923 447.612L107.66 438.667V417.162H122.868V447.779L114.923 447.612Z" fill="#F5F5F5"/>
<path d="M114.923 447.612V417.162H107.659V438.667L114.923 447.612Z" fill="#EBEBEB"/>
<path d="M106.643 414H124.565V417.162H106.643V414Z" fill="#EBEBEB"/>
<path d="M154.133 512.836H242.322V573.913H154.133V512.836Z" fill="#F5F5F5"/>
<path d="M187.105 512.836H242.322V573.913H187.105V512.836Z" fill="#E0E0E0"/>
<path d="M195.326 532.528H231.436V573.804H195.326V532.528Z" fill="#F5F5F5"/>
<path d="M158.988 532.361H182.249V538.272H158.988V532.361Z" fill="#EBEBEB"/>
<path d="M212.616 464.901V468.043H95.7376V464.871L212.616 464.901Z" fill="#EBEBEB"/>
<path d="M95.7377 468.043L73.8779 437.416L73.8187 433.929L95.6686 464.9L95.7377 468.043Z" fill="#EBEBEB"/>
<path d="M24.5626 465.344H50.7351V467.373H24.5626V465.344Z" fill="#EBEBEB"/>
<path d="M119.63 519.624H129.292V523.288H119.63V519.624Z" fill="#E0E0E0"/>
<path d="M394.736 376.9C385.804 364.691 372.828 359 359.281 359C359.281 359 326.111 359 316.288 388.527C312.66 399.409 313.466 411.225 317.86 421.822C319.509 425.851 321.588 429.693 324.059 433.281C332.625 445.574 359.281 479.178 359.281 479.178H365.077C372.502 468.901 391.249 434.752 396.86 423.818C403.906 410.079 404.986 390.924 394.736 376.9ZM364.815 431.522C359.21 431.523 353.731 429.871 349.07 426.775C344.41 423.679 340.777 419.279 338.632 414.13C336.487 408.981 335.925 403.315 337.018 397.849C338.112 392.383 340.811 387.362 344.774 383.421C348.737 379.48 353.787 376.797 359.284 375.71C364.781 374.623 370.479 375.181 375.657 377.314C380.835 379.447 385.26 383.059 388.374 387.694C391.487 392.328 393.149 397.776 393.148 403.349C393.147 410.821 390.161 417.986 384.848 423.269C379.535 428.552 372.329 431.521 364.815 431.522V431.522Z" fill="#71D281"/>
<path d="M400.568 377.132C391.64 364.924 378.661 359.232 365.113 359.232C365.113 359.232 331.943 359.232 322.12 388.76C318.492 399.642 319.299 411.457 323.696 422.055C325.344 426.084 327.421 429.925 329.892 433.514C338.457 445.815 365.113 479.406 365.113 479.406C365.113 479.406 395.913 437.277 402.693 424.051C409.739 410.303 410.823 391.157 400.568 377.132ZM364.843 431.754C359.239 431.754 353.76 430.102 349.1 427.006C344.44 423.91 340.808 419.509 338.663 414.36C336.519 409.212 335.957 403.546 337.051 398.081C338.144 392.615 340.843 387.594 344.806 383.654C348.769 379.713 353.818 377.03 359.315 375.942C364.812 374.855 370.509 375.413 375.687 377.546C380.865 379.678 385.291 383.29 388.404 387.924C391.518 392.557 393.18 398.005 393.18 403.578C393.208 407.286 392.494 410.962 391.08 414.393C389.665 417.824 387.579 420.941 384.942 423.563C382.305 426.185 379.171 428.26 375.72 429.666C372.269 431.072 368.572 431.782 364.843 431.754V431.754Z" fill="#8EEE9E"/>
<path d="M364.815 375.172C358.959 375.172 353.247 376.976 348.465 380.336C343.682 383.695 340.063 388.446 338.107 393.934C340.295 389.13 344.005 385.171 348.669 382.662C353.334 380.153 358.697 379.231 363.938 380.038C369.178 380.846 374.009 383.337 377.692 387.132C381.375 390.927 383.706 395.816 384.33 401.053C384.955 406.29 383.837 411.586 381.149 416.132C378.461 420.677 374.349 424.223 369.443 426.226C364.537 428.229 359.107 428.579 353.981 427.224C348.856 425.869 344.318 422.882 341.061 418.72C343.74 422.81 347.441 426.137 351.803 428.377C356.164 430.616 361.036 431.691 365.94 431.495C370.845 431.299 375.614 429.839 379.78 427.259C383.947 424.679 387.368 421.067 389.708 416.777C392.048 412.486 393.228 407.665 393.13 402.785C393.033 397.906 391.662 393.135 389.152 388.94C386.642 384.746 383.08 381.271 378.814 378.858C374.547 376.444 369.723 375.174 364.815 375.172V375.172Z" fill="#71D281"/>
</g>
<path d="M316.233 556.972C328.34 579.377 407.946 558.876 430.227 593.809C442.789 622.189 467.247 636.777 481.823 638.636C500.041 640.96 522.214 639.183 540.767 638.015" stroke="#5CCD6A" stroke-linecap="round" stroke-dasharray="8 8"/>
<g opacity="0.5" clip-path="url(#clip1_1538_44)">
<path d="M280.357 713.312L317.467 721.622C319.067 721.978 320.579 722.65 321.915 723.597C323.252 724.544 324.386 725.748 325.252 727.138C326.117 728.529 326.697 730.078 326.956 731.694C327.215 733.31 327.149 734.962 326.762 736.552L312.884 793.533C312.149 796.539 310.309 799.158 307.729 800.87C305.15 802.582 302.02 803.261 298.961 802.773C297.935 802.608 296.884 802.839 296.024 803.421C295.163 804.002 294.557 804.889 294.328 805.902L266.845 926.781C265.946 930.738 263.517 934.179 260.087 936.351C256.657 938.524 252.505 939.251 248.538 938.375L106.705 906.988C106.177 906.871 105.676 906.651 105.234 906.34C104.791 906.029 104.414 905.634 104.125 905.177C103.836 904.719 103.641 904.209 103.551 903.676C103.46 903.143 103.477 902.598 103.599 902.071L153.041 692.741C153.284 691.714 153.915 690.82 154.801 690.246C155.687 689.673 156.762 689.463 157.799 689.662L280.357 713.312Z" fill="#5CCD6A"/>
<g opacity="0.3">
<path d="M104.542 898.093L103.603 902.056L258.27 928.633L311.039 720.161C311.039 720.161 272.935 715.897 272.24 715.711C271.546 715.525 104.542 898.093 104.542 898.093Z" fill="black"/>
</g>
<path d="M264.234 697.041L308.753 706.111L255.594 922.598L97.2227 896.907L131.9 676.678L264.234 697.041Z" fill="#EBEBEB"/>
<path d="M264.234 697.041L261.872 696.703L255 695.678L228.634 691.668L131.877 676.827L132.049 676.701C122.779 735.709 110.727 812.365 97.4234 896.953L97.2568 896.721L132.752 902.482L255.651 922.417L255.432 922.563C278.686 827.907 297.792 750.256 308.662 706.087L308.737 706.205L275.617 699.389L267.094 697.628C265.189 697.232 264.225 697.014 264.225 697.014C264.225 697.014 265.199 697.194 267.108 697.575L275.643 699.29L308.784 705.997L308.883 706.024L308.857 706.123C298.018 750.325 278.989 827.996 255.751 922.624L255.704 922.799L255.529 922.752L132.689 902.874L97.1928 897.112L96.9945 897.059L97.0475 896.86C110.379 812.288 122.463 735.64 131.772 676.635L131.811 676.491L131.956 676.529L228.683 691.485L255.034 695.581L261.9 696.661C263.435 696.942 264.234 697.041 264.234 697.041Z" fill="#495E4C"/>
<path d="M126.156 667.477L88.9764 889.723L254.517 917.8L289.246 695.06L126.156 667.477Z" fill="white"/>
<path d="M126.148 667.507L289.277 694.881L289.437 694.924L289.394 695.084C279.654 757.616 267.655 834.655 254.706 917.827L254.653 918.025L254.455 917.972L253.28 917.779L88.9426 889.91L88.7671 889.863L88.8141 889.688C110.91 758.128 125.892 669.072 126.148 667.507C125.878 669.126 111.042 758.212 89.1477 889.786L88.9999 889.574L253.374 917.429L254.547 917.629L254.306 917.793C267.3 834.576 279.318 757.559 289.081 695.033L289.218 695.224L126.148 667.507Z" fill="#495E4C"/>
<path d="M206.649 875.767C207.92 871.066 210.558 866.849 214.228 863.647C217.899 860.446 222.438 858.405 227.271 857.782C232.105 857.158 237.015 857.982 241.381 860.147C245.748 862.312 249.374 865.722 251.802 869.945C254.23 874.169 255.35 879.016 255.02 883.874C254.691 888.732 252.927 893.383 249.951 897.238C246.976 901.093 242.922 903.979 238.304 905.531C233.685 907.084 228.709 907.233 224.004 905.959C217.701 904.246 212.334 900.106 209.08 894.445C205.826 888.785 204.952 882.068 206.649 875.767V875.767ZM253.782 888.51C255.031 883.896 254.883 879.015 253.355 874.484C251.828 869.953 248.99 865.975 245.201 863.055C241.411 860.134 236.841 858.401 232.067 858.076C227.294 857.75 222.531 858.846 218.383 861.225C214.234 863.604 210.885 867.159 208.759 871.441C206.634 875.723 205.827 880.539 206.442 885.28C207.056 890.021 209.064 894.474 212.211 898.077C215.359 901.679 219.504 904.268 224.123 905.517C230.315 907.185 236.915 906.331 242.475 903.143C248.035 899.954 252.102 894.692 253.782 888.51V888.51Z" fill="#E0E0E0"/>
<path d="M209.388 876.5C210.497 872.402 212.798 868.725 216 865.934C219.201 863.144 223.16 861.364 227.374 860.822C231.589 860.279 235.871 860.997 239.678 862.885C243.485 864.773 246.647 867.747 248.764 871.43C250.881 875.112 251.858 879.339 251.571 883.575C251.285 887.812 249.747 891.867 247.153 895.229C244.559 898.591 241.025 901.109 236.998 902.463C232.971 903.818 228.632 903.949 224.529 902.84C219.029 901.347 214.346 897.735 211.507 892.797C208.669 887.858 207.906 881.997 209.388 876.5V876.5ZM247.82 886.896C248.766 883.401 248.654 879.704 247.497 876.272C246.34 872.84 244.19 869.827 241.32 867.615C238.45 865.403 234.988 864.091 231.372 863.844C227.756 863.598 224.149 864.428 221.006 866.231C217.864 868.033 215.328 870.726 213.718 873.969C212.109 877.213 211.498 880.861 211.964 884.452C212.43 888.043 213.951 891.416 216.335 894.144C218.719 896.872 221.859 898.833 225.358 899.779C230.045 901.032 235.037 900.38 239.241 897.964C243.445 895.548 246.519 891.565 247.79 886.888L247.82 886.896Z" fill="#E0E0E0"/>
<path d="M214.381 878.189C215.02 875.805 216.215 873.606 217.867 871.772L220.228 873.883C218.906 875.357 217.948 877.12 217.434 879.032C216.843 881.215 216.845 883.517 217.441 885.699C218.037 887.882 219.204 889.867 220.823 891.449C222.442 893.031 224.453 894.153 226.65 894.701C228.847 895.248 231.15 895.2 233.322 894.561L234.218 897.595C231.505 898.392 228.628 898.452 225.883 897.768C223.139 897.084 220.626 895.681 218.605 893.704C216.583 891.726 215.126 889.246 214.384 886.519C213.641 883.792 213.64 880.916 214.381 878.189V878.189Z" fill="#E0E0E0"/>
<path d="M226.294 866.809C229.703 866.059 233.265 866.451 236.43 867.924C239.595 869.397 242.187 871.869 243.808 874.959C245.428 878.05 245.986 881.586 245.396 885.023C244.806 888.461 243.1 891.608 240.542 893.98L238.388 891.646C240.435 889.747 241.8 887.228 242.272 884.476C242.744 881.725 242.297 878.894 240.999 876.421C239.702 873.947 237.626 871.969 235.092 870.79C232.558 869.612 229.707 869.299 226.978 869.9L226.294 866.809Z" fill="#E0E0E0"/>
<path d="M270.48 749.775C270.451 749.882 239.209 744.663 200.659 738.157C162.108 731.65 130.875 726.246 130.896 726.137C130.917 726.029 162.167 731.249 200.727 737.75C239.287 744.251 270.503 749.659 270.48 749.775Z" fill="#495E4C"/>
<path d="M197.068 728.275C197.039 728.381 182.607 726.034 164.813 723.022C147.018 720.01 132.612 717.473 132.626 717.362C132.639 717.252 147.086 719.603 164.881 722.615C182.675 725.627 197.079 728.171 197.068 728.275Z" fill="#495E4C"/>
<path d="M268.7 758.798C268.672 758.905 237.422 753.684 198.879 747.18C160.336 740.675 129.095 735.269 129.116 735.16C129.137 735.051 160.387 740.272 198.945 746.781C237.503 753.289 268.731 758.651 268.7 758.798Z" fill="#495E4C"/>
<path d="M266.941 767.745C266.91 767.859 235.662 762.631 197.117 756.134C158.573 749.637 127.334 744.223 127.357 744.107C127.38 743.991 158.627 749.219 197.185 755.727C235.743 762.236 266.962 767.636 266.941 767.745Z" fill="#495E4C"/>
<path d="M265.169 776.737C265.14 776.844 233.89 771.623 195.348 765.118C156.805 758.614 125.564 753.208 125.579 753.122C125.593 753.036 156.85 758.234 195.41 764.735C233.97 771.236 265.186 776.643 265.169 776.737Z" fill="#495E4C"/>
<path d="M263.399 785.722C263.371 785.828 232.121 780.608 193.57 774.101C155.02 767.594 123.794 762.192 123.807 762.082C123.821 761.971 155.078 767.193 193.638 773.695C232.198 780.196 263.413 785.611 263.399 785.722Z" fill="#495E4C"/>
<path d="M261.622 794.704C261.591 794.819 230.351 789.593 191.799 783.093C153.246 776.594 122.015 771.183 122.045 771.068C122.076 770.954 153.316 776.18 191.874 782.689C230.432 789.198 261.643 794.596 261.622 794.704Z" fill="#495E4C"/>
<path d="M259.85 803.697C259.822 803.803 228.976 798.691 190.967 792.24C152.958 785.788 122.098 780.484 122.119 780.376C122.14 780.267 152.993 785.381 191.043 791.835C229.092 798.289 259.873 803.58 259.85 803.697Z" fill="#495E4C"/>
<path d="M202.845 806.621C202.816 806.728 184.206 803.587 161.277 799.567C138.348 795.547 119.746 792.254 119.767 792.145C119.788 792.036 138.398 795.177 161.345 799.161C184.292 803.145 202.86 806.503 202.845 806.621Z" fill="#495E4C"/>
<path d="M161.247 873.678C161.218 873.785 149.904 871.856 135.955 869.352C122.007 866.848 110.722 864.747 110.737 864.629C110.752 864.51 122.08 866.451 136.029 868.955C149.977 871.459 161.27 873.562 161.247 873.678Z" fill="#495E4C"/>
<path d="M137.767 876.413C137.736 876.527 131.376 875.517 123.559 874.084C115.742 872.651 109.4 871.45 109.413 871.34C109.426 871.229 115.802 872.275 123.627 873.678C131.452 875.08 137.788 876.304 137.767 876.413Z" fill="#495E4C"/>
<path d="M152.713 813.83C152.682 813.944 145.19 812.794 135.942 811.272C126.693 809.749 119.215 808.424 119.238 808.307C119.261 808.191 126.763 809.335 136.01 810.865C145.256 812.395 152.734 813.721 152.713 813.83Z" fill="#5CCD6A"/>
<g opacity="0.3">
<path d="M95.4727 852.174L111.061 853.288L122.691 843.025L96.9955 844.447L95.4727 852.174Z" fill="black"/>
</g>
<path d="M73.7478 829.257L114.329 836.12L122.691 843.025L112.796 849.53L71.4323 843.086L73.7478 829.257Z" fill="#5CCD6A"/>
<path d="M203.164 826.303L203.289 826.385C203.411 826.467 203.522 826.563 203.622 826.67C204.021 827.089 204.353 827.567 204.608 828.086C205.554 830.098 206.14 832.259 206.339 834.472C206.769 837.968 206.427 841.515 205.337 844.863C204.982 845.874 204.527 846.847 203.979 847.767C203.375 848.728 202.694 849.638 201.941 850.488C200.306 852.339 198.358 853.888 196.185 855.064C193.805 856.375 191.199 857.228 188.504 857.58C185.57 857.974 182.584 857.659 179.797 856.66C176.747 855.486 174.052 853.543 171.974 851.021C169.896 848.499 168.506 845.484 167.938 842.267C167.641 840.547 167.631 838.788 167.91 837.065C168.159 835.287 168.809 833.59 169.812 832.102C170.797 830.526 172.27 829.315 174.007 828.651C174.907 828.342 175.867 828.252 176.809 828.388C177.751 828.524 178.647 828.882 179.423 829.433C181.012 830.536 182.165 832.16 182.682 834.023C183.183 835.89 183.265 837.845 182.922 839.748C182.294 843.624 180.715 847.284 178.326 850.401C175.954 853.537 172.806 856.001 169.191 857.551C165.657 859.018 161.786 859.485 158.004 858.899C154.342 858.381 150.903 856.834 148.087 854.437C145.426 852.09 143.504 849.021 142.556 845.603C141.611 842.369 141.604 838.934 142.536 835.698C142.966 834.134 143.685 832.665 144.654 831.364C145.578 830.091 146.81 829.072 148.236 828.403C148.933 828.079 149.69 827.902 150.459 827.883C151.228 827.864 151.992 828.004 152.705 828.294C154.056 828.907 155.152 829.968 155.808 831.298C156.448 832.557 156.748 833.961 156.679 835.371C156.586 836.695 156.24 837.988 155.658 839.181C154.532 841.378 153.017 843.352 151.186 845.008C149.604 846.529 147.871 847.884 146.014 849.054C144.401 850.069 142.709 850.954 140.955 851.701C139.475 852.309 137.956 852.819 136.408 853.227C134.268 853.801 132.071 854.141 129.857 854.241C129.087 854.288 128.315 854.296 127.545 854.266C127.545 854.266 127.746 854.247 128.133 854.236C128.52 854.225 129.099 854.233 129.855 854.158C132.057 854.022 134.239 853.66 136.367 853.077C137.901 852.653 139.406 852.132 140.874 851.515C142.61 850.763 144.284 849.873 145.879 848.854C147.72 847.708 149.44 846.379 151.014 844.888C152.81 843.243 154.297 841.29 155.405 839.121C155.975 837.953 156.315 836.685 156.405 835.387C156.469 834.034 156.176 832.687 155.554 831.483C154.928 830.224 153.886 829.218 152.605 828.635C151.935 828.366 151.216 828.238 150.494 828.26C149.772 828.281 149.063 828.452 148.41 828.76C147.038 829.408 145.853 830.391 144.962 831.618C144.026 832.879 143.334 834.303 142.921 835.817C142.02 838.996 142.038 842.366 142.975 845.536C143.917 848.873 145.803 851.869 148.406 854.163C151.171 856.498 154.538 858.009 158.121 858.522C161.836 859.092 165.636 858.633 169.106 857.194C172.653 855.661 175.737 853.23 178.053 850.14C180.396 847.073 181.949 843.478 182.575 839.671C182.899 837.826 182.821 835.933 182.345 834.12C181.852 832.352 180.759 830.809 179.255 829.755C178.518 829.243 177.675 828.906 176.788 828.768C175.913 828.651 175.023 828.737 174.187 829.018C172.531 829.651 171.128 830.807 170.19 832.309C169.214 833.749 168.583 835.393 168.346 837.116C168.053 838.789 168.045 840.499 168.323 842.174C168.879 845.327 170.238 848.284 172.27 850.76C174.302 853.236 176.938 855.148 179.924 856.31C182.66 857.293 185.59 857.611 188.473 857.237C191.133 856.895 193.705 856.061 196.058 854.777C199.199 853.08 201.848 850.602 203.75 847.583C204.295 846.688 204.744 845.738 205.09 844.748C206.201 841.425 206.568 837.899 206.165 834.418C205.985 832.218 205.427 830.066 204.518 828.054C204.275 827.537 203.961 827.057 203.584 826.628C203.331 826.413 203.15 826.323 203.164 826.303Z" fill="#495E4C"/>
<path d="M243.922 722.957C243.922 722.957 243.956 722.827 243.968 722.569C243.98 722.311 244.057 721.931 244.128 721.452C244.279 720.463 244.504 719.012 244.786 717.136L247.288 700.963L247.389 701.105L162.674 687.701L162.907 687.534C161.706 695.07 160.553 702.423 159.407 709.509L159.24 709.276L219.654 718.987L237.442 721.874L242.235 722.66L243.479 722.871L243.906 722.985L243.495 722.932L242.268 722.751L237.508 722.022L219.746 719.256L159.189 709.679L158.991 709.626L159.042 709.435C160.117 702.372 161.333 694.995 162.527 687.457L162.58 687.259L162.779 687.312L247.44 700.824L247.562 700.857L247.531 700.971C246.395 707.928 245.501 713.431 244.883 717.202C244.572 719.063 244.336 720.495 244.17 721.48C244.091 721.957 244.028 722.315 243.983 722.573C243.939 722.831 243.922 722.957 243.922 722.957Z" fill="#455A64"/>
<path d="M164.609 703.503L166.138 694.45L170.69 695.219C171.785 695.404 172.543 695.776 172.963 696.334C173.384 696.884 173.508 697.677 173.333 698.711C173.158 699.746 172.781 700.458 172.201 700.848C171.622 701.229 170.785 701.327 169.69 701.142L166.702 700.638L166.173 703.768L164.609 703.503ZM166.951 699.163L169.848 699.653C170.426 699.75 170.868 699.705 171.175 699.518C171.483 699.321 171.681 698.964 171.768 698.447C171.857 697.921 171.787 697.519 171.559 697.241C171.34 696.965 170.937 696.777 170.351 696.678L167.454 696.189L166.951 699.163Z" fill="#78C081"/>
<path d="M175.767 705.508C174.888 705.359 174.269 705.086 173.91 704.689C173.553 704.283 173.435 703.722 173.556 703.006C173.681 702.264 173.994 701.776 174.495 701.542C175.006 701.3 175.77 701.265 176.788 701.437L178.948 701.802C179.021 701.264 178.935 700.85 178.691 700.561C178.458 700.264 178.039 700.065 177.436 699.963C176.944 699.88 176.551 699.898 176.256 700.017C175.962 700.127 175.743 700.351 175.597 700.69L174.135 700.443C174.391 699.662 174.8 699.132 175.361 698.854C175.924 698.568 176.706 698.51 177.706 698.678C178.827 698.868 179.599 699.233 180.022 699.775C180.453 700.318 180.584 701.093 180.413 702.102L179.745 706.06L178.27 705.811L178.399 705.048C177.8 705.55 176.923 705.703 175.767 705.508ZM175.026 703.201C174.933 703.753 175.369 704.11 176.335 704.274C176.999 704.386 177.519 704.349 177.896 704.165C178.274 703.98 178.549 703.636 178.722 703.134L178.762 702.901L176.99 702.602C175.783 702.398 175.128 702.598 175.026 703.201Z" fill="#78C081"/>
<path d="M181.472 704.197L182.934 704.444C183.012 705.086 183.568 705.495 184.602 705.67C185.637 705.845 186.193 705.704 186.27 705.247C186.339 704.841 185.775 704.449 184.58 704.07C183.543 703.753 182.83 703.402 182.443 703.017C182.066 702.625 181.931 702.11 182.039 701.472C182.154 700.791 182.468 700.325 182.98 700.075C183.501 699.826 184.257 699.785 185.249 699.953C186.258 700.123 186.987 700.428 187.436 700.867C187.885 701.307 188.1 701.92 188.083 702.706L186.621 702.459C186.582 702.115 186.431 701.851 186.17 701.665C185.919 701.471 185.53 701.33 185.005 701.242C184.056 701.081 183.545 701.217 183.473 701.648C183.436 701.863 183.545 702.059 183.799 702.235C184.063 702.404 184.485 702.582 185.066 702.768C186.168 703.123 186.909 703.488 187.289 703.862C187.679 704.23 187.821 704.728 187.715 705.358C187.597 706.056 187.267 706.541 186.724 706.813C186.181 707.085 185.388 707.133 184.345 706.957C183.328 706.785 182.59 706.479 182.133 706.038C181.683 705.598 181.463 704.985 181.472 704.197Z" fill="#78C081"/>
<path d="M191.787 708.214C190.615 708.016 189.808 707.596 189.366 706.953C188.925 706.311 188.807 705.382 189.012 704.167C189.218 702.951 189.634 702.112 190.262 701.651C190.89 701.189 191.79 701.057 192.963 701.255C194.006 701.432 194.755 701.775 195.21 702.287C195.664 702.798 195.874 703.525 195.839 704.468L194.377 704.221C194.358 703.757 194.219 703.401 193.959 703.153C193.699 702.905 193.298 702.735 192.755 702.644C192.082 702.53 191.567 702.616 191.208 702.901C190.851 703.178 190.61 703.683 190.487 704.416C190.363 705.149 190.423 705.709 190.668 706.096C190.915 706.475 191.374 706.721 192.047 706.834C192.582 706.925 193.012 706.895 193.339 706.746C193.676 706.591 193.928 706.301 194.098 705.877L195.559 706.124C195.293 707.019 194.856 707.637 194.248 707.978C193.651 708.311 192.831 708.39 191.787 708.214Z" fill="#78C081"/>
<path d="M198.793 709.397C197.913 709.249 197.294 708.975 196.936 708.578C196.579 708.172 196.461 707.611 196.582 706.895C196.707 706.154 197.02 705.666 197.521 705.431C198.032 705.189 198.796 705.154 199.813 705.326L201.973 705.691C202.046 705.153 201.961 704.74 201.717 704.45C201.483 704.154 201.065 703.954 200.461 703.852C199.97 703.769 199.576 703.787 199.281 703.906C198.988 704.016 198.768 704.24 198.622 704.579L197.161 704.332C197.417 703.551 197.826 703.021 198.387 702.744C198.95 702.457 199.731 702.399 200.731 702.568C201.852 702.757 202.624 703.122 203.047 703.664C203.479 704.207 203.609 704.983 203.439 705.991L202.77 709.949L201.296 709.7L201.425 708.937C200.826 709.439 199.948 709.592 198.793 709.397ZM198.052 707.09C197.959 707.642 198.395 708 199.361 708.163C200.025 708.275 200.545 708.239 200.922 708.054C201.299 707.869 201.574 707.526 201.748 707.023L201.787 706.79L200.015 706.491C198.808 706.287 198.154 706.487 198.052 707.09Z" fill="#78C081"/>
<path d="M204.48 710.238L206.119 700.538L207.58 700.785L205.942 710.485L204.48 710.238Z" fill="#78C081"/>
<path d="M212.071 702.208L213.726 702.488L215.773 710.456L220.323 703.602L221.978 703.882L216.388 712.249L214.603 711.948L212.071 702.208Z" fill="#78C081"/>
<path d="M221.334 709.626C221.538 708.419 221.958 707.585 222.594 707.125C223.232 706.656 224.155 706.524 225.362 706.728C226.569 706.932 227.393 707.355 227.835 707.997C228.276 708.639 228.394 709.568 228.189 710.784C228.173 710.879 228.139 711.028 228.086 711.232L222.771 710.334C222.72 710.947 222.827 711.417 223.091 711.745C223.364 712.075 223.806 712.292 224.418 712.395C225.323 712.548 225.957 712.34 226.319 711.772L227.845 712.029C227.535 712.819 227.071 713.331 226.455 713.564C225.84 713.797 225.083 713.838 224.187 713.686C222.979 713.482 222.151 713.059 221.701 712.415C221.251 711.771 221.129 710.842 221.334 709.626ZM222.969 709.237L226.811 709.886C226.826 709.321 226.699 708.896 226.427 708.611C226.158 708.317 225.734 708.121 225.156 708.023C224.579 707.926 224.11 707.971 223.75 708.158C223.399 708.347 223.139 708.707 222.969 709.237Z" fill="#78C081"/>
<path d="M230.158 707.658L231.619 707.904L231.484 708.706C232.061 708.174 232.889 707.999 233.967 708.181C234.924 708.343 235.582 708.702 235.94 709.259C236.308 709.809 236.403 710.61 236.226 711.662L235.579 715.491L234.117 715.244L234.764 711.416C234.86 710.846 234.788 710.409 234.547 710.102C234.315 709.796 233.901 709.594 233.306 709.493C232.634 709.38 232.119 709.461 231.762 709.738C231.413 710.016 231.176 710.526 231.051 711.267L230.483 714.63L229.022 714.383L230.158 707.658Z" fill="#78C081"/>
<path d="M240.384 709.385L242.337 709.715L242.105 711.086L240.152 710.756L239.663 713.653C239.599 714.032 239.643 714.324 239.794 714.527C239.946 714.73 240.229 714.866 240.643 714.936L241.523 715.085L241.291 716.456L240.373 716.3C239.468 716.148 238.838 715.855 238.486 715.423C238.143 714.984 238.039 714.368 238.173 713.574L238.691 710.509L237.63 710.33L237.862 708.959L238.922 709.138L239.171 707.664L240.633 707.91L240.384 709.385Z" fill="#78C081"/>
</g>
<path d="M889 1069C868 1088 841.1 1095.02 826.849 1098.59C806.718 1102.53 790.289 1106 774.013 1106C751.341 1106 730.489 1104.34 708.459 1099.95C688.551 1095.99 659.965 1078.54 639 1069" stroke="#5CCD6A" stroke-linecap="round" stroke-dasharray="8 8"/>
<path d="M528 1009C502.17 993.956 488.161 988.483 457.787 982.441C404.754 971.891 365.659 1001.69 311.233 1001.39C270.206 1001.16 205.042 968.921 191 941" stroke="#5CCD6A" stroke-linecap="round" stroke-dasharray="8 8"/>
<defs>
<clipPath id="clip0_1538_44">
<rect width="238.088" height="219.404" fill="white" transform="translate(195.094) rotate(25.6848)"/>
</clipPath>
<clipPath id="clip1_1538_44">
<rect width="221.742" height="252.132" fill="white" transform="translate(121.78 650) rotate(15)"/>
</clipPath>
</defs>
</svg>
